<?xml version="1.0" standalone="no"?>
<!DOCTYPE svg PUBLIC "-//W3C//DTD SVG 1.1//EN" "http://www.w3.org/Graphics/SVG/1.1/DTD/svg11.dtd" >
<svg xmlns="http://www.w3.org/2000/svg" xmlns:xlink="http://www.w3.org/1999/xlink" version="1.1">
<metadata></metadata>
<defs>
<font id="tt_normsmedium" horiz-adv-x="1281" >
<font-face units-per-em="2048" ascent="1638" descent="-410" />
<missing-glyph horiz-adv-x="441" />
<glyph unicode="&#xfb01;" horiz-adv-x="1271" d="M1095 1062v-1062h-221v863h-443v-863h-220v863h-156v199h156v177q0 331 308 331q40 0 73.5 -5t46.5 -12l13 -4v-200q-33 22 -88 23q-57 0 -95 -38t-38 -97v-175h664zM1117 1393q0 -57 -37.5 -95t-95 -38t-95.5 38t-38 95t38 95t95.5 38t95 -38t37.5 -95z" />
<glyph unicode="&#xfb02;" d="M874 1150q0 100 -61 161t-160.5 61t-160.5 -61t-61 -161v-88h244v-199h-244v-863h-220v863h-156v199h156v88q0 184 122.5 302t319 118t319.5 -118t123 -302v-1150h-221v1150z" />
<glyph unicode="&#xfb03;" horiz-adv-x="1935" d="M874 1062v177q0 331 310 331q40 0 78 -5t57 -12l19 -4v-200q-55 22 -110 23q-57 0 -95 -38t-38 -97v-175h663v-1062h-221v863h-442v-863h-221v863h-443v-863h-220v863h-156v199h156v132q0 332 308 332q40 0 79 -5.5t56 -11.5l21 -5v-199q-55 21 -111 22q-57 0 -95 -37.5 t-38 -97.5v-130h443zM1781 1393q0 -57 -38 -95t-95 -38t-95 38t-38 95t38 95t95 38t95 -38t38 -95z" />
<glyph horiz-adv-x="0" />
<glyph horiz-adv-x="0" />
<glyph unicode="&#xd;" horiz-adv-x="0" />
<glyph unicode=" "  horiz-adv-x="441" />
<glyph unicode="&#x09;" horiz-adv-x="441" />
<glyph unicode="&#xa0;" horiz-adv-x="441" />
<glyph unicode="!" horiz-adv-x="729" d="M454 409h-178l-44 1140h266zM221 121.5q0 57.5 43.5 101t100.5 43.5t100.5 -43.5t43.5 -101t-43.5 -100.5t-100.5 -43t-100.5 43t-43.5 100.5z" />
<glyph unicode="&#x22;" horiz-adv-x="817" d="M332 1549v-465h-199v465h199zM686 1549v-465h-199v465h199z" />
<glyph unicode="#" horiz-adv-x="1647" d="M188 1106h331l78 443h188l-78 -443h365l78 443h188l-78 -443h344l-34 -166h-342l-67 -332h332l-33 -165h-332l-77 -443h-188l77 443h-365l-77 -443h-188l77 443h-343l34 165h340l69 332h-333zM675 940l-67 -332h365l67 332h-365z" />
<glyph unicode="$" horiz-adv-x="1304" d="M531 1792h221v-232q97 -16 185.5 -63t128.5 -85l40 -40l-155 -156q-4 4 -12 14.5t-36.5 32.5t-61.5 40t-86.5 32t-112.5 14q-120 0 -193 -59.5t-73 -139.5q0 -71 45.5 -119.5t117 -76t159 -50t175 -54t159.5 -77t117 -130t45 -200.5q0 -87 -24 -157.5t-63 -116t-86.5 -81 t-95 -53.5t-86.5 -29.5t-62 -14.5l-25 -2v-232h-221v232q-80 9 -155 36.5t-125 60t-88.5 63t-56.5 50.5l-17 22l154 155q4 -7 14.5 -19t46.5 -43t78 -54t112 -42t148 -19q143 0 226 69.5t83 174.5q0 71 -45 119t-117 75.5t-159.5 50t-175 54.5t-159 77.5t-117 129 t-45.5 201.5q0 102 41 182t99.5 120.5t117 67.5t100.5 33l40 7v232z" />
<glyph unicode="%" horiz-adv-x="1702" d="M796 1227.5q0 -141.5 -102.5 -242t-251 -100.5t-251 100.5t-102.5 242t102.5 242t251 100.5t251 -100.5t102.5 -242zM266 1227q0 -75 50.5 -125.5t125.5 -50.5t126 50.5t51 125.5t-51 126t-126 51t-125.5 -51t-50.5 -126zM266 0l973 1549h198l-973 -1549h-198zM907 320.5 q0 141.5 102.5 242t251 100.5t251.5 -100.5t103 -242t-103 -242t-251.5 -100.5t-251 100.5t-102.5 242zM1437 320.5q0 75.5 -50.5 126.5t-125.5 51t-126 -51t-51 -126.5t51 -126t126 -50.5t125.5 50.5t50.5 126z" />
<glyph unicode="&#x26;" horiz-adv-x="1414" d="M1150 287q7 -13 21.5 -30.5t54 -48.5t79.5 -31q10 0 20.5 3.5t17 5.5t6.5 4v-201q-44 -11 -89 -11q-68 0 -132 38.5t-93 76.5l-28 40q-16 -17 -47 -43t-131.5 -69t-209.5 -43q-209 0 -337 110.5t-128 265.5q0 80 30.5 157.5t72 130t83.5 95t71 61.5l32 21 q-25 24 -61.5 66t-98.5 147t-62 184q0 150 106 252t270 102q162 0 269 -98t107 -233q0 -97 -66.5 -202.5t-132.5 -160.5l-67 -57l300 -365q77 122 77 298h199q0 -118 -33.5 -233.5t-65.5 -173.5zM619 177q68 0 135 24.5t100 50.5l31 24l-321 399q-22 -15 -53 -44t-83 -107.5 t-52 -147.5q0 -93 60.5 -146t182.5 -53zM764 1216q0 66 -46.5 111t-120 45t-120 -44.5t-46.5 -111.5q0 -49 41 -112.5t83 -103.5l42 -38q18 15 46 42.5t74.5 95t46.5 116.5z" />
<glyph unicode="'" horiz-adv-x="464" d="M332 1549v-465h-199v465h199z" />
<glyph unicode="(" horiz-adv-x="751" d="M376 553q0 -154 32.5 -309t77.5 -266t90 -199.5t78 -132.5l32 -45l-167 -99q-12 17 -35.5 48.5t-83.5 136.5t-104 218.5t-81.5 291t-37.5 356.5t35 353.5t86.5 295.5t101 215t85.5 140l34 47l167 -100q-13 -15 -34 -46t-74.5 -129.5t-94 -202.5t-74 -261.5t-33.5 -311.5z " />
<glyph unicode=")" horiz-adv-x="751" d="M376 553q0 154 -32 309t-77.5 266t-90.5 199.5t-79 132.5l-31 44l166 100q13 -17 36.5 -48.5t83 -136.5t104 -219t82 -291t37.5 -356t-35.5 -353.5t-86 -295.5t-100.5 -215t-85 -140l-36 -47l-166 99q13 16 34.5 47t74.5 129.5t94 202.5t74 261.5t33 311.5z" />
<glyph unicode="*" horiz-adv-x="884" d="M531 1549l-22 -277l255 100l55 -167l-266 -66l177 -221l-133 -110l-154 243l-156 -243l-133 110l178 221l-266 66l56 167l254 -100l-22 277h177z" />
<glyph unicode="+" horiz-adv-x="1161" d="M675 154h-188v399h-398v199h398v398h188v-398h397v-199h-397v-399z" />
<glyph unicode="," horiz-adv-x="530" d="M221 266l199 -112l-276 -441l-144 76z" />
<glyph unicode="-" horiz-adv-x="950" d="M863 752v-199h-774v199h774z" />
<glyph unicode="." horiz-adv-x="508" d="M399 121.5q0 -57.5 -43.5 -100.5t-101 -43t-101 43t-43.5 100.5t43.5 101t101 43.5t101 -43.5t43.5 -101z" />
<glyph unicode="/" horiz-adv-x="994" d="M929 1570l-663 -2034h-200l664 2034h199z" />
<glyph unicode="0" horiz-adv-x="1570" d="M133 774q0 363 189 579.5t463 216.5t463 -216.5t189 -579.5t-189 -579.5t-463 -216.5t-463 216.5t-189 579.5zM1194 774.5q0 267.5 -120 421t-288.5 153.5t-289 -153.5t-120.5 -421t120.5 -421.5t289 -154t288.5 154t120 421.5z" />
<glyph unicode="1" horiz-adv-x="851" d="M420 1549h188v-1549h-243v1172h-276v166q139 15 212 66.5t119 144.5z" />
<glyph unicode="2" horiz-adv-x="1249" d="M1117 0h-1028q0 144 43 261t112.5 195t153.5 142.5t167 118t152.5 105.5t113 121.5t43.5 151.5q0 118 -73 186t-204 68q-63 0 -119 -23.5t-86.5 -55t-54 -64t-31.5 -56.5l-8 -22l-199 88l13 39t45 84.5t87 107t144 85t209 38.5q228 0 374 -137t146 -338 q0 -106 -43.5 -196.5t-110 -151.5t-152 -125.5t-166.5 -117.5t-159.5 -127t-120.5 -156h752v-221z" />
<glyph unicode="3" horiz-adv-x="1260" d="M874 819q11 -5 29.5 -13t66 -38.5t84.5 -70.5t66.5 -111t29.5 -155q0 -190 -151.5 -321.5t-401.5 -131.5q-106 0 -201 25.5t-157 60.5t-107.5 71t-65.5 59l-22 27l155 155q4 -7 15.5 -19t49 -43t79 -54t110.5 -42t144 -19q144 0 227 69.5t83 173.5t-83 174t-227 70h-154 v221h154q115 0 179 59.5t64 161.5t-64 161.5t-179 59.5q-97 0 -183.5 -42t-121.5 -81l-37 -42l-156 154q7 9 20.5 24.5t60 56.5t99.5 71t139 55t179 25q228 0 357.5 -117t129.5 -303q0 -64 -22 -122.5t-53.5 -95.5t-61 -63.5t-52.5 -36.5z" />
<glyph unicode="4" horiz-adv-x="1348" d="M1084 531h199v-221h-199v-310h-244v310h-751v265l685 974h310v-1018zM840 531v741l-519 -741h519z" />
<glyph unicode="5" horiz-adv-x="1393" d="M730 1028q232 0 381 -147t149 -372q0 -235 -152 -383t-401 -148q-105 0 -200.5 25.5t-157.5 60.5t-107 71t-65 59l-23 27l156 155q4 -7 15 -19t48.5 -43t80 -54t111 -42t142.5 -19q133 0 221.5 88.5t88.5 221.5t-88.5 221.5t-221.5 88.5q-97 0 -174 -36t-106 -71l-28 -37 h-178l45 874h895v-222h-674l-23 -365q89 66 266 66z" />
<glyph unicode="6" horiz-adv-x="1348" d="M707 1040q201 0 355 -158t154 -373q0 -217 -161.5 -374t-391.5 -157t-391.5 157t-161.5 374q0 88 31.5 176.5t61.5 133.5l29 44l443 686h243l-343 -532q55 23 132 23zM996 509q0 133 -97 226.5t-236 93.5t-235 -93.5t-96 -226.5t96 -227t235 -94t236 94t97 227z" />
<glyph unicode="7" horiz-adv-x="1161" d="M66 1549h1029v-200l-652 -1349h-244l641 1327h-774v222z" />
<glyph unicode="8" horiz-adv-x="1326" d="M664 741q-130 0 -220 -83t-90 -193.5t90 -193.5t220 -83t219.5 83t89.5 193.5t-89.5 193.5t-219.5 83zM663.5 1372q-106.5 0 -175 -64.5t-68.5 -157.5t68.5 -157t175 -64t175 64t68.5 157t-68.5 157.5t-175 64.5zM664 1570q195 0 329.5 -125.5t134.5 -294.5 q0 -55 -15.5 -107t-38.5 -85.5t-46.5 -58.5t-39.5 -36l-15 -12q9 -6 24.5 -17t53.5 -49t66.5 -80t52.5 -106.5t24 -134.5q0 -200 -151.5 -343t-379.5 -143t-379 143t-151 343q0 108 55 205t110 141l56 41q-17 11 -43 33.5t-69 100t-43 165.5q0 169 135 294.5t330 125.5z" />
<glyph unicode="9" horiz-adv-x="1348" d="M642 509q-201 0 -355 158t-154 373q0 217 161.5 373.5t391.5 156.5t391.5 -157t161.5 -373q0 -89 -31 -177.5t-62 -132.5l-29 -44l-442 -686h-244l343 531q-55 -22 -132 -22zM354 1039.5q0 -132.5 96 -226.5t235.5 -94t235.5 94t96 226.5t-96 227t-235.5 94.5 t-235.5 -94.5t-96 -227z" />
<glyph unicode=":" horiz-adv-x="508" d="M110 121.5q0 57.5 43.5 101t101 43.5t101 -43.5t43.5 -101t-43.5 -100.5t-101 -43t-101 43t-43.5 100.5zM110 940q0 58 43.5 101t101 43t101 -43t43.5 -101t-43.5 -101t-101 -43t-101 43t-43.5 101z" />
<glyph unicode=";" horiz-adv-x="541" d="M221 266l199 -112l-276 -441l-144 76zM144 940q0 58 43 101t100.5 43t100.5 -43t43 -101t-43 -101t-100.5 -43t-100.5 43t-43 101z" />
<glyph unicode="&#x3c;" horiz-adv-x="1105" d="M89 487v110l928 487v-221l-618 -321l618 -321v-221z" />
<glyph unicode="=" horiz-adv-x="1083" d="M996 553v-199h-907v199h907zM996 951v-199h-907v199h907z" />
<glyph unicode="&#x3e;" horiz-adv-x="1105" d="M1017 597v-110l-928 -487v221l618 321l-618 321v221z" />
<glyph unicode="?" horiz-adv-x="1182" d="M454 509q0 90 41 164t99 121.5t117 94t99.5 106.5t40.5 133q0 92 -70.5 156.5t-183.5 64.5q-71 0 -129.5 -23.5t-90.5 -55t-53 -64t-28 -56.5l-9 -22l-198 77q4 15 11.5 40t46.5 87.5t89.5 110t147 87.5t213.5 40q217 0 357.5 -123.5t140.5 -296.5q0 -122 -44 -209 t-107.5 -138t-127.5 -96.5t-108.5 -114t-44.5 -161.5v-22h-199q-10 55 -10 100zM420 121.5q0 57.5 43.5 101t100.5 43.5t100 -43.5t43 -101t-43 -100.5t-100 -43t-100.5 43t-43.5 100.5z" />
<glyph unicode="@" horiz-adv-x="2012" d="M996 796q-100 0 -172 -74t-72 -180.5t71.5 -180.5t172.5 -74q93 0 156.5 71t63.5 183.5t-63.5 183.5t-156.5 71zM973 951q74 0 134 -24t85 -51l24 -25v89h156v-520q0 -57 35 -95t86 -38q82 0 134.5 77t52.5 233q0 268 -193 455t-480 187q-275 0 -475 -202.5t-200 -483.5 t200 -483.5t475 -202.5q112 0 212 35.5t144 70.5l41 38l100 -121q-6 -7 -20.5 -19t-62 -43t-100.5 -54t-138.5 -42t-175.5 -19q-348 0 -600.5 250t-252.5 590t252.5 590t600.5 250q360 0 605.5 -234.5t245.5 -561.5q0 -225 -100.5 -344.5t-264.5 -119.5q-74 0 -134.5 33 t-84.5 66l-24 34q-9 -15 -28 -38t-89.5 -59t-159.5 -36q-159 0 -273 118t-114 291t114 291t273 118z" />
<glyph unicode="A" horiz-adv-x="1614" d="M44 0l642 1549h243l641 -1549h-253l-167 409h-686l-166 -409h-254zM808 1272l-255 -641h509z" />
<glyph unicode="B" horiz-adv-x="1514" d="M885 0h-664v1549h630q188 0 321 -124.5t133 -285.5q0 -92 -38.5 -170t-76.5 -108l-40 -32q9 -4 24.5 -14t56.5 -44t71 -75.5t55 -106.5t25 -135q0 -186 -142.5 -320t-354.5 -134zM464 211h421q108 0 181 72.5t73 180.5t-72.5 181.5t-181.5 73.5h-421v-508zM851 1338h-387 v-420h387q91 0 151 60t60 150t-60 150t-151 60z" />
<glyph unicode="C" horiz-adv-x="1680" d="M951 1570q118 0 226 -30.5t179 -75t124 -87.5t77 -75l24 -30l-154 -155q-7 8 -19.5 24t-56.5 57t-95 70.5t-132.5 55t-172.5 25.5q-240 0 -407.5 -167t-167.5 -407.5t167 -408t408 -167.5q91 0 173.5 25t137.5 61t96.5 71t61.5 60l17 27l156 -156q-9 -13 -26.5 -34 t-78.5 -74t-129.5 -94t-179.5 -74t-228 -33q-347 0 -582.5 231.5t-235.5 565t235.5 564.5t582.5 231z" />
<glyph unicode="D" horiz-adv-x="1680" d="M221 1549h543q322 0 553.5 -229t231.5 -545.5t-231.5 -545.5t-553.5 -229h-543v1549zM764 1327h-300v-1106h300q225 0 383 160.5t158 393t-158 392.5t-383 160z" />
<glyph unicode="E" horiz-adv-x="1448" d="M464 221h874v-221h-1117v1549h1096v-222h-853v-409h675v-221h-675v-476z" />
<glyph unicode="F" horiz-adv-x="1393" d="M221 1549h1084v-222h-841v-432h664v-220h-664v-675h-243v1549z" />
<glyph unicode="G" horiz-adv-x="1790" d="M1072 819h543v-553q-9 -11 -27 -31t-80 -70.5t-132.5 -87.5t-185.5 -68t-239 -31q-347 0 -582.5 231.5t-235.5 565t235.5 564.5t582.5 231q118 0 226 -30.5t179 -75t124 -87.5t77 -75l24 -30l-154 -155q-7 8 -19.5 24t-56.5 57t-95 70.5t-132.5 55t-172.5 25.5 q-240 0 -407.5 -167t-167.5 -407.5t167 -408t408 -167.5q80 0 153 15.5t119.5 38.5t81.5 46.5t50 38.5l17 16v243h-300v222z" />
<glyph unicode="H" horiz-adv-x="1691" d="M1471 1549v-1549h-243v675h-764v-675h-243v1549h243v-654h764v654h243z" />
<glyph unicode="I" horiz-adv-x="684" d="M221 0v1549h243v-1549h-243z" />
<glyph unicode="J" horiz-adv-x="1127" d="M663 1549h244v-1085q0 -217 -139 -351.5t-369 -134.5q-69 0 -132.5 17.5t-106 44t-75 53.5t-47.5 44l-16 17l155 156q7 -13 22.5 -31t72.5 -49t127 -31q124 0 194 70.5t70 194.5v1085z" />
<glyph unicode="K" horiz-adv-x="1536" d="M464 1549v-753l697 753h310l-597 -642l641 -907h-299l-509 730l-243 -266v-464h-243v1549h243z" />
<glyph unicode="L" d="M1216 0h-995v1549h243v-1328h752v-221z" />
<glyph unicode="M" horiz-adv-x="2056" d="M1028 796l597 753h211v-1549h-243v1128l-565 -708l-564 708v-1128h-243v1549h210z" />
<glyph unicode="N" horiz-adv-x="1758" d="M1294 1549h243v-1549h-210l-863 1117v-1117h-243v1549h210l863 -1118v1118z" />
<glyph unicode="O" horiz-adv-x="1901" d="M376 774.5q0 -240.5 167 -408t408 -167.5t408 167.5t167 408t-167 407.5t-408 167t-408 -167t-167 -407.5zM133 774.5q0 333.5 235.5 564.5t582.5 231t582.5 -231t235.5 -564.5t-235.5 -565t-582.5 -231.5t-582.5 231.5t-235.5 565z" />
<glyph unicode="P" horiz-adv-x="1492" d="M221 1549h619q222 0 371.5 -145.5t149.5 -353.5t-149.5 -352.5t-371.5 -144.5h-376v-553h-243v1549zM840 1327h-376v-553h376q115 0 196 79.5t81 196.5t-81 197t-196 80z" />
<glyph unicode="Q" horiz-adv-x="1923" d="M133 774.5q0 333.5 235.5 564.5t582.5 231t582.5 -231t235.5 -565q0 -145 -45.5 -271.5t-110 -204t-130 -133t-111.5 -76.5l-45 -25q5 -9 14.5 -23t47.5 -50.5t85.5 -62t132.5 -42.5t185 -8v-199q-137 -15 -258.5 11.5t-198.5 75t-134 98.5t-82 87l-24 38 q-78 -11 -144 -11q-347 0 -582.5 231.5t-235.5 565zM376 774.5q0 -240.5 167 -408t408 -167.5t408 167.5t167 408t-167 407.5t-408 167t-408 -167t-167 -407.5z" />
<glyph unicode="R" horiz-adv-x="1547" d="M221 0v1549h653q215 0 356.5 -137.5t141.5 -339.5q0 -95 -32.5 -177.5t-78 -130t-91 -83t-77.5 -48.5l-31 -14l354 -619h-266l-331 597h-355v-597h-243zM1128 1073q0 109 -73 181.5t-181 72.5h-410v-508h410q108 0 181 72.5t73 181.5z" />
<glyph unicode="S" horiz-adv-x="1304" d="M951 443q0 71 -45 119t-117 75.5t-159.5 50t-175 54.5t-159 77.5t-117 129t-45.5 201.5q0 179 137 299.5t372 120.5q86 0 165.5 -21t131.5 -49.5t91.5 -57t58.5 -49.5l17 -21l-155 -156q-4 4 -12 14.5t-36.5 32.5t-61.5 40t-86.5 32t-112.5 14q-120 0 -193 -59.5 t-73 -139.5q0 -71 45.5 -119.5t117 -76t159 -50t175 -54t159.5 -77t117 -130t45 -200.5q0 -205 -146.5 -335t-405.5 -130q-106 0 -201.5 25.5t-157.5 60.5t-107 71t-66 59l-21 27l154 155q4 -7 14.5 -19t46.5 -43t78 -54t112 -42t148 -19q143 0 226 70t83 174z" />
<glyph unicode="T" horiz-adv-x="1260" d="M44 1549h1172v-222h-464v-1327h-243v1327h-465v222z" />
<glyph unicode="U" horiz-adv-x="1702" d="M851.5 199q165.5 0 287 124t121.5 296v930h244v-930q0 -266 -190.5 -453.5t-462 -187.5t-462 188t-190.5 453v930h244v-930q0 -173 121.5 -296.5t287 -123.5z" />
<glyph unicode="V" horiz-adv-x="1591" d="M675 0l-609 1549h255l475 -1239l476 1239h254l-608 -1549h-243z" />
<glyph unicode="W" horiz-adv-x="2387" d="M1317 1549l375 -1184l376 1184h254l-509 -1549h-243l-376 1172l-375 -1172h-244l-509 1549h255l376 -1184l375 1184h245z" />
<glyph unicode="X" horiz-adv-x="1526" d="M764 1007l386 542h287l-530 -741l575 -808h-288l-430 608l-432 -608h-288l575 808l-530 741h287z" />
<glyph unicode="Y" horiz-adv-x="1459" d="M310 1549l420 -741l420 741h266l-565 -996v-553h-243v553l-564 996h266z" />
<glyph unicode="Z" horiz-adv-x="1393" d="M973 1327h-829v222h1116v-222l-861 -1106h884v-221h-1173v221z" />
<glyph unicode="[" horiz-adv-x="729" d="M376 1393v-1680h287v-177h-486v2034h486v-177h-287z" />
<glyph unicode="\" horiz-adv-x="994" d="M730 -464l-664 2034h200l663 -2034h-199z" />
<glyph unicode="]" horiz-adv-x="729" d="M354 -287v1680h-288v177h487v-2034h-487v177h288z" />
<glyph unicode="^" horiz-adv-x="906" d="M376 1549h155l288 -642h-200l-165 387l-167 -387h-198z" />
<glyph unicode="_" horiz-adv-x="751" d="M774 -199v-200h-796v200h796z" />
<glyph unicode="`" horiz-adv-x="530" d="M298 1549l166 -310h-166l-232 310h232z" />
<glyph unicode="a" horiz-adv-x="1161" d="M996 0h-222v110l-14 -14t-41 -32t-66.5 -40t-89.5 -32t-109 -14q-162 0 -269 94t-107 215q0 131 82.5 219.5t226.5 112.5l387 67q0 84 -62 141.5t-159 57.5q-84 0 -152.5 -35.5t-94.5 -70.5l-30 -38l-143 144q6 8 17.5 21.5t51 47.5t83.5 61t117 48t151 21 q194 0 318.5 -115t124.5 -283v-686zM487 177q135 0 211 80.5t76 229.5v22l-343 -55q-59 -11 -96 -49t-37 -95q0 -53 51.5 -93t137.5 -40z" />
<glyph unicode="b" horiz-adv-x="1348" d="M730 1084q211 0 365.5 -161.5t154.5 -391.5t-155 -391.5t-365 -161.5q-59 0 -116 14t-97 35.5t-70.5 43.5t-43.5 35l-16 16v-122h-221v1549h221v-609q15 15 43 39.5t117.5 64.5t182.5 40zM708 177q126 0 223 103.5t97 250t-97 250.5t-223 104t-223.5 -104t-97.5 -250.5 t97.5 -250t223.5 -103.5z" />
<glyph unicode="c" horiz-adv-x="1149" d="M78 531q0 223 164.5 388t388.5 165q124 0 231 -53.5t153 -106.5l47 -50l-144 -144q-11 17 -33 42.5t-96 69t-158 43.5q-135 0 -234 -103t-99 -251.5t99 -251t234 -102.5q84 0 158 42t106 82l34 41l143 -143q-6 -9 -19 -24.5t-56 -53t-90.5 -66t-123.5 -53t-152 -24.5 q-224 0 -388.5 165t-164.5 388z" />
<glyph unicode="d" horiz-adv-x="1348" d="M597 1084q60 0 116.5 -14.5t96 -35.5t71 -43t43.5 -35l16 -16v609h221v-1549h-221v122q-16 -15 -43.5 -40t-117 -64.5t-182.5 -39.5q-210 0 -364.5 161.5t-154.5 391.5t154.5 391.5t364.5 161.5zM619.5 177q125.5 0 223 103.5t97.5 250t-97.5 250.5t-223 104t-223.5 -104 t-98 -250.5t98 -250t223.5 -103.5z" />
<glyph unicode="e" horiz-adv-x="1237" d="M1128 454h-830q17 -113 110.5 -195t222.5 -82q93 0 173.5 42t113.5 82l33 41l144 -143q-6 -9 -19.5 -24.5t-58 -53t-94 -66t-129 -53t-163.5 -24.5q-226 0 -389.5 166t-163.5 398q0 224 159 383t382 159t371.5 -148.5t148.5 -371.5zM619 895q-120 0 -201.5 -70.5 t-109.5 -182.5h614q-19 112 -100 182.5t-203 70.5z" />
<glyph unicode="f" horiz-adv-x="751" d="M675 1062v-199h-244v-863h-220v863h-156v199h156v177q0 331 308 331q40 0 79 -5t56 -12l21 -4v-200q-55 22 -111 23q-57 0 -95 -38t-38 -97v-175h244z" />
<glyph unicode="g" d="M895 64v90l-14 -14q-9 -9 -40 -31.5t-66.5 -40t-89.5 -32t-110 -14.5q-201 0 -349 155t-148 376t148 376t349 155q88 0 168 -33.5t116 -66.5l36 -33v111h222v-996q0 -224 -153.5 -377t-377.5 -153q-90 0 -172 23t-135 55t-93 64.5t-57 55.5l-19 23l145 144q4 -7 14 -18.5 t41.5 -40t67.5 -50.5t92 -40t116 -18q135 0 222 92t87 238zM298 553q0 -139 89.5 -235.5t209.5 -96.5t209 96.5t89 235.5t-89 235.5t-209 96.5t-209.5 -96.5t-89.5 -235.5z" />
<glyph unicode="h" horiz-adv-x="1304" d="M387 1549v-598q4 5 14 14.5t41 32t66.5 40t89.5 32t109 14.5q193 0 312.5 -126t119.5 -339v-619h-221v619q0 114 -73 190t-182 76q-126 0 -201 -82t-75 -228v-575h-221v1549h221z" />
<glyph unicode="i" horiz-adv-x="552" d="M376 1062v-1062h-222v1062h222zM399 1393q0 -57 -38 -95t-95.5 -38t-95 38t-37.5 95t37.5 95t95 38t95.5 -38t38 -95z" />
<glyph unicode="j" horiz-adv-x="552" d="M154 -131v1193h222v-1195q0 -331 -310 -331q-40 0 -78.5 5t-58.5 12l-18 4v200q56 -22 111 -23q57 0 94.5 38t37.5 97zM399 1393q0 -57 -38 -95t-95.5 -38t-95 38t-37.5 95t37.5 95t95 38t95.5 -38t38 -95z" />
<glyph unicode="k" horiz-adv-x="1171" d="M1106 1062l-409 -443l442 -619h-244l-342 475l-166 -177v-298h-221v1549h221v-963l453 476h266z" />
<glyph unicode="l" horiz-adv-x="574" d="M387 1549v-1549h-221v1549h221z" />
<glyph unicode="m" horiz-adv-x="1901" d="M1515 0v619q0 131 -60 198.5t-161 67.5q-104 0 -173.5 -83t-69.5 -227v-575h-222v619q0 131 -59.5 198.5t-161.5 67.5q-104 0 -173.5 -83t-69.5 -227v-575h-221v1062h221v-111q13 16 36 38t97 58.5t154 36.5q64 0 122 -17.5t92.5 -44t59.5 -53.5t36 -45l11 -17 q4 7 14.5 18.5t44.5 43t73 55t102 42t131 18.5q186 0 292.5 -118.5t106.5 -346.5v-619h-222z" />
<glyph unicode="n" d="M365 1062v-111l14 15q10 9 41 31.5t66.5 40t90 32t109.5 14.5q192 0 311.5 -126t119.5 -339v-619h-222v619q0 114 -72.5 190t-180.5 76q-127 0 -202 -82t-75 -228v-575h-221v1062h221z" />
<glyph unicode="o" d="M962 530.5q0 148.5 -98 251.5t-233 103t-234 -103t-99 -251.5t99 -251t234 -102.5t233 102.5t98 251zM78 531q0 223 164.5 388t388 165t388.5 -165t165 -388t-165 -388t-388.5 -165t-388 165t-164.5 388z" />
<glyph unicode="p" horiz-adv-x="1326" d="M707 -22q-59 0 -115 14t-96 35.5t-71 43.5t-45 35l-15 16v-586h-221v1526h221v-122q15 15 42.5 39.5t117.5 64.5t182 40q211 0 366 -161.5t155 -391.5t-155 -391.5t-366 -161.5zM685.5 885q-126.5 0 -223.5 -104t-97 -250.5t97 -250t223.5 -103.5t224 103.5t97.5 250 t-97.5 250.5t-224 104z" />
<glyph unicode="q" horiz-adv-x="1326" d="M597 -22q-210 0 -364.5 161.5t-154.5 391.5t154.5 391.5t364.5 161.5q60 0 116.5 -14.5t96 -35.5t71 -43t43.5 -35l16 -16v122h221v-1526h-221v586q-16 -15 -43.5 -40t-117 -64.5t-182.5 -39.5zM619.5 885q-125.5 0 -223.5 -104t-98 -250.5t98 -250t223.5 -103.5 t223 103.5t97.5 250t-97.5 250.5t-223 104z" />
<glyph unicode="r" horiz-adv-x="773" d="M741 874q-44 11 -99 11q-127 0 -202 -82t-75 -228v-575h-221v1062h221v-111l14 15q10 9 41 31.5t66.5 40t90 32t109.5 14.5h55v-210z" />
<glyph unicode="s" horiz-adv-x="961" d="M819 940l-144 -144q-9 9 -25.5 24.5t-69 40t-105.5 24.5q-71 0 -112.5 -33t-41.5 -78q0 -46 40 -77.5t100.5 -47.5t130 -40.5t130.5 -54.5t101 -92.5t40 -151.5q0 -137 -110.5 -234.5t-288.5 -97.5q-77 0 -148 19.5t-116.5 46.5t-79.5 54.5t-49 47.5l-16 20l144 144 q11 -15 32 -38t90.5 -59t142.5 -36q89 0 133.5 36t44.5 97q0 46 -40 77t-100.5 47.5t-130.5 41t-131 54t-101 93t-40 151.5q0 122 107.5 216t268.5 94q64 0 124 -14.5t97.5 -35.5t66.5 -43t42 -35z" />
<glyph unicode="t" horiz-adv-x="840" d="M276 1194v222h199v-354h222v-199h-222v-551q0 -59 38 -97t95 -38q25 0 52.5 5.5t42.5 11.5l16 5v-199q-66 -22 -155 -22q-310 0 -309 332v553h-200v199h111q110 0 110 132z" />
<glyph unicode="u" horiz-adv-x="1293" d="M895 0v110l-14 -14q-9 -10 -40 -32t-66.5 -40t-89.5 -32t-110 -14q-193 0 -312 126t-119 339v619h221v-619q0 -115 73 -190.5t181 -75.5q126 0 201 81.5t75 228.5v575h222v-1062h-222z" />
<glyph unicode="v" horiz-adv-x="1127" d="M663 0h-220l-432 1062h232l310 -775l310 775h232z" />
<glyph unicode="w" horiz-adv-x="1680" d="M730 1062h199l243 -730l244 730h232l-365 -1062h-211l-243 707l-243 -707h-210l-365 1062h232l244 -730z" />
<glyph unicode="x" horiz-adv-x="1105" d="M675 553l397 -553h-253l-277 387l-276 -387h-255l398 553l-365 509h254l244 -343l243 343h255z" />
<glyph unicode="y" horiz-adv-x="1127" d="M399 -110l44 110l-432 1062h232l310 -775l310 775h232l-476 -1172q-82 -197 -162.5 -275.5t-201.5 -78.5q-44 0 -83 5t-58 12l-15 4v200q55 -22 112 -23q126 1 188 156z" />
<glyph unicode="z" horiz-adv-x="1061" d="M940 1062v-199l-586 -664h608v-199h-884v199l585 664h-564v199h841z" />
<glyph unicode="{" horiz-adv-x="795" d="M133 464v178q133 0 133 132v476q0 150 89.5 235t252.5 85h122v-177h-122q-66 0 -105 -38t-39 -105v-476q0 -40 -6.5 -74.5t-17.5 -56.5t-24 -39.5t-25.5 -26.5t-23.5 -15.5t-17 -8.5h-5h5q6 -2 17 -8.5t23.5 -16t25.5 -26.5t24 -39t17.5 -56.5t6.5 -74.5v-476 q0 -66 39 -104.5t105 -38.5h122v-177h-122q-164 0 -253 85t-89 235v476q0 132 -133 132z" />
<glyph unicode="|" horiz-adv-x="773" d="M487 1570v-2034h-200v2034h200z" />
<glyph unicode="}" horiz-adv-x="795" d="M663 642v-178q-133 0 -132 -132v-476q0 -150 -89.5 -235t-253.5 -85h-122v177h122q66 0 105 38t39 105v476q0 40 6.5 74.5t17.5 56.5t24.5 39t25.5 26.5t23.5 16t17.5 8.5h4h-4q-6 2 -17.5 8.5t-23.5 15.5t-25.5 26.5t-24.5 39.5t-17.5 56.5t-6.5 74.5v476 q0 65 -38.5 104t-105.5 39h-122v177h122q164 0 253.5 -85t89.5 -235v-476q-1 -132 132 -132z" />
<glyph unicode="~" horiz-adv-x="1216" d="M819 663q59 0 108.5 33.5t70.5 67.5l19 32l133 -99q-4 -9 -13 -22.5t-40 -47.5t-66 -60.5t-93 -47.5t-119 -21q-93 0 -166 36t-133 72t-121 36q-60 0 -110 -33.5t-70 -66.5l-20 -33l-133 99q4 9 13.5 22.5t40 47.5t66 61t93 48t120.5 21q95 0 166.5 -37t131.5 -72.5 t122 -35.5z" />
<glyph unicode="&#xa1;" horiz-adv-x="640" d="M232 652h177l45 -1116h-266zM177 940q0 58 43.5 101t100.5 43t100 -43t43 -101t-43 -101t-100 -43t-100.5 43t-43.5 101z" />
<glyph unicode="&#xa2;" horiz-adv-x="1094" d="M298 530.5q0 -146.5 98 -250t223 -103.5q73 0 137.5 33t90.5 66l27 34l143 -144q-13 -15 -38 -41t-106 -73.5t-166 -62.5v-232h-198v232q-184 44 -307.5 189t-123.5 353t123.5 352.5t307.5 188.5v233h198v-233q85 -15 159 -57t107 -78l34 -32l-144 -144q-9 13 -26.5 34 t-81 55.5t-136.5 34.5q-127 0 -224 -104t-97 -250.5z" />
<glyph unicode="&#xa3;" d="M287 1062q0 232 138.5 370t370.5 138q78 0 149.5 -21t119 -49.5t83.5 -57t51 -49.5l17 -21l-154 -156q-5 4 -11.5 14.5t-30.5 32.5t-53.5 40t-75.5 32t-95 14q-124 0 -205.5 -81.5t-81.5 -205.5v-243h431v-200h-431v-287q0 -40 -11 -73t-23 -46l-11 -14h752v-199h-1062 v199q58 0 95.5 37.5t37.5 95.5v287h-133v200h133v243z" />
<glyph unicode="&#xa4;" horiz-adv-x="1526" d="M531 819h364q108 0 181.5 72.5t73.5 181.5t-73 181.5t-182 72.5h-364v-508zM895 597h-364v-154h497v-222h-497v-221h-244v221h-177v222h177v154h-177v222h177v730h608q215 0 356.5 -137.5t141.5 -338.5t-141.5 -338.5t-356.5 -137.5z" />
<glyph unicode="&#xa5;" horiz-adv-x="1459" d="M730 808l420 741h266l-465 -808h243v-188h-343v-133h343v-188h-343v-232h-243v232h-342v188h342v133h-342v188h243l-465 808h266z" />
<glyph unicode="&#xa6;" horiz-adv-x="773" d="M287 376h200v-840h-200v840zM487 730h-200v840h200v-840z" />
<glyph unicode="&#xa7;" horiz-adv-x="1182" d="M962 1427l-143 -144q-100 89 -222 89q-198 0 -198 -133q0 -60 67.5 -103t163.5 -76.5t191 -74.5t162.5 -122.5t67.5 -199.5q0 -55 -21 -105.5t-50 -81.5t-58 -55.5t-50 -36.5l-21 -8q7 -4 17 -10.5t36.5 -30t47.5 -50t38 -67.5t17 -85q0 -155 -128.5 -265.5 t-336.5 -110.5q-133 0 -240.5 53t-149.5 106l-42 51l145 143q11 -17 33 -42.5t96 -68.5t158 -43q120 0 181.5 48.5t61.5 128.5q0 59 -69.5 102.5t-169 76.5t-198.5 74t-168.5 123t-69.5 198q0 55 21 106.5t50.5 82.5t58 55t47.5 35l23 10q-15 8 -38 28t-59 83t-36 132 q0 139 114 235t306 96q104 0 194.5 -35t130.5 -71zM829 663q0 80 -85 138t-172 75l-85 19q-6 -2 -16.5 -4t-37 -16t-47.5 -33t-37.5 -54.5t-16.5 -80.5q0 -80 86 -137t171 -74l86 -21q6 2 16 4.5t36.5 17t47.5 33.5t37.5 54t16.5 79z" />
<glyph unicode="&#xa8;" horiz-adv-x="861" d="M332 1393q0 -57 -37.5 -95t-95.5 -38t-95.5 38t-37.5 95t37.5 95t95.5 38t95.5 -38t37.5 -95zM796 1393q0 -57 -37.5 -95t-95 -38t-95 38t-37.5 95t37.5 95t95 38t95 -38t37.5 -95z" />
<glyph unicode="&#xa9;" horiz-adv-x="1990" d="M1637 774.5q0 265.5 -188.5 453.5t-453.5 188t-453 -188t-188 -453.5t188 -453.5t453 -188t453.5 188t188.5 453.5zM1813 774.5q0 -333.5 -235.5 -565t-582.5 -231.5t-582.5 231.5t-235.5 565t235.5 564.5t582.5 231t582.5 -231t235.5 -564.5zM741 773.5 q0 -108.5 78 -186.5t188 -78q68 0 126.5 33t82.5 66l23 34l110 -111q-4 -6 -13 -18.5t-41 -43.5t-68.5 -54.5t-96.5 -42t-123 -18.5q-182 0 -307 122.5t-125 297.5t125 297.5t307 122.5q103 0 186.5 -42t113.5 -82l31 -42l-110 -110q-7 13 -22.5 33t-73 54.5t-125.5 34.5 q-108 0 -187 -79t-79 -187.5z" />
<glyph unicode="&#xaa;" horiz-adv-x="751" d="M298 895q-106 0 -163 52.5t-57 136.5q0 76 56 130t153 69l222 34q0 50 -38 85t-95 35q-49 0 -91 -22t-59 -43l-15 -23l-101 88q2 5 9 15t30.5 32.5t52 39.5t75 31.5t99.5 14.5q124 0 195 -68.5t71 -184.5v-399h-133v78q-7 -11 -22.5 -28t-70 -45t-118.5 -28zM509 1205 l-199 -33q-40 -9 -64.5 -31t-24.5 -48q0 -76 111 -76q65 0 121 55.5t56 121.5v11z" />
<glyph unicode="&#xab;" horiz-adv-x="1105" d="M575 907l-265 -376l265 -377h-221l-265 377l265 376h221zM1017 907l-265 -376l265 -377h-221l-265 377l265 376h221z" />
<glyph unicode="&#xac;" horiz-adv-x="1038" d="M951 885v-509h-221v310h-641v199h862z" />
<glyph unicode="&#xad;" horiz-adv-x="950" d="M863 752v-199h-774v199h774z" />
<glyph unicode="&#xae;" horiz-adv-x="1990" d="M1172 707l189 -342h-177l-167 310h-143v-310h-167v819h344q114 0 195 -79t81 -187q0 -68 -38.5 -121.5t-76.5 -70.5zM874 1028v-199h177q48 0 79 29t31 71t-31 70.5t-79 28.5h-177zM1637 774.5q0 265.5 -188.5 453.5t-453.5 188t-453 -188t-188 -453.5t188 -453.5 t453 -188t453.5 188t188.5 453.5zM1813 774.5q0 -333.5 -235.5 -565t-582.5 -231.5t-582.5 231.5t-235.5 565t235.5 564.5t582.5 231t582.5 -231t235.5 -564.5z" />
<glyph unicode="&#xaf;" horiz-adv-x="817" d="M752 1549v-156h-686v156h686z" />
<glyph unicode="&#xb0;" horiz-adv-x="817" d="M730 1261q0 -126 -94 -218t-227 -92t-226.5 92t-93.5 218t93.5 217.5t226.5 91.5t227 -91.5t94 -217.5zM255 1261q0 -73 43.5 -119.5t110 -46.5t111 46.5t44.5 119.5t-44.5 119.5t-111 46.5t-110 -46.5t-43.5 -119.5z" />
<glyph unicode="&#xb1;" horiz-adv-x="1161" d="M675 342h-188v399h-398v199h398v398h188v-398h397v-199h-397v-399zM89 0v199h983v-199h-983z" />
<glyph unicode="&#xb2;" horiz-adv-x="707" d="M619 1537q0 -93 -60.5 -161.5t-155.5 -129t-127 -96.5h343v-154h-530v21q0 93 38.5 164t93.5 113t110.5 77.5t94 76t38.5 89.5q0 42 -30.5 71t-79.5 29q-40 0 -73.5 -28t-46.5 -56l-13 -27l-132 44q2 9 6 23.5t23 49.5t45.5 63t77.5 51.5t113 23.5q124 0 194.5 -68 t70.5 -176z" />
<glyph unicode="&#xb3;" horiz-adv-x="729" d="M519 1416q13 -7 33 -19t55 -61t35 -108q0 -102 -80 -173t-208 -71q-93 0 -164.5 36.5t-96.5 72.5l-27 35l100 100q7 -11 21 -27.5t64 -44.5t103 -28q64 0 98.5 28t34.5 72t-34.5 71.5t-98.5 27.5h-88v155h76q111 0 111.5 77.5t-111.5 77.5q-40 0 -78 -22t-56 -45l-20 -21 l-99 99q4 4 10.5 14t30.5 32t51 40t71 32.5t90 14.5q122 0 194 -63t72 -158q0 -45 -22 -81.5t-44 -49.5z" />
<glyph unicode="&#xb4;" horiz-adv-x="530" d="M66 1239l166 310h232l-232 -310h-166z" />
<glyph unicode="&#xb5;" d="M144 -464v1526h221v-619q0 -115 71 -190.5t172 -75.5q120 0 193 81.5t73 228.5v575h221v-819q0 -89 89 -89l44 12v-177q-34 -11 -78 -11q-93 0 -154 42t-76 82l-13 42q-4 -7 -12 -18.5t-39 -40t-66.5 -50.5t-96 -39.5t-129.5 -17.5q-49 0 -98.5 16.5t-76.5 32.5l-24 17 v-508h-221z" />
<glyph unicode="&#xb6;" horiz-adv-x="1260" d="M464 -221v1017q-150 0 -262.5 113t-112.5 263.5t112.5 263.5t262.5 113h620v-1770h-199v1570h-222v-1570h-199z" />
<glyph unicode="&#xb7;" horiz-adv-x="441" d="M365 553q0 -57 -43 -100.5t-100.5 -43.5t-100.5 43.5t-43 100.5t43 100.5t100.5 43.5t100.5 -43.5t43 -100.5z" />
<glyph unicode="&#xb8;" horiz-adv-x="563" d="M266 44h133l-89 -166q6 0 19 -1t45.5 -9.5t58 -24.5t45.5 -50t20 -80q0 -78 -59 -127.5t-163 -49.5q-59 0 -111.5 22t-75.5 43l-23 23l56 89q66 -55 154 -55q40 0 64.5 19.5t24.5 46.5t-24.5 46t-64.5 19q-15 0 -31.5 -5t-25.5 -10l-8 -6l-45 55z" />
<glyph unicode="&#xb9;" horiz-adv-x="486" d="M232 1769h122v-773h-155v553h-133v121h23q52 0 93.5 30.5t49.5 68.5z" />
<glyph unicode="&#xba;" horiz-adv-x="817" d="M752 1227.5q0 -141.5 -100.5 -242t-242 -100.5t-242.5 100.5t-101 242t101 242t242.5 100.5t242 -100.5t100.5 -242zM597 1227.5q0 81.5 -56 140.5t-131.5 59t-132 -59t-56.5 -140.5t56.5 -140.5t132 -59t131.5 59t56 140.5z" />
<glyph unicode="&#xbb;" horiz-adv-x="1105" d="M796 531l-265 376h221l265 -376l-265 -377h-221zM354 531l-265 376h221l265 -376l-265 -377h-221z" />
<glyph unicode="&#xbc;" horiz-adv-x="1469" d="M255 1549h121v-775h-155v553h-132v121h21q53 0 94.5 31.5t50.5 69.5zM133 0l951 1549h199l-951 -1549h-199zM1317 774v-464h87v-156h-87v-154h-156v154h-353v156l331 464h178zM973 310h188v265z" />
<glyph unicode="&#xbd;" horiz-adv-x="1547" d="M255 1549h121v-775h-155v553h-132v121h21q53 0 94.5 31.5t50.5 69.5zM133 0l951 1549h199l-951 -1549h-199zM1460 542q0 -93 -61 -161.5t-156 -129.5t-126 -97h343v-154h-531v22q0 92 39 163.5t94 113t110.5 77t94 77t38.5 89.5q0 42 -31 71t-80 29q-39 0 -72 -28 t-47 -57l-13 -26l-133 44q2 8 6.5 22.5t23 50.5t45 63.5t78 50.5t112.5 23q125 0 195.5 -67.5t70.5 -175.5z" />
<glyph unicode="&#xbe;" horiz-adv-x="1614" d="M519 1194q13 -6 33 -18.5t55 -61t35 -107.5q0 -102 -80 -172.5t-208 -70.5q-93 0 -164.5 36t-96.5 72l-27 35l100 100q7 -11 21 -28t64 -44.5t103 -27.5q64 0 98.5 27.5t34.5 72t-34.5 72t-98.5 27.5h-88v154h76q111 0 111.5 78t-111.5 78q-40 0 -78 -22t-56 -45l-20 -22 l-99 100q4 4 10.5 13.5t30.5 32t51 40t71 32.5t90 15q122 0 194 -63.5t72 -158.5q0 -44 -22 -81t-44 -50zM276 0l952 1549h199l-952 -1549h-199zM1460 774v-464h89v-156h-89v-154h-155v154h-354v156l332 464h177zM1117 310h188v265z" />
<glyph unicode="&#xbf;" horiz-adv-x="1005" d="M707 553q0 -91 -40.5 -162.5t-99 -116t-117.5 -87.5t-99.5 -100.5t-40.5 -130.5q0 -93 70.5 -157.5t183.5 -64.5q71 0 129.5 23.5t90.5 56t53.5 64t29.5 56.5l7 22l198 -78q-4 -15 -11.5 -39.5t-46.5 -87.5t-89.5 -110.5t-147 -87.5t-213.5 -40q-217 0 -357.5 124 t-140.5 297q0 97 32.5 173.5t80 118.5t103.5 85t103.5 79.5t80 98.5t32.5 142v21h199q10 -55 10 -99zM741 940q0 -58 -43.5 -101t-100.5 -43t-100 43t-43 101t43 101t100 43t100.5 -43t43.5 -101z" />
<glyph unicode="&#xc0;" horiz-adv-x="1614" d="M44 0l642 1549h243l641 -1549h-253l-167 409h-686l-166 -409h-254zM808 1272l-255 -641h509zM719 2057l166 -310h-166l-232 310h232z" />
<glyph unicode="&#xc1;" horiz-adv-x="1614" d="M44 0l642 1549h243l641 -1549h-253l-167 409h-686l-166 -409h-254zM808 1272l-255 -641h509zM730 1747l165 310h233l-233 -310h-165z" />
<glyph unicode="&#xc2;" horiz-adv-x="1614" d="M44 0l642 1549h243l641 -1549h-253l-167 409h-686l-166 -409h-254zM808 1272l-255 -641h509zM918 2057l243 -310h-199l-154 199l-156 -199h-198l243 310h221z" />
<glyph unicode="&#xc3;" horiz-adv-x="1614" d="M44 0l642 1549h243l641 -1549h-253l-167 409h-686l-166 -409h-254zM808 1272l-255 -641h509zM956 1747q-66 0 -119.5 33t-96.5 66.5t-83 33.5q-89 0 -89 -133h-144q0 288 233 288q66 0 119 -33t96.5 -66.5t83.5 -33.5q88 0 88 133h144q0 -288 -232 -288z" />
<glyph unicode="&#xc4;" horiz-adv-x="1614" d="M44 0l642 1549h243l641 -1549h-253l-167 409h-686l-166 -409h-254zM808 1272l-255 -641h509zM707 1880.5q0 -57.5 -37 -95.5t-95 -38t-95 38t-37 95.5t37 95t95 37.5t95 -37.5t37 -95zM1172 1880.5q0 -57.5 -37.5 -95.5t-95 -38t-95 38t-37.5 95.5t37.5 95t95 37.5 t95 -37.5t37.5 -95z" />
<glyph unicode="&#xc5;" horiz-adv-x="1614" d="M44 0l642 1549h243l641 -1549h-253l-167 409h-686l-166 -409h-254zM808 1272l-255 -641h509zM1028 1902q0 -91 -65.5 -156.5t-155.5 -65.5t-155.5 65.5t-65.5 156.5t65.5 156t155.5 65t155.5 -65t65.5 -156zM895 1902q0 40 -27.5 69.5t-60.5 29.5t-60.5 -29.5 t-27.5 -69.5t27.5 -69.5t60.5 -29.5t60.5 29.5t27.5 69.5z" />
<glyph unicode="&#xc6;" horiz-adv-x="2178" d="M-44 0l863 1549h1227v-222h-763v-409h586v-221h-586v-476h785v-221h-1028v420h-586l-233 -420h-265zM951 1327l-376 -685h465v685h-89z" />
<glyph unicode="&#xc7;" horiz-adv-x="1680" d="M951 1570q118 0 226 -30.5t179 -75t124 -87.5t77 -75l24 -30l-154 -155q-7 8 -19.5 24t-56.5 57t-95 70.5t-132.5 55t-172.5 25.5q-240 0 -407.5 -167t-167.5 -407.5t167 -408t408 -167.5q91 0 173.5 25t137.5 61t96.5 71t61.5 60l17 27l156 -156q-9 -11 -25.5 -30.5 t-74.5 -71.5t-123 -92t-170 -74t-218 -38l-53 -103q6 0 19.5 -1t45.5 -9.5t57.5 -24.5t45.5 -50t20 -80q0 -78 -58.5 -127.5t-163.5 -49.5q-59 0 -111 22t-77 43l-21 23l55 89q66 -55 154 -55q40 0 64.5 19.5t24.5 46.5t-24.5 46t-64.5 19q-15 0 -31.5 -5t-25.5 -10l-9 -6 l-44 55l71 160q-312 33 -517.5 257t-205.5 534q0 334 235.5 565t582.5 231z" />
<glyph unicode="&#xc8;" horiz-adv-x="1448" d="M464 221h874v-221h-1117v1549h1096v-222h-853v-409h675v-221h-675v-476zM719 2057l166 -310h-166l-232 310h232z" />
<glyph unicode="&#xc9;" horiz-adv-x="1448" d="M464 221h874v-221h-1117v1549h1096v-222h-853v-409h675v-221h-675v-476zM686 1747l165 310h233l-233 -310h-165z" />
<glyph unicode="&#xca;" horiz-adv-x="1448" d="M464 221h874v-221h-1117v1549h1096v-222h-853v-409h675v-221h-675v-476zM885 2057l243 -310h-199l-155 199l-155 -199h-199l243 310h222z" />
<glyph unicode="&#xcb;" horiz-adv-x="1448" d="M464 221h874v-221h-1117v1549h1096v-222h-853v-409h675v-221h-675v-476zM686 1880.5q0 -57.5 -38 -95.5t-95 -38t-95 38t-38 95.5t38 95t95 37.5t95 -37.5t38 -95zM1150 1880.5q0 -57.5 -37.5 -95.5t-95 -38t-95 38t-37.5 95.5t37.5 95t95 37.5t95 -37.5t37.5 -95z" />
<glyph unicode="&#xcc;" horiz-adv-x="684" d="M221 0v1549h243v-1549h-243zM255 2057l165 -310h-165l-233 310h233z" />
<glyph unicode="&#xcd;" horiz-adv-x="684" d="M221 0v1549h243v-1549h-243zM266 1747l165 310h232l-232 -310h-165z" />
<glyph unicode="&#xce;" horiz-adv-x="684" d="M221 0v1549h243v-1549h-243zM454 2057l243 -310h-199l-156 199l-154 -199h-199l243 310h222z" />
<glyph unicode="&#xcf;" horiz-adv-x="684" d="M221 0v1549h243v-1549h-243zM243 1880.5q0 -57.5 -37.5 -95.5t-95 -38t-95 38t-37.5 95.5t37.5 95t95 37.5t95 -37.5t37.5 -95zM707 1880.5q0 -57.5 -37 -95.5t-95 -38t-95 38t-37 95.5t37 95t95 37.5t95 -37.5t37 -95z" />
<glyph unicode="&#xd0;" horiz-adv-x="1735" d="M66 663v222h210v664h543q323 0 554 -229t231 -545.5t-231 -545.5t-554 -229h-543v663h-210zM819 1327h-300v-442h344v-222h-344v-442h300q225 0 383.5 160.5t158.5 393t-158.5 392.5t-383.5 160z" />
<glyph unicode="&#xd1;" horiz-adv-x="1758" d="M1294 1549h243v-1549h-210l-863 1117v-1117h-243v1549h210l863 -1118v1118zM1028 1747q-66 0 -119 33t-96 66.5t-83 33.5q-88 0 -88 -133h-144q0 288 232 288q66 0 119.5 -33t96 -66.5t82.5 -33.5q89 0 89 133h143q0 -288 -232 -288z" />
<glyph unicode="&#xd2;" horiz-adv-x="1901" d="M376 774.5q0 -240.5 167 -408t408 -167.5t408 167.5t167 408t-167 407.5t-408 167t-408 -167t-167 -407.5zM133 774.5q0 333.5 235.5 564.5t582.5 231t582.5 -231t235.5 -564.5t-235.5 -565t-582.5 -231.5t-582.5 231.5t-235.5 565zM885 2057l166 -310h-166l-233 310h233 z" />
<glyph unicode="&#xd3;" horiz-adv-x="1901" d="M376 774.5q0 -240.5 167 -408t408 -167.5t408 167.5t167 408t-167 407.5t-408 167t-408 -167t-167 -407.5zM133 774.5q0 333.5 235.5 564.5t582.5 231t582.5 -231t235.5 -564.5t-235.5 -565t-582.5 -231.5t-582.5 231.5t-235.5 565zM893 1747l166 310h233l-233 -310h-166 z" />
<glyph unicode="&#xd4;" horiz-adv-x="1901" d="M376 774.5q0 -240.5 167 -408t408 -167.5t408 167.5t167 408t-167 407.5t-408 167t-408 -167t-167 -407.5zM133 774.5q0 333.5 235.5 564.5t582.5 231t582.5 -231t235.5 -564.5t-235.5 -565t-582.5 -231.5t-582.5 231.5t-235.5 565zM1062 2057l243 -310h-199l-155 199 l-155 -199h-199l243 310h222z" />
<glyph unicode="&#xd5;" horiz-adv-x="1901" d="M376 774.5q0 -240.5 167 -408t408 -167.5t408 167.5t167 408t-167 407.5t-408 167t-408 -167t-167 -407.5zM133 774.5q0 333.5 235.5 564.5t582.5 231t582.5 -231t235.5 -564.5t-235.5 -565t-582.5 -231.5t-582.5 231.5t-235.5 565zM1117 1747q-66 0 -119.5 33t-96 66.5 t-82.5 33.5q-89 0 -89 -133h-144q0 288 233 288q66 0 119 -33t96 -66.5t83 -33.5q88 0 88 133h144q0 -288 -232 -288z" />
<glyph unicode="&#xd6;" horiz-adv-x="1901" d="M376 774.5q0 -240.5 167 -408t408 -167.5t408 167.5t167 408t-167 407.5t-408 167t-408 -167t-167 -407.5zM133 774.5q0 333.5 235.5 564.5t582.5 231t582.5 -231t235.5 -564.5t-235.5 -565t-582.5 -231.5t-582.5 231.5t-235.5 565zM851 1880.5q0 -57.5 -37 -95.5 t-95 -38t-95.5 38t-37.5 95.5t37.5 95t95.5 37.5t95 -37.5t37 -95zM1317 1880.5q0 -57.5 -38 -95.5t-96 -38t-95 38t-37 95.5t37 95t95 37.5t96 -37.5t38 -95z" />
<glyph unicode="&#xd7;" horiz-adv-x="1038" d="M399 686l-310 310l122 121l308 -309l310 309l122 -121l-309 -310l309 -310l-122 -121l-310 309l-308 -309l-122 121z" />
<glyph unicode="&#xd8;" horiz-adv-x="1901" d="M133 774q0 334 235.5 565t582.5 231q277 0 493 -156l204 201l144 -155l-195 -192q173 -215 172 -494q0 -333 -235.5 -564.5t-582.5 -231.5q-278 0 -495 157l-201 -201l-145 155l193 192q-170 213 -170 493zM1526 774q0 177 -99 323l-806 -799q144 -99 330 -99 q241 0 408 167.5t167 407.5zM376 774q0 -179 97 -325l806 798q-148 102 -328 102q-240 0 -407.5 -167t-167.5 -408z" />
<glyph unicode="&#xd9;" horiz-adv-x="1702" d="M851.5 199q165.5 0 287 124t121.5 296v930h244v-930q0 -266 -190.5 -453.5t-462 -187.5t-462 188t-190.5 453v930h244v-930q0 -173 121.5 -296.5t287 -123.5zM808 2057l165 -310h-165l-233 310h233z" />
<glyph unicode="&#xda;" horiz-adv-x="1702" d="M851.5 199q165.5 0 287 124t121.5 296v930h244v-930q0 -266 -190.5 -453.5t-462 -187.5t-462 188t-190.5 453v930h244v-930q0 -173 121.5 -296.5t287 -123.5zM752 1747l166 310h232l-232 -310h-166z" />
<glyph unicode="&#xdb;" horiz-adv-x="1702" d="M851.5 199q165.5 0 287 124t121.5 296v930h244v-930q0 -266 -190.5 -453.5t-462 -187.5t-462 188t-190.5 453v930h244v-930q0 -173 121.5 -296.5t287 -123.5zM962 2057l243 -310h-198l-156 199l-154 -199h-199l243 310h221z" />
<glyph unicode="&#xdc;" horiz-adv-x="1702" d="M851.5 199q165.5 0 287 124t121.5 296v930h244v-930q0 -266 -190.5 -453.5t-462 -187.5t-462 188t-190.5 453v930h244v-930q0 -173 121.5 -296.5t287 -123.5zM752 1880.5q0 -57.5 -37.5 -95.5t-95 -38t-95 38t-37.5 95.5t37.5 95t95 37.5t95 -37.5t37.5 -95zM1216 1880.5 q0 -57.5 -37 -95.5t-95 -38t-95.5 38t-37.5 95.5t37.5 95t95.5 37.5t95 -37.5t37 -95z" />
<glyph unicode="&#xdd;" horiz-adv-x="1459" d="M310 1549l420 -741l420 741h266l-565 -996v-553h-243v553l-564 996h266zM652 1747l167 310h232l-232 -310h-167z" />
<glyph unicode="&#xde;" horiz-adv-x="1469" d="M464 1205v-818h178q212 0 332.5 111.5t120.5 297.5t-120.5 297.5t-332.5 111.5h-178zM464 1427h178q301 0 498.5 -185t197.5 -445.5t-198 -445.5t-498 -185h-178v-210h-243v1637h243v-166z" />
<glyph unicode="&#xdf;" horiz-adv-x="1326" d="M940 863q10 -4 28 -13.5t63.5 -44.5t81 -76t64 -113t28.5 -152q0 -200 -136 -332t-350 -132h-111v221h111q115 0 190 71t75 172.5t-75 172t-190 70.5h-111v222h23q106 0 174.5 64t68.5 157t-68.5 157.5t-174.5 64.5q-108 0 -176 -67.5t-68 -176.5v-1128h-221v1128 q0 192 129 317t336 125q203 0 333.5 -121.5t130.5 -298.5q0 -88 -39 -160t-79 -101z" />
<glyph unicode="&#xe0;" horiz-adv-x="1161" d="M996 0h-222v110l-14 -14t-41 -32t-66.5 -40t-89.5 -32t-109 -14q-162 0 -269 94t-107 215q0 131 82.5 219.5t226.5 112.5l387 67q0 84 -62 141.5t-159 57.5q-84 0 -152.5 -35.5t-94.5 -70.5l-30 -38l-143 144q6 8 17.5 21.5t51 47.5t83.5 61t117 48t151 21 q194 0 318.5 -115t124.5 -283v-686zM487 177q135 0 211 80.5t76 229.5v22l-343 -55q-59 -11 -96 -49t-37 -95q0 -53 51.5 -93t137.5 -40zM509 1549l166 -310h-166l-233 310h233z" />
<glyph unicode="&#xe1;" horiz-adv-x="1161" d="M996 0h-222v110l-14 -14t-41 -32t-66.5 -40t-89.5 -32t-109 -14q-162 0 -269 94t-107 215q0 131 82.5 219.5t226.5 112.5l387 67q0 84 -62 141.5t-159 57.5q-84 0 -152.5 -35.5t-94.5 -70.5l-30 -38l-143 144q6 8 17.5 21.5t51 47.5t83.5 61t117 48t151 21 q194 0 318.5 -115t124.5 -283v-686zM487 177q135 0 211 80.5t76 229.5v22l-343 -55q-59 -11 -96 -49t-37 -95q0 -53 51.5 -93t137.5 -40zM509 1239l166 310h232l-232 -310h-166z" />
<glyph unicode="&#xe2;" horiz-adv-x="1161" d="M996 0h-222v110l-14 -14t-41 -32t-66.5 -40t-89.5 -32t-109 -14q-162 0 -269 94t-107 215q0 131 82.5 219.5t226.5 112.5l387 67q0 84 -62 141.5t-159 57.5q-84 0 -152.5 -35.5t-94.5 -70.5l-30 -38l-143 144q6 8 17.5 21.5t51 47.5t83.5 61t117 48t151 21 q194 0 318.5 -115t124.5 -283v-686zM487 177q135 0 211 80.5t76 229.5v22l-343 -55q-59 -11 -96 -49t-37 -95q0 -53 51.5 -93t137.5 -40zM719 1549l243 -310h-198l-156 198l-154 -198h-199l243 310h221z" />
<glyph unicode="&#xe3;" horiz-adv-x="1161" d="M996 0h-222v110l-14 -14t-41 -32t-66.5 -40t-89.5 -32t-109 -14q-162 0 -269 94t-107 215q0 131 82.5 219.5t226.5 112.5l387 67q0 84 -62 141.5t-159 57.5q-84 0 -152.5 -35.5t-94.5 -70.5l-30 -38l-143 144q6 8 17.5 21.5t51 47.5t83.5 61t117 48t151 21 q194 0 318.5 -115t124.5 -283v-686zM487 177q135 0 211 80.5t76 229.5v22l-343 -55q-59 -11 -96 -49t-37 -95q0 -53 51.5 -93t137.5 -40zM752 1239q-66 0 -119 33t-96 66.5t-83 33.5q-89 0 -89 -133h-144q0 287 233 287q65 0 118.5 -33t96.5 -66.5t83 -33.5q88 0 88 133h144 q0 -287 -232 -287z" />
<glyph unicode="&#xe4;" horiz-adv-x="1161" d="M996 0h-222v110l-14 -14t-41 -32t-66.5 -40t-89.5 -32t-109 -14q-162 0 -269 94t-107 215q0 131 82.5 219.5t226.5 112.5l387 67q0 84 -62 141.5t-159 57.5q-84 0 -152.5 -35.5t-94.5 -70.5l-30 -38l-143 144q6 8 17.5 21.5t51 47.5t83.5 61t117 48t151 21 q194 0 318.5 -115t124.5 -283v-686zM487 177q135 0 211 80.5t76 229.5v22l-343 -55q-59 -11 -96 -49t-37 -95q0 -53 51.5 -93t137.5 -40zM509 1371.5q0 -57.5 -38 -95t-95 -37.5t-95 37.5t-38 95t38 95t95 37.5t95 -37.5t38 -95zM973 1371.5q0 -57.5 -38 -95t-95 -37.5 t-95 37.5t-38 95t38 95t95 37.5t95 -37.5t38 -95z" />
<glyph unicode="&#xe5;" horiz-adv-x="1161" d="M996 0h-222v110l-14 -14t-41 -32t-66.5 -40t-89.5 -32t-109 -14q-162 0 -269 94t-107 215q0 131 82.5 219.5t226.5 112.5l387 67q0 84 -62 141.5t-159 57.5q-84 0 -152.5 -35.5t-94.5 -70.5l-30 -38l-143 144q6 8 17.5 21.5t51 47.5t83.5 61t117 48t151 21 q194 0 318.5 -115t124.5 -283v-686zM487 177q135 0 211 80.5t76 229.5v22l-343 -55q-59 -11 -96 -49t-37 -95q0 -53 51.5 -93t137.5 -40zM808 1416q0 -91 -65.5 -156.5t-156 -65.5t-156 65.5t-65.5 156.5t65.5 156t156 65t156 -65t65.5 -156zM675 1416q0 40 -28 69.5 t-61 29.5t-60.5 -29.5t-27.5 -69.5t27.5 -69.5t60.5 -29.5t61 29.5t28 69.5z" />
<glyph unicode="&#xe6;" horiz-adv-x="1956" d="M575 1084q63 0 124.5 -17.5t101 -44t70 -53.5t45.5 -45l13 -17q6 7 17.5 18.5t50 43t82.5 55t114 42t145 18.5q224 0 372 -148.5t148 -371.5l-11 -110h-830q18 -113 110.5 -195t221.5 -82q93 0 174 42t114 82l33 41l143 -143q-6 -9 -19 -24.5t-57.5 -53t-94 -66 t-129.5 -53t-164 -24.5q-80 0 -155 23.5t-124.5 55.5t-88.5 63.5t-57 56.5l-17 22q-6 -9 -17.5 -24.5t-52.5 -53t-88.5 -66t-123.5 -53t-161 -24.5q-170 0 -278 97.5t-108 234.5q0 141 121.5 236.5t342.5 95.5h254q0 114 -59.5 178.5t-161.5 64.5q-85 0 -153 -35.5 t-95 -70.5l-29 -38l-144 144q7 8 18.5 21.5t51.5 47.5t84 61t116.5 48t150.5 21zM1338 895q-120 0 -201.5 -70.5t-110.5 -182.5h616q-20 112 -101 182.5t-203 70.5zM487 177q131 0 220 85.5t89 201.5h-254q-118 0 -181 -45t-63 -109q0 -53 51.5 -93t137.5 -40z" />
<glyph unicode="&#xe7;" horiz-adv-x="1149" d="M78 531q0 224 164.5 388.5t388.5 164.5q124 0 231 -53.5t153 -106.5l47 -50l-144 -144q-11 17 -33 42.5t-96 69t-158 43.5q-135 0 -234 -103t-99 -251.5t99 -251t234 -102.5q84 0 158 42t106 82l34 41l143 -143q-6 -9 -17 -22t-51 -48.5t-83 -63t-110.5 -53t-137.5 -31.5 l-54 -103q6 0 19.5 -1t46 -9.5t58 -24.5t45.5 -50t20 -80q0 -78 -59 -127.5t-163 -49.5q-59 0 -111.5 22t-75.5 43l-23 23l55 89q66 -55 155 -55q40 0 64.5 19.5t24.5 46.5t-24.5 46t-64.5 19q-15 0 -31.5 -5t-26.5 -10l-9 -6l-44 55l74 162q-199 31 -335 187t-136 359z" />
<glyph unicode="&#xe8;" horiz-adv-x="1237" d="M1128 454h-830q17 -113 110.5 -195t222.5 -82q93 0 173.5 42t113.5 82l33 41l144 -143q-6 -9 -19.5 -24.5t-58 -53t-94 -66t-129 -53t-163.5 -24.5q-226 0 -389.5 166t-163.5 398q0 224 159 383t382 159t371.5 -148.5t148.5 -371.5zM619 895q-120 0 -201.5 -70.5 t-109.5 -182.5h614q-19 112 -100 182.5t-203 70.5zM575 1549l166 -310h-166l-233 310h233z" />
<glyph unicode="&#xe9;" horiz-adv-x="1237" d="M1128 454h-830q17 -113 110.5 -195t222.5 -82q93 0 173.5 42t113.5 82l33 41l144 -143q-6 -9 -19.5 -24.5t-58 -53t-94 -66t-129 -53t-163.5 -24.5q-226 0 -389.5 166t-163.5 398q0 224 159 383t382 159t371.5 -148.5t148.5 -371.5zM619 895q-120 0 -201.5 -70.5 t-109.5 -182.5h614q-19 112 -100 182.5t-203 70.5zM553 1239l166 310h232l-232 -310h-166z" />
<glyph unicode="&#xea;" horiz-adv-x="1237" d="M1128 454h-830q17 -113 110.5 -195t222.5 -82q93 0 173.5 42t113.5 82l33 41l144 -143q-6 -9 -19.5 -24.5t-58 -53t-94 -66t-129 -53t-163.5 -24.5q-226 0 -389.5 166t-163.5 398q0 224 159 383t382 159t371.5 -148.5t148.5 -371.5zM619 895q-120 0 -201.5 -70.5 t-109.5 -182.5h614q-19 112 -100 182.5t-203 70.5zM741 1549l243 -310h-199l-154 198l-156 -198h-199l243 310h222z" />
<glyph unicode="&#xeb;" horiz-adv-x="1237" d="M1128 454h-830q17 -113 110.5 -195t222.5 -82q93 0 173.5 42t113.5 82l33 41l144 -143q-6 -9 -19.5 -24.5t-58 -53t-94 -66t-129 -53t-163.5 -24.5q-226 0 -389.5 166t-163.5 398q0 224 159 383t382 159t371.5 -148.5t148.5 -371.5zM619 895q-120 0 -201.5 -70.5 t-109.5 -182.5h614q-19 112 -100 182.5t-203 70.5zM531 1371.5q0 -57.5 -37.5 -95t-95.5 -37.5t-95 37.5t-37 95t37 95t95 37.5t95.5 -37.5t37.5 -95zM996 1371.5q0 -57.5 -38 -95t-95.5 -37.5t-95 37.5t-37.5 95t37.5 95t95 37.5t95.5 -37.5t38 -95z" />
<glyph unicode="&#xec;" horiz-adv-x="530" d="M365 1062v-1062h-221v1062h221zM177 1549l165 -310h-165l-232 310h232z" />
<glyph unicode="&#xed;" horiz-adv-x="530" d="M365 1062v-1062h-221v1062h221zM166 1239l166 310h232l-232 -310h-166z" />
<glyph unicode="&#xee;" horiz-adv-x="530" d="M365 1062v-1062h-221v1062h221zM365 1549l243 -310h-199l-154 198l-156 -198h-198l243 310h221z" />
<glyph unicode="&#xef;" horiz-adv-x="530" d="M365 1062v-1062h-221v1062h221zM154 1371.5q0 -57.5 -37 -95t-95 -37.5t-95 37.5t-37 95t37 95t95 37.5t95 -37.5t37 -95zM619 1371.5q0 -57.5 -37.5 -95t-95 -37.5t-95 37.5t-37.5 95t37.5 95t95 37.5t95 -37.5t37.5 -95z" />
<glyph unicode="&#xf0;" horiz-adv-x="1304" d="M940 895q-40 125 -112 230t-125 149l-51 43l-265 -189l-111 155l199 133q-110 66 -254 99l55 177q98 -24 189.5 -62.5t133.5 -65.5l43 -27l265 188l110 -155l-209 -143q15 -11 38 -31t84 -94t107.5 -161.5t85 -231t38.5 -301.5q0 -292 -153.5 -461t-399.5 -169 q-215 0 -372.5 157t-157.5 374q0 215 153 373t355 158q98 0 186.5 -35.5t128.5 -71.5zM918 508.5q0 139.5 -92 235.5t-218 96t-218 -96t-92 -235.5t92 -235.5t218 -96t218 96t92 235.5z" />
<glyph unicode="&#xf1;" d="M365 1062v-111l14 15q10 9 41 31.5t66.5 40t90 32t109.5 14.5q192 0 311.5 -126t119.5 -339v-619h-222v619q0 114 -72.5 190t-180.5 76q-127 0 -202 -82t-75 -228v-575h-221v1062h221zM796 1239q-66 0 -119 33t-96 66.5t-83 33.5q-89 0 -89 -133h-143q0 287 232 287 q66 0 119.5 -33t96 -66.5t82.5 -33.5q89 0 89 133h143q0 -287 -232 -287z" />
<glyph unicode="&#xf2;" d="M962 530.5q0 148.5 -98 251.5t-233 103t-234 -103t-99 -251.5t99 -251t234 -102.5t233 102.5t98 251zM78 531q0 223 164.5 388t388 165t388.5 -165t165 -388t-165 -388t-388.5 -165t-388 165t-164.5 388zM553 1549l166 -310h-166l-232 310h232z" />
<glyph unicode="&#xf3;" d="M962 530.5q0 148.5 -98 251.5t-233 103t-234 -103t-99 -251.5t99 -251t234 -102.5t233 102.5t98 251zM78 531q0 223 164.5 388t388 165t388.5 -165t165 -388t-165 -388t-388.5 -165t-388 165t-164.5 388zM553 1239l166 310h232l-232 -310h-166z" />
<glyph unicode="&#xf4;" d="M962 530.5q0 148.5 -98 251.5t-233 103t-234 -103t-99 -251.5t99 -251t234 -102.5t233 102.5t98 251zM78 531q0 223 164.5 388t388 165t388.5 -165t165 -388t-165 -388t-388.5 -165t-388 165t-164.5 388zM741 1549l243 -310h-199l-154 198l-156 -198h-199l243 310h222z " />
<glyph unicode="&#xf5;" d="M962 530.5q0 148.5 -98 251.5t-233 103t-234 -103t-99 -251.5t99 -251t234 -102.5t233 102.5t98 251zM78 531q0 223 164.5 388t388 165t388.5 -165t165 -388t-165 -388t-388.5 -165t-388 165t-164.5 388zM785 1239q-66 0 -119.5 33t-96.5 66.5t-82 33.5q-88 0 -88 -133 h-144q0 287 232 287q66 0 119 -33t96 -66.5t83 -33.5q89 0 89 133h143q0 -287 -232 -287z" />
<glyph unicode="&#xf6;" d="M962 530.5q0 148.5 -98 251.5t-233 103t-234 -103t-99 -251.5t99 -251t234 -102.5t233 102.5t98 251zM78 531q0 223 164.5 388t388 165t388.5 -165t165 -388t-165 -388t-388.5 -165t-388 165t-164.5 388zM531 1371.5q0 -57.5 -37.5 -95t-95.5 -37.5t-95 37.5t-37 95 t37 95t95 37.5t95.5 -37.5t37.5 -95zM996 1371.5q0 -57.5 -38 -95t-95.5 -37.5t-95 37.5t-37.5 95t37.5 95t95 37.5t95.5 -37.5t38 -95z" />
<glyph unicode="&#xf7;" horiz-adv-x="1149" d="M719 265.5q0 -57.5 -43 -100.5t-101 -43t-101 43t-43 100.5t43 100.5t101 43t101 -43t43 -100.5zM1062 752v-199h-973v199h973zM719 1039.5q0 -57.5 -43 -101t-101 -43.5t-101 43.5t-43 101t43 101t101 43.5t101 -43.5t43 -101z" />
<glyph unicode="&#xf8;" horiz-adv-x="1304" d="M89 531q0 224 164.5 388.5t388.5 164.5q166 0 312 -100l141 144l133 -132l-139 -145q105 -146 105 -320q0 -223 -164.5 -388t-387.5 -165q-171 0 -313 100l-141 -144l-133 132l139 142q-105 148 -105 323zM310 531q0 -90 38 -166l460 471q-78 49 -166 49 q-135 0 -233.5 -103t-98.5 -251zM973 531q0 85 -40 163l-460 -468q80 -49 169 -49q135 0 233 103t98 251z" />
<glyph unicode="&#xf9;" horiz-adv-x="1293" d="M895 0v110l-14 -14q-9 -10 -40 -32t-66.5 -40t-89.5 -32t-110 -14q-193 0 -312 126t-119 339v619h221v-619q0 -115 73 -190.5t181 -75.5q126 0 201 81.5t75 228.5v575h222v-1062h-222zM542 1549l165 -310h-165l-232 310h232z" />
<glyph unicode="&#xfa;" horiz-adv-x="1293" d="M895 0v110l-14 -14q-9 -10 -40 -32t-66.5 -40t-89.5 -32t-110 -14q-193 0 -312 126t-119 339v619h221v-619q0 -115 73 -190.5t181 -75.5q126 0 201 81.5t75 228.5v575h222v-1062h-222zM531 1239l166 310h232l-232 -310h-166z" />
<glyph unicode="&#xfb;" horiz-adv-x="1293" d="M895 0v110l-14 -14q-9 -10 -40 -32t-66.5 -40t-89.5 -32t-110 -14q-193 0 -312 126t-119 339v619h221v-619q0 -115 73 -190.5t181 -75.5q126 0 201 81.5t75 228.5v575h222v-1062h-222zM741 1549l243 -310h-199l-154 198l-156 -198h-199l243 310h222z" />
<glyph unicode="&#xfc;" horiz-adv-x="1293" d="M895 0v110l-14 -14q-9 -10 -40 -32t-66.5 -40t-89.5 -32t-110 -14q-193 0 -312 126t-119 339v619h221v-619q0 -115 73 -190.5t181 -75.5q126 0 201 81.5t75 228.5v575h222v-1062h-222zM531 1371.5q0 -57.5 -37.5 -95t-95.5 -37.5t-95 37.5t-37 95t37 95t95 37.5 t95.5 -37.5t37.5 -95zM996 1371.5q0 -57.5 -38 -95t-95.5 -37.5t-95 37.5t-37.5 95t37.5 95t95 37.5t95.5 -37.5t38 -95z" />
<glyph unicode="&#xfd;" horiz-adv-x="1127" d="M399 -110l44 110l-432 1062h232l310 -775l310 775h232l-476 -1172q-82 -197 -162.5 -275.5t-201.5 -78.5q-44 0 -83 5t-58 12l-15 4v200q55 -22 112 -23q126 1 188 156zM487 1239l165 310h233l-233 -310h-165z" />
<glyph unicode="&#xfe;" horiz-adv-x="1348" d="M730 -22q-59 0 -116 14t-97 35.5t-70.5 43.5t-43.5 35l-16 16v-586h-221v2013h221v-609q15 15 43 39.5t117.5 64.5t182.5 40q211 0 365.5 -161.5t154.5 -391.5t-154.5 -391.5t-365.5 -161.5zM708 885q-126 0 -223.5 -104t-97.5 -250.5t97.5 -250t223.5 -103.5t223 103.5 t97 250t-97 250.5t-223 104z" />
<glyph unicode="&#xff;" horiz-adv-x="1127" d="M399 -110l44 110l-432 1062h232l310 -775l310 775h232l-476 -1172q-82 -197 -162.5 -275.5t-201.5 -78.5q-44 0 -83 5t-58 12l-15 4v200q55 -22 112 -23q126 1 188 156zM454 1371.5q0 -57.5 -38 -95t-95 -37.5t-95 37.5t-38 95t38 95t95 37.5t95 -37.5t38 -95z M918 1371.5q0 -57.5 -38 -95t-95 -37.5t-95 37.5t-38 95t38 95t95 37.5t95 -37.5t38 -95z" />
<glyph unicode="&#x152;" horiz-adv-x="2266" d="M918 1549h1216v-222h-762v-409h585v-221h-585v-476h785v-221h-1239q-323 0 -554 229t-231 545.5t231 545.5t554 229zM1128 1327h-210q-226 0 -384 -160t-158 -392.5t158 -393t384 -160.5h210v1106z" />
<glyph unicode="&#x153;" horiz-adv-x="2100" d="M1990 454h-829q17 -113 110.5 -195t221.5 -82q92 0 173 42t115 82l32 41l144 -143q-7 -9 -19.5 -24.5t-57 -53t-94 -66t-129.5 -53t-164 -24.5q-80 0 -155 23.5t-125 55.5t-88.5 63.5t-56.5 56.5l-17 22q-7 -9 -19 -24.5t-53.5 -53t-87.5 -66t-120 -53t-152 -24.5 q-226 0 -383.5 160t-157.5 393t158 393t383 160q78 0 150.5 -23t121.5 -55.5t86.5 -64.5t54.5 -56l19 -22q6 9 18 24.5t53 52.5t87.5 66t120.5 53.5t152 24.5q223 0 371 -148.5t148 -371.5zM940 530.5q0 146.5 -97.5 250.5t-223 104t-223.5 -104t-98 -250.5t98 -250 t223.5 -103.5t223 103.5t97.5 250zM1482 895q-120 0 -201.5 -70.5t-110.5 -182.5h615q-19 112 -100 182.5t-203 70.5z" />
<glyph unicode="&#x178;" horiz-adv-x="1459" d="M310 1549l420 -741l420 741h266l-565 -996v-553h-243v553l-564 996h266zM631 1880.5q0 -57.5 -38 -95.5t-95 -38t-95 38t-38 95.5t38 95t95 37.5t95 -37.5t38 -95zM1095 1880.5q0 -57.5 -37.5 -95.5t-95 -38t-95.5 38t-38 95.5t38 95t95.5 37.5t95 -37.5t37.5 -95z" />
<glyph unicode="&#x2c6;" horiz-adv-x="840" d="M531 1549l243 -310h-199l-155 198l-154 -198h-200l244 310h221z" />
<glyph unicode="&#x2dc;" horiz-adv-x="895" d="M597 1260q-66 0 -119.5 33.5t-96.5 66.5t-83 33q-88 0 -87 -133h-145q0 288 232 289q66 0 119.5 -33.5t96.5 -66.5t83 -33q89 0 89 133h143q0 -289 -232 -289z" />
<glyph unicode="&#x2000;" horiz-adv-x="1061" />
<glyph unicode="&#x2001;" horiz-adv-x="2123" />
<glyph unicode="&#x2002;" horiz-adv-x="1061" />
<glyph unicode="&#x2003;" horiz-adv-x="2123" />
<glyph unicode="&#x2004;" horiz-adv-x="707" />
<glyph unicode="&#x2005;" horiz-adv-x="530" />
<glyph unicode="&#x2006;" horiz-adv-x="353" />
<glyph unicode="&#x2007;" horiz-adv-x="353" />
<glyph unicode="&#x2008;" horiz-adv-x="265" />
<glyph unicode="&#x2009;" horiz-adv-x="424" />
<glyph unicode="&#x200a;" horiz-adv-x="117" />
<glyph unicode="&#x2010;" horiz-adv-x="950" d="M863 752v-199h-774v199h774z" />
<glyph unicode="&#x2011;" horiz-adv-x="950" d="M863 752v-199h-774v199h774z" />
<glyph unicode="&#x2012;" horiz-adv-x="950" d="M863 752v-199h-774v199h774z" />
<glyph unicode="&#x2013;" horiz-adv-x="1017" d="M951 752v-199h-885v199h885z" />
<glyph unicode="&#x2014;" horiz-adv-x="1547" d="M1482 752v-199h-1416v199h1416z" />
<glyph unicode="&#x2018;" horiz-adv-x="508" d="M243 1040l-199 110l277 443l143 -78z" />
<glyph unicode="&#x2019;" horiz-adv-x="508" d="M266 1593l198 -111l-276 -442l-144 77z" />
<glyph unicode="&#x201a;" horiz-adv-x="530" d="M221 266l199 -112l-276 -441l-144 76z" />
<glyph unicode="&#x201c;" horiz-adv-x="906" d="M642 1040l-199 110l276 443l144 -78zM243 1040l-199 110l277 443l143 -78z" />
<glyph unicode="&#x201d;" horiz-adv-x="906" d="M266 1593l198 -111l-276 -442l-144 77zM663 1593l200 -111l-277 -442l-143 77z" />
<glyph unicode="&#x201e;" horiz-adv-x="928" d="M221 266l199 -112l-276 -441l-144 76zM619 266l200 -112l-277 -441l-143 76z" />
<glyph unicode="&#x2022;" horiz-adv-x="928" d="M707 531q0 -100 -71.5 -172t-171 -72t-171.5 72t-72 172t72 171.5t171.5 71.5t171 -71.5t71.5 -171.5z" />
<glyph unicode="&#x2026;" horiz-adv-x="1658" d="M399 121.5q0 -57.5 -43.5 -100.5t-101 -43t-101 43t-43.5 100.5t43.5 101t101 43.5t101 -43.5t43.5 -101zM973 121.5q0 -57.5 -43 -100.5t-100.5 -43t-100.5 43t-43 100.5t43 101t100.5 43.5t100.5 -43.5t43 -101zM1549 121.5q0 -57.5 -43.5 -100.5t-101 -43t-101 43 t-43.5 100.5t43.5 101t101 43.5t101 -43.5t43.5 -101z" />
<glyph unicode="&#x202f;" horiz-adv-x="424" />
<glyph unicode="&#x2039;" horiz-adv-x="663" d="M575 907l-265 -376l265 -377h-221l-265 377l265 376h221z" />
<glyph unicode="&#x203a;" horiz-adv-x="663" d="M354 531l-265 376h221l265 -376l-265 -377h-221z" />
<glyph unicode="&#x205f;" horiz-adv-x="530" />
<glyph unicode="&#x20ac;" horiz-adv-x="1647" d="M531 863v-177h486v-188h-431q5 -11 14.5 -32t46.5 -72.5t82 -90.5t125.5 -71.5t173.5 -32.5q68 0 132 17.5t106.5 44t75 53t47.5 45.5l15 17l156 -155q-7 -8 -21.5 -25t-64 -59t-106.5 -74t-148.5 -58.5t-191.5 -26.5q-112 0 -211.5 29t-169 74t-128.5 101.5t-94.5 112 t-60 101t-32.5 73.5l-11 29h-232v188h198v177h-198v188h232q6 21 19.5 56t70 124.5t129 158t203.5 124.5t285 56q100 0 189.5 -24t147 -57t102 -67.5t63.5 -58.5l19 -25l-156 -154q-4 6 -14 17t-44.5 40t-72.5 51t-101.5 39.5t-132.5 17.5q-93 0 -172 -31t-127 -75 t-82.5 -87.5t-47.5 -74.5l-13 -30h431v-188h-486z" />
<glyph unicode="&#x2122;" horiz-adv-x="1448" d="M22 1416v133h520v-133h-188v-531h-143v531h-189zM1216 1549h122v-664h-144v398l-198 -243l-200 243v-398h-144v664h122l222 -289z" />
<glyph unicode="&#x25fc;" horiz-adv-x="1063" d="M0 1064h1064v-1064h-1064v1064z" />
</font>
</defs>
</svg>
