<?xml version="1.0" standalone="no"?>
<!DOCTYPE svg PUBLIC "-//W3C//DTD SVG 1.1//EN" "http://www.w3.org/Graphics/SVG/1.1/DTD/svg11.dtd" >
<svg xmlns="http://www.w3.org/2000/svg" xmlns:xlink="http://www.w3.org/1999/xlink" version="1.1">
<metadata></metadata>
<defs>
<font id="tt_normsthin" horiz-adv-x="1326" >
<font-face units-per-em="2048" ascent="1638" descent="-410" />
<missing-glyph horiz-adv-x="397" />
<glyph unicode="&#xfb01;" horiz-adv-x="1105" d="M829 0v1017h-531v-1017h-43v1017h-177v45h177v243q0 124 67 194.5t176 70.5q36 0 68.5 -8.5t48.5 -17.5l16 -7v-44q-55 33 -133 33q-93 0 -146.5 -57t-53.5 -164v-243h576v-1062h-45zM895 1459.5q0 -17.5 -14 -30.5t-29.5 -13t-29.5 13t-14 30.5t14 31t29.5 13.5 t29.5 -13.5t14 -31z" />
<glyph unicode="&#xfb02;" horiz-adv-x="1127" d="M851 0v1228q0 131 -79.5 214.5t-196.5 83.5t-197 -84t-80 -214v-166h266v-45h-266v-1017h-43v1017h-177v45h177v166q0 148 93 245t227.5 97t227 -97t92.5 -245v-1228h-44z" />
<glyph unicode="&#xfb03;" horiz-adv-x="1680" d="M1404 0v1017h-530v-1017h-45v1017h-531v-1017h-43v1017h-177v45h177v198q0 125 67 195.5t176 70.5q36 0 68.5 -8.5t48.5 -17.5l16 -7v-45q-55 34 -133 34q-93 0 -146.5 -57.5t-53.5 -164.5v-198h531v243q0 124 67.5 194.5t175.5 70.5q36 0 69 -8.5t49 -17.5l15 -7v-44 q-55 33 -133 33q-92 0 -145 -57t-53 -164v-243h574v-1062h-44zM1471 1459.5q0 -17.5 -14.5 -30.5t-29.5 -13t-30 13t-15 30.5t15 31t30 13.5t29.5 -13.5t14.5 -31z" />
<glyph horiz-adv-x="0" />
<glyph horiz-adv-x="0" />
<glyph unicode="&#xd;" horiz-adv-x="0" />
<glyph unicode=" "  horiz-adv-x="397" />
<glyph unicode="&#x09;" horiz-adv-x="397" />
<glyph unicode="&#xa0;" horiz-adv-x="397" />
<glyph unicode="!" horiz-adv-x="618" d="M332 321h-45v1228h45v-1228zM354 44.5q0 -17.5 -13.5 -31t-31 -13.5t-30.5 13.5t-13 31t13 31t30.5 13.5t31 -13.5t13.5 -31z" />
<glyph unicode="&#x22;" horiz-adv-x="707" d="M221 1549v-465h-44v465h44zM531 1549v-465h-44v465h44z" />
<glyph unicode="#" horiz-adv-x="1547" d="M940 0h-45l101 509h-553l-101 -509h-44l101 509h-333l12 44h331l89 443h-344l12 44h343l99 509h44l-99 -509h553l99 509h45l-100 -509h332l-11 -44h-332l-88 -443h342l-11 -44h-342zM542 996l-88 -443h553l88 443h-553z" />
<glyph unicode="$" horiz-adv-x="1205" d="M575 -243v221q-91 0 -171.5 23.5t-131.5 55.5t-89.5 63.5t-53.5 56.5l-19 22l34 33q4 -8 15.5 -23t49.5 -50t84.5 -63t122 -51t159.5 -23q200 0 326.5 110.5t126.5 266.5q0 99 -48.5 168.5t-127 109.5t-172.5 70t-187.5 61.5t-172.5 72.5t-127.5 114t-48.5 177 q0 162 125 276t328 122v222h45v-222q117 -4 219.5 -51.5t147.5 -91.5l42 -45l-34 -33q-6 6 -17.5 18.5t-49.5 43.5t-80.5 54t-111 42t-139.5 19q-192 0 -311.5 -103.5t-119.5 -250.5q0 -93 48.5 -160.5t127.5 -105t173 -66t188 -62t172 -75.5t126.5 -119t48.5 -185 q0 -169 -123.5 -287t-329.5 -134v-221h-44z" />
<glyph unicode="%" horiz-adv-x="1680" d="M332 0l973 1549h44l-973 -1549h-44zM1526 320.5q0 130.5 -79.5 214.5t-196.5 84t-197 -84t-80 -214.5t80 -214.5t197 -84t196.5 84t79.5 214.5zM1570 321q0 -148 -92.5 -245.5t-227.5 -97.5t-228 97.5t-93 245.5t93 245t228 97t227.5 -97t92.5 -245zM707 1227.5 q0 130.5 -79 214.5t-196.5 84t-197.5 -84t-80 -214.5t80 -214.5t197.5 -84t196.5 84t79 214.5zM752 1227.5q0 -148.5 -93 -245.5t-228 -97t-228 97t-93 245.5t93 245.5t228 97t228 -97t93 -245.5z" />
<glyph unicode="&#x26;" horiz-adv-x="1338" d="M863 1239q0 -68 -34.5 -139.5t-83 -123.5t-97.5 -94t-82 -63l-35 -23l453 -541q15 21 37.5 61t59 169.5t36.5 266.5h44q0 -148 -38.5 -281t-78.5 -192l-37 -58q15 -19 39 -49.5t89.5 -79t114.5 -48.5q15 0 31.5 3.5t26 5.5t9.5 4v-46q-32 -11 -67 -11q-38 0 -78.5 20 t-73 46.5t-59 54t-39.5 47.5l-16 20q-4 -9 -15 -23.5t-50 -49.5t-83 -62.5t-118 -51t-154 -23.5q-173 0 -291.5 111.5t-118.5 264.5q0 76 33.5 148.5t80 123.5t94 90.5t81.5 60.5l32 19q-11 9 -27.5 26.5t-61 71t-77.5 104.5t-60.5 118.5t-27.5 122.5q0 139 94 235t227 96 t227 -96t94 -235zM962 221l-464 553q-11 -6 -32 -19.5t-72.5 -58t-90.5 -91t-71.5 -115t-32.5 -136.5q0 -135 105 -233.5t260 -98.5q75 0 142.5 21t113 50t78.5 57.5t49 48.5zM266 1239q0 -80 60.5 -185t120.5 -169l62 -66q13 8 34 22.5t74.5 61t94 93t74 114t33.5 129.5 q0 124 -80 205.5t-197.5 81.5t-196.5 -81.5t-79 -205.5z" />
<glyph unicode="'" horiz-adv-x="397" d="M221 1549v-465h-44v465h44z" />
<glyph unicode="(" horiz-adv-x="718" d="M221 553q0 -173 40 -342t97.5 -285t113.5 -209t96 -137l40 -44l-33 -23q-16 17 -43.5 49.5t-96 138t-120 219t-95 287t-43.5 346.5t41 344t99.5 290.5t117.5 216t101 143.5l39 46l33 -23q-15 -15 -41.5 -46t-93 -132.5t-117 -212.5t-93 -282t-42.5 -344z" />
<glyph unicode=")" horiz-adv-x="718" d="M498 553q0 173 -40 342t-96 285t-114 209t-98 137l-40 44l34 23q15 -17 43 -49.5t96.5 -138t120.5 -219.5t95 -287t43 -346t-41 -344t-100 -290.5t-117 -216t-98 -143.5l-42 -46l-34 23q15 15 42 46t93.5 132.5t117.5 212.5t93 282t42 344z" />
<glyph unicode="*" horiz-adv-x="861" d="M110 1283l12 44l287 -88v310h45v-310l287 88l11 -44l-288 -89l188 -254l-33 -33l-188 254l-188 -254l-32 33l188 254z" />
<glyph unicode="+" horiz-adv-x="1105" d="M531 1106h44v-431h421v-44h-421v-432h-44v432h-421v44h421v431z" />
<glyph unicode="," horiz-adv-x="386" d="M177 89l55 -34l-210 -321l-22 11z" />
<glyph unicode="-" horiz-adv-x="928" d="M819 675v-44h-709v44h709z" />
<glyph unicode="." horiz-adv-x="397" d="M154 44.5q0 17.5 13.5 31t31.5 13.5t31 -13.5t13 -31t-13 -31t-31 -13.5t-31.5 13.5t-13.5 31z" />
<glyph unicode="/" horiz-adv-x="906" d="M819 1570l-686 -2034h-44l685 2034h45z" />
<glyph unicode="0" horiz-adv-x="1459" d="M1260 774q0 343 -155.5 547.5t-374.5 204.5t-375 -204.5t-156 -547.5t156 -547.5t375 -204.5t374.5 204.5t155.5 547.5zM1305 774.5q0 -358.5 -170.5 -577.5t-404.5 -219t-405 219t-171 577.5t171 577t405 218.5t404.5 -218.5t170.5 -577z" />
<glyph unicode="1" horiz-adv-x="718" d="M420 1549h34v-1549h-45v1448q-2 -6 -8.5 -16t-32.5 -38.5t-56.5 -51.5t-84.5 -47.5t-117 -34.5v45q97 8 175 69t106 116z" />
<glyph unicode="2" horiz-adv-x="1182" d="M1051 0h-941q0 112 50.5 211t128.5 173t173 143.5t191.5 136t175 136t128.5 160.5t50 190q0 152 -123 264t-309 112q-95 0 -171.5 -31t-117.5 -75t-67.5 -87t-32.5 -75l-9 -30l-44 11q2 13 8.5 35t39 80t76.5 102t128 79t190 35q203 0 339.5 -124.5t136.5 -295.5 q0 -122 -63.5 -228t-157 -178.5t-206.5 -153.5t-212.5 -153t-171.5 -175t-86 -218h897v-44z" />
<glyph unicode="3" horiz-adv-x="1171" d="M663 819q15 -3 39 -10t84.5 -36.5t107 -70.5t85 -119.5t38.5 -173.5q0 -179 -137 -305t-349 -126q-84 0 -160.5 23.5t-125 55.5t-86 63.5t-53.5 56.5l-17 22l33 33q4 -8 15 -23t49 -50t82 -63t115 -51t148 -23q195 0 318.5 112.5t123.5 274t-123.5 274.5t-318.5 113h-132 v44h132q180 0 289 100t109 243.5t-109.5 243t-288.5 99.5q-68 0 -131.5 -18t-107 -44.5t-75 -52.5t-46.5 -44l-17 -18l-32 33q7 7 17.5 20.5t49.5 45.5t83 57t114 45t145 20q195 0 318.5 -112.5t123.5 -273.5q0 -85 -32 -153.5t-77 -106t-90.5 -63t-79.5 -34.5z" />
<glyph unicode="4" horiz-adv-x="1193" d="M895 420h211v-44h-211v-376h-44v376h-807v55l807 1118h44v-1129zM851 420v1062l-762 -1062h762z" />
<glyph unicode="5" horiz-adv-x="1271" d="M642 951q198 0 336.5 -140t138.5 -347q0 -208 -141.5 -347t-356.5 -139q-84 0 -160.5 23.5t-125 55.5t-85.5 63.5t-54 56.5l-17 22l34 33q4 -8 15 -23t48.5 -50t82 -63t115 -51t147.5 -23q199 0 326 125t127 317q0 190 -123.5 316.5t-306.5 126.5q-72 0 -135.5 -22 t-103.5 -53.5t-70 -61t-44 -51.5l-13 -22h-44l55 852h730v-45h-685l-56 -752q5 8 13.5 21.5t42 48t72.5 61t102.5 47.5t135.5 21z" />
<glyph unicode="6" horiz-adv-x="1237" d="M619 951q208 0 347.5 -139t139.5 -347t-139.5 -347.5t-347.5 -139.5t-347 139.5t-139 346.5q0 80 24 159.5t51 119.5l24 42l487 764h55l-464 -709q13 13 36 31t103.5 49t169.5 31zM1062 464q0 190 -126 316.5t-316.5 126.5t-316.5 -126.5t-126 -316.5t126 -316 t316.5 -126t316.5 126t126 316z" />
<glyph unicode="7" horiz-adv-x="1005" d="M44 1549h918v-45l-730 -1504h-44l730 1504h-874v45z" />
<glyph unicode="8" horiz-adv-x="1260" d="M630 1526q-155 0 -259.5 -98.5t-104.5 -233.5t104.5 -233t259.5 -98t260.5 98t105.5 233t-105.5 233.5t-260.5 98.5zM630 -22q-206 0 -341 128t-135 314q0 99 37 179t89 123.5t103.5 72t89.5 37.5l36 8q-11 2 -31 9t-69.5 33.5t-87.5 63t-69 103t-31 145.5 q0 153 118.5 264.5t290.5 111.5t291 -111.5t119 -264.5q0 -79 -30 -145.5t-72.5 -103t-84 -61.5t-70.5 -35l-31 -9q15 -2 38.5 -8.5t84 -37t107 -73t85.5 -122.5t39 -179q0 -186 -135 -314t-341 -128zM631 819q-188 0 -310 -115t-122 -283.5t122 -283.5t310 -115t309.5 115 t121.5 283.5t-121.5 283.5t-309.5 115z" />
<glyph unicode="9" horiz-adv-x="1237" d="M619 597q-209 0 -347.5 139.5t-138.5 347.5t139 347t347 139t347.5 -139t139.5 -347q0 -80 -24.5 -159.5t-51.5 -119.5l-23 -41l-488 -764h-55l465 707q-13 -13 -36.5 -30.5t-104.5 -48.5t-169 -31zM177 1083.5q0 -190.5 126 -316t316.5 -125.5t316.5 125.5t126 316 t-126 316.5t-316.5 126t-316.5 -126t-126 -316.5z" />
<glyph unicode=":" horiz-adv-x="397" d="M154 44.5q0 17.5 13.5 31t31.5 13.5t31 -13.5t13 -31t-13 -31t-31 -13.5t-31.5 13.5t-13.5 31zM154 1017.5q0 17.5 13.5 31t31.5 13.5t31 -13.5t13 -31t-13 -31t-31 -13.5t-31.5 13.5t-13.5 31z" />
<glyph unicode=";" horiz-adv-x="397" d="M177 89l55 -34l-210 -321l-22 11zM154 1017.5q0 17.5 13.5 31t31.5 13.5t31 -13.5t13 -31t-13 -31t-31 -13.5t-31.5 13.5t-13.5 31z" />
<glyph unicode="&#x3c;" horiz-adv-x="1083" d="M133 519v45l818 443v-45l-785 -420l785 -420v-44z" />
<glyph unicode="=" horiz-adv-x="1105" d="M973 487v-44h-840v44h840zM973 863v-44h-840v44h840z" />
<glyph unicode="&#x3e;" horiz-adv-x="1083" d="M951 564v-45l-818 -441v44l785 420l-785 420v45z" />
<glyph unicode="?" horiz-adv-x="1116" d="M509 321v99q0 89 33 161.5t84 121.5t109.5 102.5t109 98.5t84 116t33.5 152q0 146 -115 250t-294 104q-95 0 -171 -31t-117 -75t-67.5 -87t-33.5 -75l-10 -30l-44 11q2 13 9 35t39 80t76.5 102t128.5 79t190 35q194 0 324 -118t130 -280q0 -104 -46.5 -186.5t-114 -140.5 t-134 -114t-113 -135t-46.5 -176v-99h-44zM487 44.5q0 17.5 13 31t31 13.5t31 -13.5t13 -31t-13 -31t-31 -13.5t-31 13.5t-13 31z" />
<glyph unicode="@" horiz-adv-x="1946" d="M951 907q-128 0 -218.5 -102t-90.5 -263.5t90.5 -263t218.5 -101.5t218.5 101.5t90.5 263t-90.5 263.5t-218.5 102zM951 951q98 0 175 -55.5t106 -110.5l28 -55v210h45v-476q0 -141 55.5 -214t143.5 -73q102 0 172.5 105t70.5 315q0 310 -226.5 531t-547.5 221 q-310 0 -542 -237.5t-232 -558.5t232 -558.5t542 -237.5q129 0 247 42t173 81l55 42l23 -32q-22 -20 -62 -50t-169.5 -78.5t-266.5 -48.5q-325 0 -572 251t-247 589t247 589t572 251q338 0 578.5 -235.5t240.5 -560.5q0 -225 -85.5 -344.5t-202.5 -119.5q-88 0 -146 61 t-71 120l-15 62q-4 -9 -11 -25.5t-34.5 -59t-61.5 -74t-92 -58t-122 -26.5q-145 0 -249.5 115t-104.5 294t104.5 294t249.5 115z" />
<glyph unicode="A" horiz-adv-x="1459" d="M752 1549l641 -1549h-44l-199 487h-840l-200 -487h-44l641 1549h45zM1128 531l-398 962l-398 -962h796z" />
<glyph unicode="B" horiz-adv-x="1448" d="M962 829v-10q13 -3 35.5 -7t80 -32t102 -66.5t79.5 -116.5t35 -177q0 -186 -123.5 -303t-330.5 -117h-574v1549h542q188 0 298 -104.5t110 -272.5q0 -80 -26.5 -145t-62.5 -100.5t-74 -58.5t-65 -32zM310 44h530q188 0 299 104t111 272.5t-111 272t-299 103.5h-530v-752z M808 1504h-498v-664h498q173 0 268.5 91t95.5 241.5t-95.5 241t-268.5 90.5z" />
<glyph unicode="C" horiz-adv-x="1647" d="M133 774.5q0 329.5 229 562.5t545 233q118 0 226 -35t178.5 -86t123.5 -101t78 -85l24 -35l-33 -23q-8 13 -24 34t-71.5 77t-119 99t-168 77t-214.5 34q-301 0 -515.5 -218.5t-214.5 -533t214.5 -533.5t515.5 -219q110 0 213.5 33.5t169 79.5t117 93.5t75.5 81.5l22 32 l33 -21q-9 -13 -25.5 -36.5t-75 -83.5t-126 -104t-177 -81.5t-226.5 -37.5q-316 0 -545 233.5t-229 563z" />
<glyph unicode="D" horiz-adv-x="1614" d="M266 1549h409q354 0 580.5 -220.5t226.5 -554t-227 -554t-580 -220.5h-409v1549zM675 1504h-365v-1460h365q338 0 550 206t212 524.5t-212 524t-550 205.5z" />
<glyph unicode="E" horiz-adv-x="1382" d="M310 44h984v-44h-1028v1549h1006v-45h-962v-675h785v-44h-785v-741z" />
<glyph unicode="F" d="M266 1549h994v-45h-950v-696h774v-44h-774v-764h-44v1549z" />
<glyph unicode="G" horiz-adv-x="1724" d="M1537 1228l-33 -23q-8 13 -24 34t-71.5 77t-119 99t-168 77t-214.5 34q-301 0 -515.5 -218.5t-214.5 -533t214.5 -533.5t515.5 -219q110 0 213.5 33.5t169 79.5t117 93.5t75.5 81.5l22 32v365h-453v45h498v-420q-9 -16 -27 -39t-79 -84t-129.5 -107.5t-179 -85 t-227.5 -38.5q-316 0 -545 233.5t-229 563t229 562.5t545 233q118 0 226 -35t178.5 -86t123.5 -101t78 -85z" />
<glyph unicode="H" horiz-adv-x="1647" d="M266 0v1549h44v-741h1028v741h44v-1549h-44v764h-1028v-764h-44z" />
<glyph unicode="I" horiz-adv-x="574" d="M266 0v1549h44v-1549h-44z" />
<glyph unicode="J" horiz-adv-x="1061" d="M774 1549h45v-1106q0 -197 -130 -331t-313 -134q-64 0 -125 15.5t-101 38.5t-69.5 46.5t-44.5 39.5l-14 15l33 33q13 -15 36 -39.5t107.5 -64.5t177.5 -40q168 0 283 119.5t115 301.5v1106z" />
<glyph unicode="K" horiz-adv-x="1414" d="M310 498l950 1051h57l-587 -654l642 -895h-55l-610 863h-10l-387 -420v-443h-44v1549h44v-1051z" />
<glyph unicode="L" horiz-adv-x="1216" d="M1172 0h-906v1549h44v-1505h862v-44z" />
<glyph unicode="M" horiz-adv-x="2012" d="M298 1549l709 -985l707 985h33v-1549h-44v1460l-696 -973l-697 973v-1460h-44v1549h32z" />
<glyph unicode="N" horiz-adv-x="1713" d="M1404 1549h44v-1549h-32l-1106 1460v-1460h-44v1549h32l1106 -1460v1460z" />
<glyph unicode="O" horiz-adv-x="1813" d="M1637 774.5q0 314.5 -215 533t-515.5 218.5t-515 -218.5t-214.5 -533t214.5 -533.5t515 -219t515.5 219t215 533.5zM1680 774.5q0 -329.5 -228 -563t-544.5 -233.5t-545.5 233.5t-229 563t229 562.5t545.5 233t544.5 -233t228 -562.5z" />
<glyph unicode="P" horiz-adv-x="1404" d="M266 1549h519q213 0 350 -131t137 -323t-137 -322.5t-350 -130.5h-475v-642h-44v1549zM785 1504h-475v-818h475q197 0 320 116t123 293t-123 293t-320 116z" />
<glyph unicode="Q" horiz-adv-x="1813" d="M133 774.5q0 329.5 229 562.5t545.5 233t544.5 -233t228 -563q0 -112 -26 -214t-69.5 -175t-95.5 -134t-103.5 -101t-95 -67.5t-70.5 -38.5l-26 -11q5 -10 14.5 -31t46.5 -72.5t82 -91t126 -72t174 -32.5l144 11v-43q-66 -11 -144 -12q-101 0 -188.5 34.5t-140 82 t-88.5 96t-53 84.5l-12 32q-115 -42 -248 -41q-316 0 -545 233.5t-229 563zM177 774.5q0 -314.5 214.5 -533.5t515 -219t515.5 219t215 533.5t-215 533t-515.5 218.5t-515 -218.5t-214.5 -533z" />
<glyph unicode="R" horiz-adv-x="1448" d="M266 1549h553q205 0 334.5 -123.5t129.5 -308.5q0 -102 -38 -182.5t-92 -123.5t-106.5 -71t-90.5 -37l-38 -6l399 -697h-57l-375 686h-575v-686h-44v1549zM819 1504h-509v-774h509q188 0 304 109.5t116 277.5t-116 277.5t-304 109.5z" />
<glyph unicode="S" horiz-adv-x="1205" d="M1028 399q0 99 -48.5 168.5t-127 109.5t-172.5 70t-187.5 61.5t-172.5 72.5t-127.5 114t-48.5 177q0 164 132.5 281t342.5 117q78 0 150.5 -20t121.5 -46.5t86.5 -54t54.5 -47.5l19 -20l-34 -33q-6 6 -17.5 18.5t-49.5 43.5t-80.5 54t-111 42t-139.5 19 q-192 0 -311.5 -103.5t-119.5 -250.5q0 -93 48.5 -160.5t127.5 -105t173 -66t188 -62t172 -75.5t126.5 -119t48.5 -185q0 -173 -140 -297t-357 -124q-91 0 -171.5 23.5t-131.5 55.5t-89.5 63.5t-53.5 56.5l-19 22l34 33q4 -8 15.5 -23t49.5 -50t84.5 -63t122 -51t159.5 -23 q200 0 326.5 111t126.5 266z" />
<glyph unicode="T" horiz-adv-x="1193" d="M44 1549h1106v-45h-531v-1504h-44v1504h-531v45z" />
<glyph unicode="U" horiz-adv-x="1658" d="M829.5 22q225.5 0 384 163t158.5 401v963h44v-963q0 -254 -172 -431t-415 -177t-414.5 177t-171.5 431v963h44v-963q0 -238 158.5 -401t384 -163z" />
<glyph unicode="V" horiz-adv-x="1393" d="M675 0l-609 1549h44l587 -1494l586 1494h44l-608 -1549h-44z" />
<glyph unicode="W" horiz-adv-x="2144" d="M1084 1549l476 -1483l475 1483h44l-498 -1549h-44l-465 1448l-464 -1448h-44l-498 1549h44l476 -1483l476 1483h22z" />
<glyph unicode="X" d="M154 1549l509 -720l509 720h56l-542 -753l574 -796h-55l-542 764l-541 -764h-56l576 796l-543 753h55z" />
<glyph unicode="Y" d="M122 1549l541 -963l542 963h55l-574 -1007v-542h-44v542l-576 1007h56z" />
<glyph unicode="Z" horiz-adv-x="1237" d="M1072 1504h-950v45h1006v-34l-984 -1471h1006v-44h-1061v33z" />
<glyph unicode="[" horiz-adv-x="762" d="M310 1526v-1946h342v-44h-386v2034h386v-44h-342z" />
<glyph unicode="\" horiz-adv-x="906" d="M774 -464l-685 2034h44l686 -2034h-45z" />
<glyph unicode="]" horiz-adv-x="762" d="M454 -420v1946h-344v44h388v-2034h-388v44h344z" />
<glyph unicode="^" horiz-adv-x="840" d="M399 1549h44l264 -598h-44l-243 553l-243 -553h-44z" />
<glyph unicode="_" horiz-adv-x="684" d="M707 -276v-45h-729v45h729z" />
<glyph unicode="`" horiz-adv-x="353" d="M122 1526l165 -266h-44l-177 266h56z" />
<glyph unicode="a" horiz-adv-x="1094" d="M840 652v34q0 154 -95 254t-236 100q-93 0 -173.5 -42t-114.5 -82l-33 -42l-34 33q5 7 15 18.5t43 43t71 55t100 42t126 18.5q158 0 267 -112.5t109 -285.5v-686h-45v255q-4 -11 -11.5 -30.5t-40 -67t-72 -83.5t-114 -66t-159.5 -30q-152 0 -253 89.5t-101 208.5 q0 118 80 195.5t230 103.5zM443 22q168 0 282.5 119.5t114.5 301.5v165l-441 -77q-266 -46 -266 -255q0 -103 86.5 -178.5t223.5 -75.5z" />
<glyph unicode="b" d="M255 1549v-797q4 13 15 35.5t51 79.5t86.5 101.5t124.5 80t165 35.5q188 0 337.5 -164t149.5 -389t-149.5 -389t-337.5 -164q-87 0 -164 34t-125.5 83t-85.5 97.5t-52 81.5l-15 36v-310h-44v1549h44zM696.5 1040q-170.5 0 -306 -149.5t-135.5 -359.5t135.5 -359.5 t306 -149.5t306.5 149.5t136 359.5t-136 359.5t-306.5 149.5z" />
<glyph unicode="c" horiz-adv-x="1149" d="M166 531q0 -212 139.5 -360.5t325.5 -148.5q108 0 198.5 50t128.5 101l38 48l32 -22q-4 -9 -15 -24.5t-48.5 -53t-80 -66t-111 -53t-142.5 -24.5q-203 0 -356 162.5t-153 390t152.5 390.5t356.5 163q75 0 142 -23t112.5 -55.5t79 -64.5t48.5 -56l15 -22l-32 -23 q-5 9 -15 22.5t-44 47.5t-73 61t-102 48t-131 21q-186 0 -325.5 -148.5t-139.5 -360.5z" />
<glyph unicode="d" d="M1051 752v797h44v-1549h-44v310q-4 -13 -15.5 -35.5t-51.5 -80t-86.5 -101.5t-125 -79.5t-164.5 -35.5q-188 0 -337 164t-149 389t149 389t337 164q86 0 163.5 -34.5t126.5 -83t85.5 -97t51.5 -82.5zM608.5 1040q-170.5 0 -306.5 -149.5t-136 -359.5t136 -359.5 t306.5 -149.5t306.5 149.5t136 359.5t-136 359.5t-306.5 149.5z" />
<glyph unicode="e" horiz-adv-x="1216" d="M1095 509h-929q9 -206 145 -346.5t320 -140.5q108 0 198.5 50t128.5 101l38 48l32 -22q-4 -9 -15 -24.5t-48.5 -53t-80 -66t-111 -53t-142.5 -24.5q-203 0 -356 162.5t-153 390.5q0 235 146 394t340 159t340.5 -159t146.5 -394v-22zM608 1040q-177 0 -309.5 -142 t-132.5 -345h885q0 203 -133 345t-310 142z" />
<glyph unicode="f" horiz-adv-x="640" d="M564 1062v-45h-266v-1017h-43v1017h-177v45h177v243q0 124 67 194.5t176 70.5q36 0 68.5 -8.5t48.5 -17.5l16 -7v-44q-55 33 -133 33q-93 0 -146.5 -57t-53.5 -164v-243h266z" />
<glyph unicode="g" horiz-adv-x="1304" d="M597.5 66q170.5 0 300.5 142t130 345t-130 345t-300.5 142t-301 -142t-130.5 -345t130.5 -345t301 -142zM1028 66v276q-4 -13 -14 -34t-47.5 -76t-83 -98t-122.5 -77.5t-164 -34.5q-186 0 -330.5 156t-144.5 375t144.5 375t330.5 156q87 0 163 -33.5t123.5 -80t82 -94 t47.5 -80.5l15 -32v298h44v-996q0 -228 -142.5 -379t-343.5 -151q-75 0 -142.5 23t-113 55t-78.5 64.5t-49 55.5l-15 23l33 22q5 -9 14.5 -22.5t44 -47.5t73 -60.5t101.5 -47.5t132 -21q186 0 314 136.5t128 349.5z" />
<glyph unicode="h" horiz-adv-x="1281" d="M255 1549v-753q4 11 11.5 31t39.5 70t72 87.5t114 68.5t160 31q177 0 298.5 -128.5t121.5 -324.5v-631h-44v631q0 179 -108 294t-268 115q-168 0 -282.5 -122t-114.5 -310v-608h-44v1549h44z" />
<glyph unicode="i" horiz-adv-x="486" d="M211 0v1062h44v-1062h-44zM276 1459.5q0 -17.5 -14.5 -30.5t-29.5 -13t-29.5 13t-14.5 30.5t14.5 31t29.5 13.5t29.5 -13.5t14.5 -31z" />
<glyph unicode="j" horiz-adv-x="486" d="M211 -199v1261h44v-1261q0 -124 -67.5 -194.5t-176.5 -70.5q-36 0 -69 8.5t-48 17.5l-16 7v44q55 -33 133 -33q93 0 146.5 57.5t53.5 163.5zM188 1459.5q0 17.5 14.5 31t29.5 13.5t29.5 -13.5t14.5 -31t-14.5 -30.5t-29.5 -13t-29.5 13t-14.5 30.5z" />
<glyph unicode="k" horiz-adv-x="1094" d="M255 276v-276h-44v1549h44v-1217l663 730h55l-387 -431l454 -631h-56l-420 597h-11z" />
<glyph unicode="l" horiz-adv-x="486" d="M255 1549v-1549h-44v1549h44z" />
<glyph unicode="m" horiz-adv-x="1923" d="M1670 0v631q0 185 -98.5 297t-244 112t-244.5 -112t-99 -297v-631h-44v631q0 185 -98.5 297t-244.5 112t-244 -115t-98 -317v-608h-44v1062h44v-243q2 10 9.5 28t35 63.5t62 80.5t97.5 64t138 29q84 0 153 -32t106 -77.5t62.5 -91t35.5 -78.5l8 -31q2 13 8.5 34t34 74 t64.5 94t105.5 74.5t152.5 33.5q162 0 274.5 -126t112.5 -327v-631h-44z" />
<glyph unicode="n" horiz-adv-x="1281" d="M255 1062v-266q4 11 11.5 31t39.5 70t72 87.5t114 68.5t160 31q177 0 298.5 -128.5t121.5 -324.5v-631h-44v631q0 179 -108 294t-268 115q-168 0 -282.5 -122t-114.5 -310v-608h-44v1062h44z" />
<glyph unicode="o" horiz-adv-x="1281" d="M1095 531q0 212 -139.5 360.5t-325 148.5t-325 -148.5t-139.5 -360.5t139.5 -360.5t325 -148.5t325 148.5t139.5 360.5zM1139 530.5q0 -227.5 -152.5 -390t-356 -162.5t-356 162.5t-152.5 390t152.5 390.5t356 163t356 -163t152.5 -390.5z" />
<glyph unicode="p" d="M255 310v-774h-44v1526h44v-310q4 13 15 35.5t51 79.5t86.5 101.5t124.5 80t165 35.5q188 0 337.5 -164t149.5 -389t-149.5 -389t-337.5 -164q-87 0 -164 34t-125.5 83t-85.5 97.5t-52 81.5zM696.5 22q170.5 0 306.5 149.5t136 359.5t-136 359.5t-306.5 149.5 t-306 -149.5t-135.5 -359.5t135.5 -359.5t306 -149.5z" />
<glyph unicode="q" d="M1051 -464v774q-4 -13 -15.5 -35.5t-51.5 -80t-86.5 -101.5t-125 -79.5t-164.5 -35.5q-188 0 -337 164t-149 389t149 389t337 164q86 0 163.5 -34.5t126.5 -83t85.5 -97t51.5 -82.5l16 -35v310h44v-1526h-44zM608.5 22q170.5 0 306.5 149.5t136 359.5t-136 359.5 t-306.5 149.5t-306.5 -149.5t-136 -359.5t136 -359.5t306.5 -149.5z" />
<glyph unicode="r" horiz-adv-x="751" d="M697 1040h-45q-168 0 -282.5 -122t-114.5 -310v-608h-44v1062h44v-266q4 11 11.5 31t39.5 70t72 87.5t114 68.5t160 31h45v-44z" />
<glyph unicode="s" horiz-adv-x="961" d="M796 929l-32 -34q-13 15 -37 40t-101 65t-162 40q-122 0 -199 -68.5t-77 -163.5q0 -82 65.5 -133t158 -79t184.5 -57.5t157.5 -92t65.5 -159.5q0 -128 -102 -218.5t-263 -90.5q-64 0 -125 17.5t-101 44t-69.5 53.5t-44.5 44l-15 17l34 34q4 -7 12.5 -18t39 -39.5 t64.5 -51t89.5 -40t115.5 -17.5q145 0 232.5 77.5t87.5 187.5q0 85 -65 139t-157 82t-185 56.5t-158 88t-65 155.5q0 110 91.5 193t228.5 83q93 0 176.5 -38.5t120.5 -76.5z" />
<glyph unicode="t" horiz-adv-x="729" d="M276 1128v288h45v-354h243v-45h-243v-774q0 -106 53 -163.5t145 -57.5q36 0 69 9t49 18l15 6v-44q-55 -34 -133 -33q-108 0 -175.5 71t-67.5 194v774h-221v45h156q65 0 65 66z" />
<glyph unicode="u" horiz-adv-x="1304" d="M1028 0v266q-4 -11 -11.5 -31t-40 -70.5t-72 -87.5t-113.5 -68t-160 -31q-177 0 -298.5 128t-121.5 325v631h44v-631q0 -179 108 -294t268 -115q168 0 282.5 122t114.5 310v608h44v-1062h-44z" />
<glyph unicode="v" horiz-adv-x="1038" d="M531 0h-44l-432 1062h44l410 -1007l409 1007h44z" />
<glyph unicode="w" horiz-adv-x="1526" d="M741 1062h23l320 -996l320 996h44l-342 -1062h-44l-310 962l-309 -962h-44l-344 1062h44l321 -996z" />
<glyph unicode="x" horiz-adv-x="994" d="M55 0l409 553l-375 509h55l343 -476l342 476h56l-376 -509l409 -553h-55l-376 519l-377 -519h-55z" />
<glyph unicode="y" horiz-adv-x="1038" d="M387 -243l100 243l-432 1062h44l410 -1007l409 1007h44l-531 -1305q-89 -221 -254 -221q-25 0 -47 5t-33 12l-8 4v44q33 -21 88 -21q138 0 210 177z" />
<glyph unicode="z" horiz-adv-x="939" d="M840 1062v-34l-730 -984h753v-44h-808v33l730 984h-707v45h762z" />
<glyph unicode="{" horiz-adv-x="795" d="M154 531v44q91 0 139.5 46t48.5 131v542q0 276 300 276h44v-44h-44q-255 0 -255 -232v-542q0 -49 -15.5 -87.5t-38.5 -58.5t-46 -33.5t-40 -15.5l-15 -4q7 0 17 -3.5t36.5 -17t47.5 -32t37.5 -58t16.5 -88.5v-542q0 -232 255 -232h44v-44h-44q-299 0 -300 276v542 q0 84 -48.5 130.5t-139.5 46.5z" />
<glyph unicode="|" horiz-adv-x="707" d="M376 1570v-2034h-44v2034h44z" />
<glyph unicode="}" horiz-adv-x="795" d="M642 575v-44q-91 0 -139.5 -46.5t-48.5 -130.5v-542q0 -276 -300 -276h-44v44h44q255 0 255 232v542q0 49 16 87.5t39 58t46.5 33t38.5 16.5l15 4q-7 0 -16.5 3t-36 16.5t-47.5 32.5t-38 58.5t-17 88.5v542q0 232 -255 232h-44v44h44q299 0 300 -276v-542 q0 -85 48.5 -131t139.5 -46z" />
<glyph unicode="~" horiz-adv-x="1127" d="M774 586q64 0 116 36.5t74 71.5l20 36l33 -23q-2 -6 -8.5 -17t-28.5 -40t-48.5 -50.5t-68.5 -39.5t-89 -18q-101 0 -217 82.5t-203 82.5q-63 0 -115.5 -35t-74.5 -70l-20 -38l-34 22q2 7 9 18t29.5 40t49 51t68.5 39.5t88 17.5q102 0 218 -83t202 -83z" />
<glyph unicode="&#xa1;" horiz-adv-x="618" d="M287 741h45v-1205h-45v1205zM354 1017.5q0 -17.5 -13.5 -31t-31 -13.5t-30.5 13.5t-13 31t13 31t30.5 13.5t31 -13.5t13.5 -31z" />
<glyph unicode="&#xa2;" horiz-adv-x="1149" d="M166 531q0 -212 139.5 -360.5t325.5 -148.5q108 0 198.5 50t128.5 101l38 48l32 -22q-4 -9 -14 -23t-44.5 -50.5t-75 -65.5t-105.5 -54t-137 -28v-221h-44v221q-194 9 -340 170.5t-146 382.5t146 382.5t340 170.5v221h44v-221q72 -2 137 -27t106.5 -56.5t73 -62.5 t44.5 -53l15 -22l-32 -23q-5 9 -15 22.5t-44 47.5t-73 61t-102 48t-131 21q-186 0 -325.5 -148.5t-139.5 -360.5z" />
<glyph unicode="&#xa3;" horiz-adv-x="1195" d="M332 1128q0 196 116 319t293 123q64 0 126 -17.5t104 -44t74 -53t48 -43.5l15 -19l-33 -32q-5 6 -14.5 17t-43 39.5t-68.5 50.5t-92 40t-116 18q-159 0 -262 -109.5t-103 -288.5v-376h464v-45h-464v-464q0 -68 -31 -117.5t-62 -66.5l-28 -15h851v-44h-973v44 q84 0 141.5 57.5t57.5 141.5v464h-166v45h166v376z" />
<glyph unicode="&#xa4;" horiz-adv-x="1425" d="M110 686v44h200v819h519q206 0 335.5 -123.5t129.5 -309t-129.5 -308t-335.5 -122.5h-475v-287h608v-45h-608v-354h-44v354h-200v45h200v287h-200zM829 1504h-475v-774h475q188 0 304.5 109.5t116.5 277.5t-116.5 277.5t-304.5 109.5z" />
<glyph unicode="&#xa5;" d="M266 310v44h376v188l-34 55h-342v45h320l-520 907h56l541 -963l542 963h55l-519 -907h321v-45h-343l-33 -55v-188h376v-44h-376v-310h-44v310h-376z" />
<glyph unicode="&#xa6;" horiz-adv-x="707" d="M332 376h44v-840h-44v840zM376 730h-44v840h44v-840z" />
<glyph unicode="&#xa7;" horiz-adv-x="1161" d="M962 619q0 53 -24 99t-57.5 75.5t-92 59t-102.5 46.5t-119.5 43.5t-112.5 41.5q-11 -2 -28 -7.5t-61 -26.5t-77 -48.5t-61 -79.5t-28 -115q0 -53 24 -98t57.5 -75t92 -59.5t102.5 -46.5t120 -43t112 -43q11 3 28 8.5t61 27t77.5 49t61 79t27.5 113.5zM564 -199 q146 0 233.5 77.5t87.5 187.5q0 93 -75.5 157t-183 102t-214 78t-182.5 116t-76 188q0 64 27 121t64.5 90t74 57.5t62.5 33.5l27 8q-6 3 -18.5 8t-43.5 26t-54 46.5t-42 70t-19 92.5q0 129 99.5 219.5t254.5 90.5q93 0 176 -38.5t118 -75.5l38 -40l-33 -34q-13 16 -36.5 40 t-100.5 64t-162 40q-137 0 -223.5 -77t-86.5 -189q0 -93 75.5 -156.5t182.5 -101.5t214.5 -77.5t183 -116t75.5 -189.5q0 -64 -26.5 -120t-63.5 -89.5t-74.5 -58t-63.5 -32.5l-27 -9q6 -2 18.5 -8t43.5 -26.5t54 -46.5t42 -70.5t19 -92.5q0 -129 -101.5 -219t-263.5 -90 q-64 0 -125 17.5t-101 44.5t-69.5 53t-42.5 44l-15 18l32 33q4 -7 13.5 -18t39 -40t64 -51t89.5 -39.5t115 -17.5z" />
<glyph unicode="&#xa8;" horiz-adv-x="574" d="M66 1415.5q0 17.5 13.5 31t31.5 13.5t30.5 -13.5t12.5 -31t-12.5 -30.5t-30.5 -13t-31.5 13t-13.5 30.5zM420 1415.5q0 17.5 13.5 31t31 13.5t31 -13.5t13.5 -31t-13.5 -30.5t-31 -13t-31 13t-13.5 30.5z" />
<glyph unicode="&#xa9;" horiz-adv-x="1879" d="M1725 774.5q0 -331.5 -230 -564t-555 -232.5t-555.5 232.5t-230.5 564t230.5 563.5t555.5 232t555 -232t230 -563.5zM1680 774.5q0 314.5 -216.5 533t-523.5 218.5t-524 -218.5t-217 -533t217 -533.5t524 -219t523.5 219t216.5 533.5zM608 773.5q0 -161.5 102 -268 t241 -106.5q49 0 96.5 14t78.5 35t55 43t35 35l12 16l32 -33q-13 -18 -36 -43t-103.5 -68.5t-169.5 -43.5q-158 0 -272.5 120.5t-114.5 300t114 299.5t273 120q89 0 166 -38.5t111 -76.5l32 -39l-32 -33q-11 15 -32.5 39t-93.5 64t-151 40q-139 0 -241 -107.5t-102 -269z " />
<glyph unicode="&#xaa;" horiz-adv-x="696" d="M287 895q-88 0 -143 51.5t-55 125.5q0 153 200 188l242 45v44q0 84 -46.5 130.5t-130.5 46.5q-53 0 -101 -22t-67 -44l-20 -23l-33 23q8 13 25 31t74 48.5t122 30.5q100 0 160.5 -61t60.5 -160v-431h-44v122q-2 -6 -7 -15.5t-24.5 -35t-45 -44t-70 -34.5t-97.5 -16z M531 1260l-242 -44q-156 -29 -156 -144q0 -59 41 -95.5t113 -36.5q106 0 175 66t69 166v88z" />
<glyph unicode="&#xab;" horiz-adv-x="884" d="M177 531l243 -332h-44l-243 332l243 332h44zM509 531l243 -332h-45l-243 332l243 332h45z" />
<glyph unicode="&#xac;" horiz-adv-x="994" d="M885 808v-354h-45v310h-730v44h775z" />
<glyph unicode="&#xad;" horiz-adv-x="928" d="M819 675v-44h-709v44h709z" />
<glyph unicode="&#xae;" horiz-adv-x="1879" d="M1040 730l210 -365h-56l-187 354h-266v-354h-44v819h265q122 0 194 -65.5t72 -167.5q0 -84 -47.5 -139.5t-94.5 -68.5zM741 1139v-375h221q106 0 164 51.5t58 135.5t-58 136t-164 52h-221zM1725 774.5q0 -331.5 -230 -564t-555 -232.5t-555.5 232.5t-230.5 564 t230.5 563.5t555.5 232t555 -232t230 -563.5zM1680 774.5q0 314.5 -216.5 533t-523.5 218.5t-524 -218.5t-217 -533t217 -533.5t524 -219t523.5 219t216.5 533.5z" />
<glyph unicode="&#xaf;" horiz-adv-x="684" d="M619 1493v-45h-553v45h553z" />
<glyph unicode="&#xb0;" horiz-adv-x="751" d="M110 1305.5q0 108.5 79 186.5t187.5 78t187 -78t78.5 -186.5t-78.5 -187t-187 -78.5t-187.5 78.5t-79 187zM597 1304.5q0 90.5 -65 156t-156 65.5t-156.5 -65.5t-65.5 -156t65.5 -155.5t156.5 -65t156 65t65 155.5z" />
<glyph unicode="&#xb1;" horiz-adv-x="1105" d="M110 154v45h886v-45h-886zM575 365h-44v454h-421v44h421v431h44v-431h421v-44h-421v-454z" />
<glyph unicode="&#xb2;" horiz-adv-x="596" d="M531 996h-487q0 82 45.5 149t111 113.5t130.5 89.5t110.5 99.5t45.5 122.5q0 68 -53.5 117.5t-135.5 49.5q-68 0 -117.5 -37t-66.5 -72l-15 -35l-44 11q2 6 6.5 18t24.5 43.5t45.5 54.5t69.5 42t97 19q97 0 165 -63t68 -148q0 -73 -41 -132.5t-102 -102.5t-124 -83 t-114 -94t-61 -118h442v-44z" />
<glyph unicode="&#xb3;" horiz-adv-x="618" d="M399 1404l16 -5q9 -4 35.5 -18t47.5 -34t38 -57.5t17 -84.5q0 -93 -68.5 -157t-174.5 -64q-49 0 -95.5 12.5t-75.5 30t-52 36t-34 30.5l-9 13l34 33q8 -13 25 -30.5t77.5 -49t129.5 -31.5q89 0 144 51.5t55 126.5t-55 125.5t-144 50.5h-111v45h99q82 0 129.5 43 t47.5 111.5t-47.5 112t-129.5 43.5q-59 0 -109 -25.5t-69 -50.5l-21 -24l-33 33q9 13 25.5 30.5t77.5 49t129 31.5q97 0 159 -58t62 -142q0 -38 -11.5 -69.5t-29.5 -50.5t-37 -32t-30 -17z" />
<glyph unicode="&#xb4;" horiz-adv-x="353" d="M66 1260l166 266h55l-177 -266h-44z" />
<glyph unicode="&#xb5;" horiz-adv-x="1304" d="M1007 177v78q-5 -11 -13 -30.5t-39 -67t-70.5 -83.5t-110.5 -66t-155 -30q-78 0 -144 24.5t-104.5 57.5t-66.5 67.5t-38 58.5l-11 25v-675h-44v1526h44v-642q0 -179 102.5 -288.5t262 -109.5t273.5 121t114 300v619h44v-885q0 -66 36 -105t97 -39l66 11v-44 q-22 -11 -66 -11q-76 0 -126.5 53t-50.5 135z" />
<glyph unicode="&#xb6;" horiz-adv-x="1105" d="M464 -221v1106q-132 0 -231.5 99.5t-99.5 232t99.5 232.5t231.5 100h376v-1770h-44v1725h-287v-1725h-45z" />
<glyph unicode="&#xb7;" horiz-adv-x="397" d="M154 553q0 17 13.5 30.5t31.5 13.5t31 -13.5t13 -30.5t-13 -30.5t-31 -13.5t-31.5 13.5t-13.5 30.5z" />
<glyph unicode="&#xb8;" horiz-adv-x="475" d="M243 44h33l-88 -177q22 11 67 11q66 0 110 -44.5t44 -109.5q0 -69 -53 -118t-135 -49q-40 0 -78.5 13.5t-58.5 26.5l-18 16l23 33q55 -45 132 -45q64 0 104 36t40 87q0 122 -122 122q-19 0 -38 -6t-28 -13l-11 -4l-22 23z" />
<glyph unicode="&#xb9;" horiz-adv-x="408" d="M243 1769h33v-773h-44v696q-4 -8 -15.5 -24t-54 -43.5t-96.5 -31.5v44q53 5 97.5 37.5t62.5 64.5z" />
<glyph unicode="&#xba;" horiz-adv-x="773" d="M707 1227.5q0 -148.5 -92.5 -245.5t-227.5 -97t-228 97t-93 245.5t93 245.5t228 97t227.5 -97t92.5 -245.5zM663 1227.5q0 130.5 -79.5 214.5t-196.5 84t-197 -84t-80 -214.5t80 -214.5t197 -84t196.5 84t79.5 214.5z" />
<glyph unicode="&#xbb;" horiz-adv-x="884" d="M464 199l243 332l-243 332h45l243 -332l-243 -332h-45zM133 199l243 332l-243 332h44l243 -332l-243 -332h-44z" />
<glyph unicode="&#xbc;" horiz-adv-x="1481" d="M177 0l973 1549h44l-973 -1549h-44zM266 1549h32v-775h-43v697q-4 -9 -15.5 -24.5t-55 -43t-95.5 -31.5v44q52 4 96.5 37t61.5 64zM1260 255h112v-44h-112v-211h-44v211h-397v44l386 519h55v-519zM1216 255v475l-353 -475h353z" />
<glyph unicode="&#xbd;" horiz-adv-x="1526" d="M177 0l973 1549h44l-973 -1549h-44zM266 1549h32v-775h-43v697q-4 -9 -15.5 -24.5t-55 -43t-95.5 -31.5v44q52 4 96.5 37t61.5 64zM1416 0h-487q0 82 45.5 149.5t110.5 114t130.5 89.5t111 99.5t45.5 122.5q0 68 -53.5 117t-134.5 49q-68 0 -118.5 -37t-65.5 -71l-16 -36 l-44 11q2 7 6.5 19t24.5 43t45.5 54t70 42t97.5 19q97 0 164.5 -63t67.5 -147q0 -74 -41 -133.5t-102 -102.5t-124 -82.5t-114 -94t-62 -118.5h443v-44z" />
<glyph unicode="&#xbe;" horiz-adv-x="1614" d="M310 0l973 1549h44l-973 -1549h-44zM420 1184q7 -2 17 -6t36.5 -18t47.5 -34t37.5 -58t16.5 -84q0 -93 -68.5 -156.5t-174.5 -63.5q-49 0 -95.5 11.5t-75 29.5t-52 37t-33.5 30l-10 13l33 33q9 -13 25.5 -31t78 -48.5t129.5 -30.5q88 0 143.5 50.5t55.5 125.5t-55.5 126 t-143.5 51h-111v44h100q82 0 129.5 43.5t47.5 112t-47.5 111.5t-129.5 43q-60 0 -109.5 -25.5t-70.5 -49.5l-19 -24l-33 32q8 13 25 31t77.5 49.5t129.5 31.5q97 0 159 -58t62 -141q0 -38 -12.5 -70.5t-30 -51.5t-36 -32t-30.5 -17zM1393 255h111v-44h-111v-211h-44v211 h-398v44l387 519h55v-519zM1349 255v475l-353 -475h353z" />
<glyph unicode="&#xbf;" horiz-adv-x="983" d="M586 741v-99q0 -104 -46 -187t-114 -139.5t-134 -111t-112.5 -128.5t-46.5 -165q0 -145 115 -249.5t294 -104.5q95 0 171 31.5t117.5 75.5t67.5 87.5t35 73.5l7 31l44 -10q-2 -13 -8.5 -36t-38.5 -80t-76.5 -101.5t-128.5 -80t-190 -35.5q-194 0 -323.5 119t-129.5 279 q0 98 46 176.5t112.5 133.5t134 110.5t114 134t46.5 176.5v99h44zM608 1017.5q0 -17.5 -14 -31t-29.5 -13.5t-30.5 13.5t-15 31t15 31t30.5 13.5t29.5 -13.5t14 -31z" />
<glyph unicode="&#xc0;" horiz-adv-x="1459" d="M752 1549l641 -1549h-44l-199 487h-840l-200 -487h-44l641 1549h45zM1128 531l-398 962l-398 -962h796zM575 2057l166 -265h-44l-178 265h56z" />
<glyph unicode="&#xc1;" horiz-adv-x="1459" d="M752 1549l641 -1549h-44l-199 487h-840l-200 -487h-44l641 1549h45zM1128 531l-398 962l-398 -962h796zM719 1769l166 266h55l-176 -266h-45z" />
<glyph unicode="&#xc2;" horiz-adv-x="1459" d="M752 1549l641 -1549h-44l-199 487h-840l-200 -487h-44l641 1549h45zM1128 531l-398 962l-398 -962h796zM475 1769l232 266h45l232 -266h-55l-199 232l-199 -232h-56z" />
<glyph unicode="&#xc3;" horiz-adv-x="1459" d="M752 1549l641 -1549h-44l-199 487h-840l-200 -487h-44l641 1549h45zM1128 531l-398 962l-398 -962h796zM885 1769q-69 0 -146.5 88.5t-130.5 88.5q-99 0 -99 -177h-45q0 110 41 165.5t103 55.5q68 0 146 -88.5t131 -88.5q99 0 99 177h44q0 -110 -41 -165.5t-102 -55.5z " />
<glyph unicode="&#xc4;" horiz-adv-x="1459" d="M752 1549l641 -1549h-44l-199 487h-840l-200 -487h-44l641 1549h45zM1128 531l-398 962l-398 -962h796zM509 1902.5q0 17.5 13.5 30.5t30.5 13t30.5 -13t13.5 -30.5t-13.5 -31t-30.5 -13.5t-30.5 13.5t-13.5 31zM863 1902.5q0 17.5 13 30.5t30.5 13t31 -13t13.5 -30.5 t-13.5 -31t-31 -13.5t-30.5 13.5t-13 31z" />
<glyph unicode="&#xc5;" horiz-adv-x="1459" d="M752 1549l641 -1549h-44l-199 487h-840l-200 -487h-44l641 1549h45zM1128 531l-398 962l-398 -962h796zM885 1902.5q0 66.5 -44.5 110.5t-111 44t-110.5 -44t-44 -110.5t44 -111t110.5 -44.5t111 44.5t44.5 111zM531 1902q0 84 57.5 142t141.5 58t141.5 -58t57.5 -142 t-57.5 -141.5t-141.5 -57.5t-141.5 57.5t-57.5 141.5z" />
<glyph unicode="&#xc6;" horiz-adv-x="2056" d="M-44 0l863 1549h1127v-45h-840v-675h663v-44h-663v-741h863v-44h-907v509h-775l-287 -509h-44zM840 1504l-530 -951h752v951h-222z" />
<glyph unicode="&#xc7;" horiz-adv-x="1647" d="M1504 342l33 -21q-9 -13 -25.5 -36.5t-75 -83.5t-126 -104t-177 -81.5t-226.5 -37.5l-56 -111q22 11 67 11q66 0 110 -44.5t44 -109.5q0 -69 -52.5 -118t-134.5 -49q-40 0 -78.5 13.5t-59.5 26.5l-17 16l22 33q55 -45 133 -45q63 0 103 36t40 87q0 122 -121 122 q-19 0 -38.5 -6t-28.5 -13l-11 -4l-21 23l66 132q-310 18 -525.5 247t-215.5 549q0 330 229 563t545 233q118 0 226 -35t178.5 -86t123.5 -101t78 -85l24 -35l-33 -23q-8 13 -24 34t-71.5 77t-119 99t-168 77t-214.5 34q-301 0 -515.5 -218.5t-214.5 -533t214.5 -533.5 t515.5 -219q110 0 213.5 33.5t169 79.5t117 93.5t75.5 81.5z" />
<glyph unicode="&#xc8;" horiz-adv-x="1382" d="M310 44h984v-44h-1028v1549h1006v-45h-962v-675h785v-44h-785v-741zM642 2057l166 -265h-44l-178 265h56z" />
<glyph unicode="&#xc9;" horiz-adv-x="1382" d="M310 44h984v-44h-1028v1549h1006v-45h-962v-675h785v-44h-785v-741zM730 1769l165 266h56l-177 -266h-44z" />
<glyph unicode="&#xca;" horiz-adv-x="1382" d="M310 44h984v-44h-1028v1549h1006v-45h-962v-675h785v-44h-785v-741zM509 1769l232 266h44l232 -266h-55l-198 232l-200 -232h-55z" />
<glyph unicode="&#xcb;" horiz-adv-x="1382" d="M310 44h984v-44h-1028v1549h1006v-45h-962v-675h785v-44h-785v-741zM542 1902.5q0 17.5 14 30.5t30 13t30.5 -13t14.5 -30.5t-14.5 -31t-30.5 -13.5t-30 13.5t-14 31zM895 1902.5q0 17.5 14.5 30.5t30.5 13t30 -13t14 -30.5t-14 -31t-30 -13.5t-30.5 13.5t-14.5 31z" />
<glyph unicode="&#xcc;" horiz-adv-x="574" d="M266 0v1549h44v-1549h-44zM144 2057l166 -265h-44l-177 265h55z" />
<glyph unicode="&#xcd;" horiz-adv-x="574" d="M266 0v1549h44v-1549h-44zM266 1769l165 266h56l-177 -266h-44z" />
<glyph unicode="&#xce;" horiz-adv-x="574" d="M266 0v1549h44v-1549h-44zM33 1769l233 266h44l232 -266h-55l-200 232l-198 -232h-56z" />
<glyph unicode="&#xcf;" horiz-adv-x="574" d="M266 0v1549h44v-1549h-44zM66 1902.5q0 17.5 13.5 30.5t31.5 13t30.5 -13t12.5 -30.5t-12.5 -31t-30.5 -13.5t-31.5 13.5t-13.5 31zM420 1902.5q0 17.5 13.5 30.5t31 13t31 -13t13.5 -30.5t-13.5 -31t-31 -13.5t-31 13.5t-13.5 31z" />
<glyph unicode="&#xd0;" horiz-adv-x="1647" d="M66 752v44h232v753h409q355 0 581.5 -220.5t226.5 -554t-226.5 -554t-581.5 -220.5h-409v752h-232zM342 44h365q338 0 551 206t213 524.5t-212 524t-552 205.5h-365v-708h410v-44h-410v-708z" />
<glyph unicode="&#xd1;" horiz-adv-x="1713" d="M1404 1549h44v-1549h-32l-1106 1460v-1460h-44v1549h32l1106 -1460v1460zM1007 1769q-68 0 -146 88.5t-131 88.5q-99 0 -99 -177h-45q0 110 40.5 165.5t103.5 55.5q68 0 146 -88.5t131 -88.5q99 0 99 177h44q0 -110 -41 -165.5t-102 -55.5z" />
<glyph unicode="&#xd2;" horiz-adv-x="1813" d="M1637 774.5q0 314.5 -215 533t-515.5 218.5t-515 -218.5t-214.5 -533t214.5 -533.5t515 -219t515.5 219t215 533.5zM1680 774.5q0 -329.5 -228 -563t-544.5 -233.5t-545.5 233.5t-229 563t229 562.5t545.5 233t544.5 -233t228 -562.5zM785 2057l166 -265h-44l-177 265h55 z" />
<glyph unicode="&#xd3;" horiz-adv-x="1813" d="M1637 774.5q0 314.5 -215 533t-515.5 218.5t-515 -218.5t-214.5 -533t214.5 -533.5t515 -219t515.5 219t215 533.5zM1680 774.5q0 -329.5 -228 -563t-544.5 -233.5t-545.5 233.5t-229 563t229 562.5t545.5 233t544.5 -233t228 -562.5zM907 1769l165 266h56l-177 -266h-44 z" />
<glyph unicode="&#xd4;" horiz-adv-x="1813" d="M1637 774.5q0 314.5 -215 533t-515.5 218.5t-515 -218.5t-214.5 -533t214.5 -533.5t515 -219t515.5 219t215 533.5zM1680 774.5q0 -329.5 -228 -563t-544.5 -233.5t-545.5 233.5t-229 563t229 562.5t545.5 233t544.5 -233t228 -562.5zM652 1769l233 266h44l232 -266h-55 l-199 232l-200 -232h-55z" />
<glyph unicode="&#xd5;" horiz-adv-x="1813" d="M1637 774.5q0 314.5 -215 533t-515.5 218.5t-515 -218.5t-214.5 -533t214.5 -533.5t515 -219t515.5 219t215 533.5zM1680 774.5q0 -329.5 -228 -563t-544.5 -233.5t-545.5 233.5t-229 563t229 562.5t545.5 233t544.5 -233t228 -562.5zM1047 1769q-69 0 -146.5 88.5 t-130.5 88.5q-99 0 -99 -177h-45q0 110 40.5 165.5t103.5 55.5q68 0 146 -88.5t131 -88.5q99 0 99 177h44q0 -110 -41 -165.5t-102 -55.5z" />
<glyph unicode="&#xd6;" horiz-adv-x="1813" d="M1637 774.5q0 314.5 -215 533t-515.5 218.5t-515 -218.5t-214.5 -533t214.5 -533.5t515 -219t515.5 219t215 533.5zM1680 774.5q0 -329.5 -228 -563t-544.5 -233.5t-545.5 233.5t-229 563t229 562.5t545.5 233t544.5 -233t228 -562.5zM686 1902.5q0 17.5 13 30.5t30.5 13 t31 -13t13.5 -30.5t-13.5 -31t-31 -13.5t-30.5 13.5t-13 31zM1040 1902.5q0 17.5 13 30.5t31 13t31 -13t13 -30.5t-13 -31t-31 -13.5t-31 13.5t-13 31z" />
<glyph unicode="&#xd7;" horiz-adv-x="950" d="M819 1007l-310 -321l310 -321l-34 -33l-310 320l-309 -320l-33 33l310 321l-310 321l33 33l309 -321l310 321z" />
<glyph unicode="&#xd8;" horiz-adv-x="1813" d="M376 255l1028 1072q-6 9 -21.5 22.5t-64 47.5t-103 60.5t-138 47.5t-170.5 21q-301 0 -515.5 -218.5t-214.5 -533.5q0 -90 21 -176.5t49.5 -146.5t57.5 -106.5t49 -68.5zM1680 774q0 -329 -228 -562.5t-545 -233.5q-141 0 -274 53t-195 106l-62 51l-199 -210l-33 33 l198 210q-8 9 -22 26t-50 73t-63.5 117t-50.5 152.5t-23 184.5q0 330 229 563t545 233q142 0 274.5 -53t194.5 -105l61 -51l200 209l33 -33l-199 -210q9 -8 23.5 -25t49.5 -73.5t62.5 -117t50.5 -152.5t23 -185zM1437 1294l-1028 -1073q7 -8 22.5 -21.5t64 -47.5t102.5 -61 t138.5 -48t170.5 -21q302 0 516 219t214 533q0 91 -21 177.5t-50 146t-57.5 106t-48.5 68.5z" />
<glyph unicode="&#xd9;" horiz-adv-x="1658" d="M829.5 22q225.5 0 384 163t158.5 401v963h44v-963q0 -254 -172 -431t-415 -177t-414.5 177t-171.5 431v963h44v-963q0 -238 158.5 -401t384 -163zM697 2057l166 -265h-44l-177 265h55z" />
<glyph unicode="&#xda;" horiz-adv-x="1658" d="M829.5 22q225.5 0 384 163t158.5 401v963h44v-963q0 -254 -172 -431t-415 -177t-414.5 177t-171.5 431v963h44v-963q0 -238 158.5 -401t384 -163zM796 1769l166 266h55l-177 -266h-44z" />
<glyph unicode="&#xdb;" horiz-adv-x="1658" d="M829.5 22q225.5 0 384 163t158.5 401v963h44v-963q0 -254 -172 -431t-415 -177t-414.5 177t-171.5 431v963h44v-963q0 -238 158.5 -401t384 -163zM575 1769l233 266h43l233 -266h-56l-199 232l-198 -232h-56z" />
<glyph unicode="&#xdc;" horiz-adv-x="1658" d="M829.5 22q225.5 0 384 163t158.5 401v963h44v-963q0 -254 -172 -431t-415 -177t-414.5 177t-171.5 431v963h44v-963q0 -238 158.5 -401t384 -163zM608 1902.5q0 17.5 14.5 30.5t29.5 13t30 -13t15 -30.5t-15 -31t-30 -13.5t-29.5 13.5t-14.5 31zM962 1902.5 q0 17.5 14.5 30.5t30 13t30 -13t14.5 -30.5t-14.5 -31t-30 -13.5t-30 13.5t-14.5 31z" />
<glyph unicode="&#xdd;" d="M122 1549l541 -963l542 963h55l-574 -1007v-542h-44v542l-576 1007h56zM652 1769l167 266h55l-177 -266h-45z" />
<glyph unicode="&#xde;" horiz-adv-x="1404" d="M310 1294v-996h387q230 0 380.5 144t150.5 354.5t-150.5 354t-380.5 143.5h-387zM310 1338h387q245 0 410 -158t165 -384t-165 -383.5t-410 -157.5h-387v-299h-44v1637h44v-255z" />
<glyph unicode="&#xdf;" horiz-adv-x="1260" d="M764 851q15 -2 38 -9.5t84 -39.5t107.5 -74t85 -122t38.5 -175q0 -177 -133 -304t-321 -127h-66v44h66q173 0 291 114t118 273.5t-118 273.5t-291 114h-66v44h11q148 0 251 98t103 233t-103 233.5t-251 98.5t-250.5 -98.5t-102.5 -233.5v-1194h-44v1194q0 151 117 263.5 t280.5 112.5t281 -112.5t117.5 -263.5q0 -71 -25.5 -132.5t-61 -98t-71 -63t-62.5 -37.5z" />
<glyph unicode="&#xe0;" horiz-adv-x="1116" d="M840 652v34q0 154 -95 254t-236 100q-93 0 -173.5 -42t-114.5 -82l-33 -42l-34 33q5 7 15 18.5t43 43t71 55t100 42t126 18.5q158 0 267 -112.5t109 -285.5v-686h-45v255q-4 -11 -11.5 -30.5t-40 -67t-72 -83.5t-114 -66t-159.5 -30q-152 0 -253 89.5t-101 208.5 q0 118 80 195.5t230 103.5zM443 22q168 0 282.5 119.5t114.5 301.5v165l-441 -77q-266 -46 -266 -255q0 -103 86.5 -178.5t223.5 -75.5zM399 1549l165 -266h-45l-177 266h57z" />
<glyph unicode="&#xe1;" horiz-adv-x="1116" d="M840 652v34q0 154 -95 254t-236 100q-93 0 -173.5 -42t-114.5 -82l-33 -42l-34 33q5 7 15 18.5t43 43t71 55t100 42t126 18.5q158 0 267 -112.5t109 -285.5v-686h-45v255q-4 -11 -11.5 -30.5t-40 -67t-72 -83.5t-114 -66t-159.5 -30q-152 0 -253 89.5t-101 208.5 q0 118 80 195.5t230 103.5zM443 22q168 0 282.5 119.5t114.5 301.5v165l-441 -77q-266 -46 -266 -255q0 -103 86.5 -178.5t223.5 -75.5zM509 1260l166 266h55l-177 -266h-44z" />
<glyph unicode="&#xe2;" horiz-adv-x="1116" d="M840 652v34q0 154 -95 254t-236 100q-93 0 -173.5 -42t-114.5 -82l-33 -42l-34 33q5 7 15 18.5t43 43t71 55t100 42t126 18.5q158 0 267 -112.5t109 -285.5v-686h-45v255q-4 -11 -11.5 -30.5t-40 -67t-72 -83.5t-114 -66t-159.5 -30q-152 0 -253 89.5t-101 208.5 q0 118 80 195.5t230 103.5zM443 22q168 0 282.5 119.5t114.5 301.5v165l-441 -77q-266 -46 -266 -255q0 -103 86.5 -178.5t223.5 -75.5zM287 1260l232 266h45l232 -266h-55l-199 233l-200 -233h-55z" />
<glyph unicode="&#xe3;" horiz-adv-x="1116" d="M840 652v34q0 154 -95 254t-236 100q-93 0 -173.5 -42t-114.5 -82l-33 -42l-34 33q5 7 15 18.5t43 43t71 55t100 42t126 18.5q158 0 267 -112.5t109 -285.5v-686h-45v255q-4 -11 -11.5 -30.5t-40 -67t-72 -83.5t-114 -66t-159.5 -30q-152 0 -253 89.5t-101 208.5 q0 118 80 195.5t230 103.5zM443 22q168 0 282.5 119.5t114.5 301.5v165l-441 -77q-266 -46 -266 -255q0 -103 86.5 -178.5t223.5 -75.5zM697 1260q-68 0 -146 88.5t-131 88.5q-99 0 -99 -177h-45q0 111 41.5 166.5t102.5 55.5q68 0 146 -88.5t131 -88.5q99 0 99 177h44 q0 -110 -41 -166t-102 -56z" />
<glyph unicode="&#xe4;" horiz-adv-x="1116" d="M840 652v34q0 154 -95 254t-236 100q-93 0 -173.5 -42t-114.5 -82l-33 -42l-34 33q5 7 15 18.5t43 43t71 55t100 42t126 18.5q158 0 267 -112.5t109 -285.5v-686h-45v255q-4 -11 -11.5 -30.5t-40 -67t-72 -83.5t-114 -66t-159.5 -30q-152 0 -253 89.5t-101 208.5 q0 118 80 195.5t230 103.5zM443 22q168 0 282.5 119.5t114.5 301.5v165l-441 -77q-266 -46 -266 -255q0 -103 86.5 -178.5t223.5 -75.5zM321 1394q0 18 14.5 30.5t29.5 12.5t29.5 -12.5t14.5 -30.5t-14.5 -31.5t-29.5 -13.5t-29.5 13.5t-14.5 31.5zM675 1394q0 18 14 30.5 t29.5 12.5t30.5 -12.5t15 -30.5t-15 -31.5t-30.5 -13.5t-29.5 13.5t-14 31.5z" />
<glyph unicode="&#xe5;" horiz-adv-x="1116" d="M840 652v34q0 154 -95 254t-236 100q-93 0 -173.5 -42t-114.5 -82l-33 -42l-34 33q5 7 15 18.5t43 43t71 55t100 42t126 18.5q158 0 267 -112.5t109 -285.5v-686h-45v255q-4 -11 -11.5 -30.5t-40 -67t-72 -83.5t-114 -66t-159.5 -30q-152 0 -253 89.5t-101 208.5 q0 118 80 195.5t230 103.5zM443 22q168 0 282.5 119.5t114.5 301.5v165l-441 -77q-266 -46 -266 -255q0 -103 86.5 -178.5t223.5 -75.5zM697 1415.5q0 66.5 -44.5 110.5t-111 44t-110.5 -44t-44 -110.5t44 -111t110.5 -44.5t111 44.5t44.5 111zM342 1416q0 84 59 141.5 t141 57.5t140.5 -57.5t58.5 -141.5t-58.5 -142t-140.5 -58t-141 58t-59 142z" />
<glyph unicode="&#xe6;" horiz-adv-x="1868" d="M1747 531h-862q8 -228 131 -368.5t301 -140.5q63 0 124 21t100.5 50t70 57.5t43.5 48.5l15 22l33 -22q-4 -9 -15.5 -24.5t-47.5 -53t-77 -66t-108.5 -53t-137.5 -24.5q-96 0 -178 36.5t-128.5 88t-80 104t-45.5 89.5l-11 36q-2 -16 -10 -39t-40 -84t-76.5 -107.5 t-125 -85t-179.5 -38.5q-152 0 -253 89.5t-101 208.5q0 129 93.5 214t248.5 85h409v111q0 154 -95 254t-236 100q-93 0 -173.5 -42t-114.5 -82l-33 -42l-34 33q5 7 15 18.5t43 43t71 55t100 42t126 18.5q90 0 160 -34.5t107.5 -83t61 -97t29.5 -82.5l7 -35q4 13 13.5 35.5 t47.5 79.5t82.5 101.5t118.5 80t158 35.5q173 0 313 -157t140 -374v-22zM443 22q168 0 282.5 119.5t114.5 301.5v88h-409q-137 0 -217.5 -72t-80.5 -183q0 -103 86.5 -178.5t223.5 -75.5zM1294 1040q-159 0 -284 -142t-125 -323h818q-8 194 -132.5 329.5t-276.5 135.5z" />
<glyph unicode="&#xe7;" horiz-adv-x="1149" d="M166 531q0 -212 139.5 -360.5t325.5 -148.5q108 0 198.5 50t128.5 101l38 48l32 -22q-4 -9 -15 -24.5t-48.5 -53t-80 -66t-111 -53t-142.5 -24.5l-56 -111q21 11 67 11q65 0 109.5 -44.5t44.5 -109.5q0 -69 -53 -118t-135 -49q-40 0 -78.5 13.5t-56.5 26.5l-19 16l21 33 q55 -45 133 -45q64 0 104 36t40 87q0 122 -121 122q-20 0 -39.5 -6t-29.5 -13l-9 -4l-22 23l66 132q-188 9 -331.5 168.5t-143.5 384.5q0 228 152.5 390.5t356.5 162.5q75 0 142 -23t112.5 -55.5t79 -64.5t48.5 -56l15 -22l-32 -23q-5 9 -15 22.5t-44 47.5t-73 61t-102 48 t-131 21q-186 0 -325.5 -148.5t-139.5 -360.5z" />
<glyph unicode="&#xe8;" horiz-adv-x="1216" d="M1095 509h-929q9 -206 145 -346.5t320 -140.5q108 0 198.5 50t128.5 101l38 48l32 -22q-4 -9 -15 -24.5t-48.5 -53t-80 -66t-111 -53t-142.5 -24.5q-203 0 -356 162.5t-153 390.5q0 235 146 394t340 159t340.5 -159t146.5 -394v-22zM608 1040q-177 0 -309.5 -142 t-132.5 -345h885q0 203 -133 345t-310 142zM487 1549l165 -266h-44l-177 266h56z" />
<glyph unicode="&#xe9;" horiz-adv-x="1216" d="M1095 509h-929q9 -206 145 -346.5t320 -140.5q108 0 198.5 50t128.5 101l38 48l32 -22q-4 -9 -15 -24.5t-48.5 -53t-80 -66t-111 -53t-142.5 -24.5q-203 0 -356 162.5t-153 390.5q0 235 146 394t340 159t340.5 -159t146.5 -394v-22zM608 1040q-177 0 -309.5 -142 t-132.5 -345h885q0 203 -133 345t-310 142zM586 1260l166 266h56l-177 -266h-45z" />
<glyph unicode="&#xea;" horiz-adv-x="1216" d="M1095 509h-929q9 -206 145 -346.5t320 -140.5q108 0 198.5 50t128.5 101l38 48l32 -22q-4 -9 -15 -24.5t-48.5 -53t-80 -66t-111 -53t-142.5 -24.5q-203 0 -356 162.5t-153 390.5q0 235 146 394t340 159t340.5 -159t146.5 -394v-22zM608 1040q-177 0 -309.5 -142 t-132.5 -345h885q0 203 -133 345t-310 142zM365 1260l232 266h45l232 -266h-55l-200 233l-199 -233h-55z" />
<glyph unicode="&#xeb;" horiz-adv-x="1216" d="M1095 509h-929q9 -206 145 -346.5t320 -140.5q108 0 198.5 50t128.5 101l38 48l32 -22q-4 -9 -15 -24.5t-48.5 -53t-80 -66t-111 -53t-142.5 -24.5q-203 0 -356 162.5t-153 390.5q0 235 146 394t340 159t340.5 -159t146.5 -394v-22zM608 1040q-177 0 -309.5 -142 t-132.5 -345h885q0 203 -133 345t-310 142zM399 1394q0 18 12.5 30.5t30.5 12.5t31.5 -12.5t13.5 -30.5t-13.5 -31.5t-31.5 -13.5t-30.5 13.5t-12.5 31.5zM752 1394q0 18 13.5 30.5t31 12.5t30.5 -12.5t13 -30.5t-13 -31.5t-30.5 -13.5t-31 13.5t-13.5 31.5z" />
<glyph unicode="&#xec;" horiz-adv-x="486" d="M255 1062v-1062h-44v1062h44zM89 1549l166 -266h-44l-178 266h56z" />
<glyph unicode="&#xed;" horiz-adv-x="486" d="M255 1062v-1062h-44v1062h44zM211 1260l165 266h55l-176 -266h-44z" />
<glyph unicode="&#xee;" horiz-adv-x="486" d="M255 1062v-1062h-44v1062h44zM-22 1260l233 266h44l232 -266h-56l-199 233l-199 -233h-55z" />
<glyph unicode="&#xef;" horiz-adv-x="486" d="M255 1062v-1062h-44v1062h44zM11 1394q0 18 14.5 30.5t30 12.5t29.5 -12.5t14 -30.5t-14 -31.5t-29.5 -13.5t-30 13.5t-14.5 31.5zM365 1394q0 18 14.5 30.5t29.5 12.5t30 -12.5t15 -30.5t-15 -31.5t-30 -13.5t-29.5 13.5t-14.5 31.5z" />
<glyph unicode="&#xf0;" horiz-adv-x="1249" d="M885 1692l-243 -177q17 -11 48 -33t109.5 -102t138.5 -172.5t108.5 -245t48.5 -320.5q0 -310 -143.5 -487t-354.5 -177q-186 0 -330.5 153.5t-144.5 366.5q0 210 142.5 364.5t321.5 154.5q102 0 187.5 -38.5t135 -94t83.5 -110.5t48 -93l11 -39q0 162 -45.5 308.5 t-109.5 240.5t-131.5 166t-110 104t-46.5 32l-254 -188l-22 33l243 177q-68 45 -143.5 80t-115.5 51l-40 13l22 33q144 -44 310 -155l255 188zM1028 497.5q0 194.5 -130 335t-300.5 140.5t-301 -140.5t-130.5 -335t130.5 -335t301 -140.5t300.5 140.5t130 335z" />
<glyph unicode="&#xf1;" horiz-adv-x="1281" d="M255 1062v-266q4 11 11.5 31t39.5 70t72 87.5t114 68.5t160 31q177 0 298.5 -128.5t121.5 -324.5v-631h-44v631q0 179 -108 294t-268 115q-168 0 -282.5 -122t-114.5 -310v-608h-44v1062h44zM792 1260q-68 0 -146 88.5t-131 88.5q-99 0 -99 -177h-44q0 111 41 166.5 t102 55.5q68 0 146 -88.5t131 -88.5q99 0 99 177h44q0 -110 -41 -166t-102 -56z" />
<glyph unicode="&#xf2;" horiz-adv-x="1281" d="M1095 531q0 212 -139.5 360.5t-325 148.5t-325 -148.5t-139.5 -360.5t139.5 -360.5t325 -148.5t325 148.5t139.5 360.5zM1139 530.5q0 -227.5 -152.5 -390t-356 -162.5t-356 162.5t-152.5 390t152.5 390.5t356 163t356 -163t152.5 -390.5zM498 1549l165 -266h-44 l-176 266h55z" />
<glyph unicode="&#xf3;" horiz-adv-x="1281" d="M1095 531q0 212 -139.5 360.5t-325 148.5t-325 -148.5t-139.5 -360.5t139.5 -360.5t325 -148.5t325 148.5t139.5 360.5zM1139 530.5q0 -227.5 -152.5 -390t-356 -162.5t-356 162.5t-152.5 390t152.5 390.5t356 163t356 -163t152.5 -390.5zM608 1260l166 266h55l-177 -266 h-44z" />
<glyph unicode="&#xf4;" horiz-adv-x="1281" d="M1095 531q0 212 -139.5 360.5t-325 148.5t-325 -148.5t-139.5 -360.5t139.5 -360.5t325 -148.5t325 148.5t139.5 360.5zM1139 530.5q0 -227.5 -152.5 -390t-356 -162.5t-356 162.5t-152.5 390t152.5 390.5t356 163t356 -163t152.5 -390.5zM376 1260l232 266h44l233 -266 h-56l-198 233l-200 -233h-55z" />
<glyph unicode="&#xf5;" horiz-adv-x="1281" d="M1095 531q0 212 -139.5 360.5t-325 148.5t-325 -148.5t-139.5 -360.5t139.5 -360.5t325 -148.5t325 148.5t139.5 360.5zM1139 530.5q0 -227.5 -152.5 -390t-356 -162.5t-356 162.5t-152.5 390t152.5 390.5t356 163t356 -163t152.5 -390.5zM770 1260q-68 0 -146 88.5 t-130 88.5q-100 0 -100 -177h-44q0 111 40.5 166.5t103.5 55.5q68 0 145.5 -88.5t130.5 -88.5q99 0 99 177h45q0 -110 -41 -166t-103 -56z" />
<glyph unicode="&#xf6;" horiz-adv-x="1281" d="M1095 531q0 212 -139.5 360.5t-325 148.5t-325 -148.5t-139.5 -360.5t139.5 -360.5t325 -148.5t325 148.5t139.5 360.5zM1139 530.5q0 -227.5 -152.5 -390t-356 -162.5t-356 162.5t-152.5 390t152.5 390.5t356 163t356 -163t152.5 -390.5zM409 1394q0 18 14.5 30.5 t30 12.5t30 -12.5t14.5 -30.5t-14.5 -31.5t-30 -13.5t-30 13.5t-14.5 31.5zM764 1394q0 18 14 30.5t29.5 12.5t29.5 -12.5t14 -30.5t-14 -31.5t-29.5 -13.5t-29.5 13.5t-14 31.5z" />
<glyph unicode="&#xf7;" horiz-adv-x="1083" d="M973 675v-44h-863v44h863zM498 1061.5q0 17.5 14 31t29.5 13.5t30 -13.5t14.5 -31t-14.5 -31t-30 -13.5t-29.5 13.5t-14 31zM498 243.5q0 17.5 14 30.5t29.5 13t30 -13t14.5 -30.5t-14.5 -31t-30 -13.5t-29.5 13.5t-14 31z" />
<glyph unicode="&#xf8;" horiz-adv-x="1281" d="M276 199l675 696q-12 15 -38 40t-110 65t-172 40q-186 0 -325.5 -148.5t-139.5 -360.5q0 -88 27.5 -171.5t53.5 -120.5zM1139 531q0 -228 -152.5 -390.5t-355.5 -162.5q-93 0 -179.5 38.5t-124.5 76.5l-40 40l-165 -166l-33 33l166 166q-4 7 -14.5 17.5t-32.5 47.5 t-40 77t-32 100.5t-14 122.5q0 228 152.5 390.5t356.5 162.5q93 0 178.5 -38.5t123.5 -76.5l40 -40l166 166l33 -33l-165 -167q4 -6 13.5 -17t32 -47.5t40 -76t32 -100.5t14.5 -123zM984 863l-674 -697q13 -15 38.5 -39.5t109.5 -64.5t173 -40q185 0 324.5 148.5 t139.5 360.5q0 89 -27.5 171.5t-54.5 120.5z" />
<glyph unicode="&#xf9;" horiz-adv-x="1304" d="M1028 0v266q-4 -11 -11.5 -31t-40 -70.5t-72 -87.5t-113.5 -68t-160 -31q-177 0 -298.5 128t-121.5 325v631h44v-631q0 -179 108 -294t268 -115q168 0 282.5 122t114.5 310v608h44v-1062h-44zM509 1549l166 -266h-44l-177 266h55z" />
<glyph unicode="&#xfa;" horiz-adv-x="1304" d="M1028 0v266q-4 -11 -11.5 -31t-40 -70.5t-72 -87.5t-113.5 -68t-160 -31q-177 0 -298.5 128t-121.5 325v631h44v-631q0 -179 108 -294t268 -115q168 0 282.5 122t114.5 310v608h44v-1062h-44zM608 1260l166 266h55l-177 -266h-44z" />
<glyph unicode="&#xfb;" horiz-adv-x="1304" d="M1028 0v266q-4 -11 -11.5 -31t-40 -70.5t-72 -87.5t-113.5 -68t-160 -31q-177 0 -298.5 128t-121.5 325v631h44v-631q0 -179 108 -294t268 -115q168 0 282.5 122t114.5 310v608h44v-1062h-44zM387 1260l232 266h44l232 -266h-55l-198 233l-199 -233h-56z" />
<glyph unicode="&#xfc;" horiz-adv-x="1304" d="M1028 0v266q-4 -11 -11.5 -31t-40 -70.5t-72 -87.5t-113.5 -68t-160 -31q-177 0 -298.5 128t-121.5 325v631h44v-631q0 -179 108 -294t268 -115q168 0 282.5 122t114.5 310v608h44v-1062h-44zM420 1394q0 18 13.5 30.5t31 12.5t31 -12.5t13.5 -30.5t-13.5 -31.5 t-31 -13.5t-31 13.5t-13.5 31.5zM774 1394q0 18 13 30.5t31 12.5t31.5 -12.5t13.5 -30.5t-13.5 -31.5t-31.5 -13.5t-31 13.5t-13 31.5z" />
<glyph unicode="&#xfd;" horiz-adv-x="1038" d="M387 -243l100 243l-432 1062h44l410 -1007l409 1007h44l-531 -1305q-89 -221 -254 -221q-25 0 -47 5t-33 12l-8 4v44q33 -21 88 -21q138 0 210 177zM498 1260l165 266h56l-177 -266h-44z" />
<glyph unicode="&#xfe;" d="M255 310v-774h-44v2013h44v-797q4 13 15 35.5t51 79.5t86.5 101.5t124.5 80t165 35.5q188 0 337.5 -164t149.5 -389t-149.5 -389t-337.5 -164q-87 0 -164 34t-125.5 83t-85.5 97.5t-52 81.5zM696.5 22q170.5 0 306.5 149.5t136 359.5t-136 359.5t-306.5 149.5 t-306 -149.5t-135.5 -359.5t135.5 -359.5t306 -149.5z" />
<glyph unicode="&#xff;" horiz-adv-x="1038" d="M387 -243l100 243l-432 1062h44l410 -1007l409 1007h44l-531 -1305q-89 -221 -254 -221q-25 0 -47 5t-33 12l-8 4v44q33 -21 88 -21q138 0 210 177zM287 1394q0 18 13.5 30.5t31.5 12.5t31 -12.5t13 -30.5t-13 -31.5t-31 -13.5t-31.5 13.5t-13.5 31.5zM642 1394 q0 18 12.5 30.5t30.5 12.5t31.5 -12.5t13.5 -30.5t-13.5 -31.5t-31.5 -13.5t-30.5 13.5t-12.5 31.5z" />
<glyph unicode="&#x152;" horiz-adv-x="2155" d="M1205 44h863v-44h-1128q-355 0 -581 220.5t-226 554t226.5 554t580.5 220.5h1106v-45h-841v-675h664v-44h-664v-741zM940 44h221v1460h-221q-338 0 -550.5 -205.5t-212.5 -524t212.5 -524.5t550.5 -206z" />
<glyph unicode="&#x153;" horiz-adv-x="2056" d="M1935 509h-863q9 -206 136.5 -346.5t295.5 -140.5q64 0 125 21t100.5 50t70 57.5t45.5 48.5l13 22l33 -22q-4 -9 -15.5 -24.5t-47.5 -53t-77 -66t-108.5 -53t-138.5 -24.5q-95 0 -178 39.5t-130.5 97.5t-83 114t-48.5 96l-13 40q-4 -15 -14.5 -42t-48 -93t-83.5 -117 t-129.5 -93t-178.5 -42q-188 0 -331.5 159t-143.5 394t143.5 394t331.5 159q95 0 178.5 -40t131 -97.5t82.5 -115t49 -97.5l13 -40q2 9 6.5 22.5t21 54.5t37.5 77.5t57.5 81.5t78.5 77.5t102 54.5t128 22q173 0 313 -161.5t140 -391.5v-22zM166 530.5q0 -216.5 129 -362.5 t302 -146t302 146t129 362.5t-129 363t-302 146.5t-302 -146.5t-129 -363zM1482 1040q-159 0 -284.5 -145t-125.5 -342h819q-9 211 -132 349t-277 138z" />
<glyph unicode="&#x178;" d="M122 1549l541 -963l542 963h55l-574 -1007v-542h-44v542l-576 1007h56zM443 1902.5q0 17.5 13 30.5t30.5 13t31 -13t13.5 -30.5t-13.5 -31t-31 -13.5t-30.5 13.5t-13 31zM796 1902.5q0 17.5 13.5 30.5t31.5 13t31 -13t13 -30.5t-13 -31t-31 -13.5t-31.5 13.5t-13.5 31z " />
<glyph unicode="&#x2c6;" horiz-adv-x="640" d="M66 1260l232 266h44l233 -266h-56l-198 233l-199 -233h-56z" />
<glyph unicode="&#x2dc;" horiz-adv-x="696" d="M487 1283q-68 0 -145.5 88.5t-130.5 88.5q-100 0 -101 -177h-44q0 110 41 165.5t104 55.5q68 0 145 -88.5t131 -88.5q99 0 99 177h45q0 -110 -41 -165.5t-103 -55.5z" />
<glyph unicode="&#x2000;" horiz-adv-x="1051" />
<glyph unicode="&#x2001;" horiz-adv-x="2102" />
<glyph unicode="&#x2002;" horiz-adv-x="1051" />
<glyph unicode="&#x2003;" horiz-adv-x="2102" />
<glyph unicode="&#x2004;" horiz-adv-x="700" />
<glyph unicode="&#x2005;" horiz-adv-x="525" />
<glyph unicode="&#x2006;" horiz-adv-x="350" />
<glyph unicode="&#x2007;" horiz-adv-x="350" />
<glyph unicode="&#x2008;" horiz-adv-x="262" />
<glyph unicode="&#x2009;" horiz-adv-x="420" />
<glyph unicode="&#x200a;" horiz-adv-x="116" />
<glyph unicode="&#x2010;" horiz-adv-x="928" d="M819 675v-44h-709v44h709z" />
<glyph unicode="&#x2011;" horiz-adv-x="928" d="M819 675v-44h-709v44h709z" />
<glyph unicode="&#x2012;" horiz-adv-x="928" d="M819 675v-44h-709v44h709z" />
<glyph unicode="&#x2013;" horiz-adv-x="1038" d="M929 675v-44h-819v44h819z" />
<glyph unicode="&#x2014;" horiz-adv-x="1570" d="M1460 675v-44h-1350v44h1350z" />
<glyph unicode="&#x2018;" horiz-adv-x="408" d="M144 1241l-55 33l209 321l23 -12z" />
<glyph unicode="&#x2019;" horiz-adv-x="408" d="M266 1595l55 -33l-211 -321l-21 11z" />
<glyph unicode="&#x201a;" horiz-adv-x="386" d="M177 89l55 -34l-210 -321l-22 11z" />
<glyph unicode="&#x201c;" horiz-adv-x="673" d="M409 1241l-55 33l210 321l22 -12zM144 1241l-55 33l209 321l23 -12z" />
<glyph unicode="&#x201d;" horiz-adv-x="673" d="M266 1595l55 -33l-211 -321l-21 11zM531 1595l55 -33l-210 -321l-22 11z" />
<glyph unicode="&#x201e;" horiz-adv-x="652" d="M177 89l55 -34l-210 -321l-22 11zM443 89l55 -34l-211 -321l-21 11z" />
<glyph unicode="&#x2022;" horiz-adv-x="795" d="M531 531q0 -58 -37.5 -95t-95.5 -37t-95 37t-37 95t37 95t95 37t95.5 -37t37.5 -95z" />
<glyph unicode="&#x2026;" horiz-adv-x="1237" d="M154 44.5q0 17.5 13.5 31t31.5 13.5t31 -13.5t13 -31t-13 -31t-31 -13.5t-31.5 13.5t-13.5 31zM575 44.5q0 17.5 13.5 31t31 13.5t30.5 -13.5t13 -31t-13 -31t-30.5 -13.5t-31 13.5t-13.5 31zM996 44.5q0 17.5 13 31t30.5 13.5t31 -13.5t13.5 -31t-13.5 -31t-31 -13.5 t-30.5 13.5t-13 31z" />
<glyph unicode="&#x202f;" horiz-adv-x="420" />
<glyph unicode="&#x2039;" horiz-adv-x="552" d="M420 863l-243 -332l243 -332h-44l-243 332l243 332h44z" />
<glyph unicode="&#x203a;" horiz-adv-x="552" d="M376 531l-243 332h44l243 -332l-243 -332h-44z" />
<glyph unicode="&#x205f;" horiz-adv-x="525" />
<glyph unicode="&#x20ac;" horiz-adv-x="1636" d="M287 774l11 155h-209v44h221q51 250 245.5 423.5t451.5 173.5q90 0 176.5 -25t146 -61t106 -71t68.5 -60l22 -26l-33 -33q-7 8 -22 24t-62.5 57t-101 70.5t-135 55t-165.5 25.5q-241 0 -421.5 -160.5t-231.5 -392.5h619v-44h-631q-10 -78 -10 -155l10 -155h631v-44h-619 q51 -233 231.5 -393t421.5 -160q84 0 164.5 24.5t136 57.5t99 67t66.5 59l20 25l33 -34q-9 -8 -24.5 -25t-66 -59t-107 -74t-144 -58.5t-177.5 -26.5q-257 0 -451.5 173.5t-245.5 423.5h-221v44h209q-11 78 -11 155z" />
<glyph unicode="&#x2122;" horiz-adv-x="1514" d="M44 1504v45h509v-45h-232v-619h-45v619h-232zM1305 1549h33v-664h-44v575l-277 -388l-276 388v-575h-44v664h33l287 -399z" />
<glyph unicode="&#x25fc;" horiz-adv-x="1063" d="M0 1064h1064v-1064h-1064v1064z" />
</font>
</defs>
</svg>
