<?xml version="1.0" standalone="no"?>
<!DOCTYPE svg PUBLIC "-//W3C//DTD SVG 1.1//EN" "http://www.w3.org/Graphics/SVG/1.1/DTD/svg11.dtd" >
<svg xmlns="http://www.w3.org/2000/svg" xmlns:xlink="http://www.w3.org/1999/xlink" version="1.1">
<metadata></metadata>
<defs>
<font id="tt_normsregular" horiz-adv-x="1281" >
<font-face units-per-em="2048" ascent="1638" descent="-410" />
<missing-glyph horiz-adv-x="420" />
<glyph unicode="&#xfb01;" horiz-adv-x="1193" d="M851 0v918h-475v-918h-155v918h-166v144h166v198q0 148 76.5 229t211.5 81q40 0 78.5 -8.5t58.5 -17.5l17 -7v-144q-66 34 -144 34q-143 0 -143 -167v-198h631v-1062h-156zM829 1416q0 42 29 70.5t71 28.5t70.5 -28.5t28.5 -70.5t-28.5 -70.5t-70.5 -28.5t-71 28.5 t-29 70.5z" />
<glyph unicode="&#xfb02;" horiz-adv-x="1216" d="M863 0v1174q0 106 -72 179.5t-172 73.5t-171.5 -73t-71.5 -180v-112h255v-144h-255v-918h-155v918h-166v144h166v112q0 164 116.5 280t282 116t281.5 -116t116 -280v-1174h-154z" />
<glyph unicode="&#xfb03;" horiz-adv-x="1824" d="M1482 0v918h-475v-918h-156v918h-475v-918h-155v918h-166v144h166v154q0 148 76.5 229t211.5 81q40 0 78.5 -8.5t58.5 -17.5l17 -7v-144q-66 33 -144 33q-143 0 -143 -166v-154h475v198q0 148 76.5 229t211.5 81q40 0 78.5 -8.5t56.5 -17.5l20 -7v-144q-66 34 -144 34 q-143 0 -143 -167v-198h630v-1062h-155zM1460 1416q0 42 28.5 70.5t71 28.5t71 -28.5t28.5 -70.5t-28.5 -70.5t-71 -28.5t-71 28.5t-28.5 70.5z" />
<glyph horiz-adv-x="0" />
<glyph horiz-adv-x="0" />
<glyph unicode="&#xd;" horiz-adv-x="0" />
<glyph unicode=" "  horiz-adv-x="420" />
<glyph unicode="&#x09;" horiz-adv-x="420" />
<glyph unicode="&#xa0;" horiz-adv-x="420" />
<glyph unicode="!" horiz-adv-x="684" d="M409 376h-133l-33 1173h200zM232 88.5q0 48.5 30 79.5t81 31t81 -31t30 -79.5t-30 -79.5t-81 -31t-81 31t-30 79.5z" />
<glyph unicode="&#x22;" horiz-adv-x="773" d="M287 1549v-465h-143v465h143zM631 1549v-465h-144v465h144z" />
<glyph unicode="#" horiz-adv-x="1602" d="M1161 1549h144l-89 -454h344l-23 -144h-347l-69 -354h327l-21 -143h-334l-86 -454h-144l86 454h-421l-85 -454h-145l86 454h-340l22 143h348l68 354h-328l23 144h332l88 454h144l-89 -454h420zM626 951l-69 -354h420l70 354h-421z" />
<glyph unicode="$" horiz-adv-x="1249" d="M973 420q0 80 -46.5 136t-120.5 87.5t-163.5 57t-179 56t-163.5 75t-120.5 125.5t-46.5 193q0 159 114 276.5t306 139.5v226h154v-226q108 -13 202.5 -61.5t134.5 -90.5l40 -42l-111 -112q-4 7 -13 17t-41 36.5t-68.5 47.5t-96.5 38t-123 17q-153 0 -243 -78t-90 -188 q0 -80 46.5 -136t121 -87.5t164 -56.5t178.5 -56t164 -75.5t121 -124.5t46 -194q0 -177 -113.5 -296.5t-318.5 -140.5v-226h-154v224q-86 6 -164.5 32.5t-129.5 59.5t-88.5 64t-56.5 53l-15 21l102 112q4 -7 15.5 -20.5t49 -46t81.5 -57t118.5 -45.5t153.5 -21 q170 0 262 79.5t92 207.5z" />
<glyph unicode="%" horiz-adv-x="1680" d="M276 0l974 1549h154l-973 -1549h-155zM774 1227.5q0 -141.5 -101 -242t-242.5 -100.5t-241.5 100.5t-100 242t100 242t241.5 100.5t242.5 -100.5t101 -242zM631 1228q0 91 -58 150t-141.5 59t-141.5 -59t-58 -150t58 -151t141.5 -60t141.5 60t58 151zM907 320.5 q0 141.5 100.5 242t242 100.5t242.5 -100.5t101 -242t-101 -242t-242.5 -100.5t-242 100.5t-100.5 242zM1051 320.5q0 -90.5 57 -150.5t141.5 -60t141.5 60t57 150.5t-57 150.5t-141.5 60t-141.5 -60t-57 -150.5z" />
<glyph unicode="&#x26;" horiz-adv-x="1382" d="M929 1239q0 -64 -30 -132.5t-72 -120t-84 -93.5t-70 -64l-31 -21l354 -432q11 15 27.5 46.5t44 128.5t27.5 201h144q0 -85 -14.5 -166.5t-36 -139t-43.5 -103t-35 -67.5l-15 -21q9 -15 25.5 -38t63 -59t88.5 -36l66 11v-144q-40 -11 -78 -11q-44 0 -85.5 17.5t-70.5 44 t-52.5 53.5t-34.5 44l-10 17q-7 -6 -18.5 -18t-49.5 -43t-82.5 -54.5t-114 -42t-145.5 -18.5q-194 0 -318.5 110.5t-124.5 265.5q0 78 31.5 153t74.5 127t87 93t75 60l32 21q-9 8 -24.5 24.5t-56.5 67.5t-71 99t-55.5 111.5t-25.5 117.5q0 141 103 241.5t251.5 100.5 t251 -98t102.5 -233zM907 255l-365 464q-8 -6 -25 -19.5t-59 -54.5t-74 -82t-59 -98.5t-27 -110.5q0 -106 80 -169t219 -63q89 0 166 33t111 66zM365 1228q0 -59 49.5 -139t98.5 -131l51 -51q8 7 24 18.5t53.5 48.5t66.5 73.5t53 86.5t24 94q0 84 -60 141.5t-150 57.5 t-150 -57.5t-60 -141.5z" />
<glyph unicode="'" horiz-adv-x="430" d="M287 1549v-465h-143v465h143z" />
<glyph unicode="(" horiz-adv-x="740" d="M321 553q0 -164 35 -324.5t85 -273t101 -201t87 -130.5l34 -44l-121 -67q-15 15 -40 46.5t-87.5 134.5t-110 215.5t-87.5 288.5t-40 355t37.5 352.5t91 292.5t107.5 211.5t91 139.5l38 44l121 -67q-13 -15 -36 -45.5t-82.5 -128.5t-104 -204t-82 -268.5t-37.5 -326.5z " />
<glyph unicode=")" horiz-adv-x="740" d="M420 553q0 164 -35 324.5t-86.5 273t-101 201t-85.5 130.5l-34 44l121 67q15 -15 40 -46.5t87.5 -134.5t110.5 -215.5t87.5 -288.5t39.5 -355t-37.5 -352.5t-92 -292.5t-107.5 -211.5t-90 -139.5l-38 -44l-121 67q13 15 36 45t83 128.5t104 204.5t81.5 268.5t37.5 326.5z " />
<glyph unicode="*" horiz-adv-x="861" d="M431 1095l-165 -244l-100 78l188 232l-276 67l44 121l265 -89l-22 289h133l-23 -289l266 89l44 -121l-276 -67l188 -232l-100 -78z" />
<glyph unicode="+" horiz-adv-x="1138" d="M642 154h-144v421h-409v144h409v420h144v-420h409v-144h-409v-421z" />
<glyph unicode="," horiz-adv-x="475" d="M199 199l155 -89l-255 -397l-99 55z" />
<glyph unicode="-" horiz-adv-x="939" d="M840 730v-144h-741v144h741z" />
<glyph unicode="." horiz-adv-x="464" d="M122 88.5q0 48.5 29.5 79.5t80.5 31t80.5 -31t29.5 -79.5t-29.5 -79.5t-80.5 -31t-80.5 31t-29.5 79.5z" />
<glyph unicode="/" horiz-adv-x="961" d="M885 1570l-664 -2034h-143l663 2034h144z" />
<glyph unicode="0" horiz-adv-x="1503" d="M298 774q0 -301 134 -471t322 -170q186 0 318.5 171t132.5 470q0 302 -134 472t-319.5 170t-319.5 -170.5t-134 -471.5zM1372 774.5q0 -358.5 -182.5 -577.5t-435.5 -219q-255 0 -438 219t-183 577.5t183.5 577t435.5 218.5t436 -218.5t184 -577z" />
<glyph unicode="1" horiz-adv-x="773" d="M420 1549h122v-1549h-166v1239h-287v99q75 2 135.5 25.5t96 53t59 60t31.5 49.5z" />
<glyph unicode="2" horiz-adv-x="1216" d="M1084 0h-995q0 152 62 278.5t153.5 203.5t198.5 155t199 138.5t154 150t62 191.5q0 135 -88.5 217t-243.5 82q-77 0 -140.5 -27.5t-97.5 -66.5t-56 -78t-31 -67l-6 -27l-145 66q2 15 10.5 39t43.5 84.5t82.5 107t138 85t201.5 38.5q222 0 360 -129.5t138 -323.5 q0 -113 -51 -209t-128.5 -161.5t-174.5 -136t-184.5 -130.5t-162.5 -145.5t-107 -180.5h808v-154z" />
<glyph unicode="3" horiz-adv-x="1237" d="M819 819q10 -3 30 -10t70 -35.5t87.5 -67.5t68.5 -111.5t31 -163.5q0 -184 -143.5 -318.5t-376.5 -134.5q-99 0 -188.5 24.5t-147.5 57.5t-102 67.5t-64 58.5l-18 25l111 110q4 -7 15 -20.5t49 -45t82 -57t115 -45.5t148 -20q169 0 267 85t98 213q0 124 -100.5 211.5 t-264.5 87.5h-155v155h155q140 0 219.5 75t79.5 201q0 110 -80.5 182.5t-218.5 72.5q-63 0 -124 -18t-101 -44.5t-70 -53t-44 -44.5l-15 -17l-110 122q7 8 18.5 22.5t55 50t93 63t130.5 50.5t167 23q203 0 334 -119t131 -290q0 -76 -24.5 -137.5t-59 -98t-67.5 -62 t-58 -36.5z" />
<glyph unicode="4" horiz-adv-x="1293" d="M1017 487h199v-155h-199v-332h-166v332h-785v187l742 1030h209v-1062zM851 487v874l-630 -874h630z" />
<glyph unicode="5" horiz-adv-x="1348" d="M686 996q223 0 371 -146.5t148 -362.5q0 -226 -145.5 -367.5t-384.5 -141.5q-95 0 -183.5 24.5t-145.5 57.5t-100 67.5t-60 58.5l-20 25l110 110q5 -7 16 -20.5t48.5 -45t79.5 -57t110.5 -45.5t144.5 -20q166 0 265.5 97t99.5 257q0 157 -99 255t-255 98 q-104 0 -190.5 -42t-119.5 -81l-34 -42h-121l55 874h830v-156h-686l-33 -486q13 9 36.5 24.5t101 40t161.5 24.5z" />
<glyph unicode="6" horiz-adv-x="1304" d="M663 996q224 0 372.5 -146.5t148.5 -363t-151 -362.5t-381 -146t-380 146t-150 363q0 84 27.5 167t53.5 125l29 40l465 730h166l-365 -576q64 23 165 23zM1017 486.5q0 159.5 -99 256.5t-265 97t-266 -97t-100 -256.5t100 -256.5t266 -97t265 97t99 256.5z" />
<glyph unicode="7" horiz-adv-x="1094" d="M66 1549h974v-156l-686 -1393h-166l686 1393h-808v156z" />
<glyph unicode="8" horiz-adv-x="1304" d="M652.5 907q130.5 0 209 72t78.5 182.5t-78.5 182.5t-209 72t-209 -72t-78.5 -182.5t78.5 -182.5t209 -72zM652 1570q188 0 321 -123.5t133 -285.5q0 -64 -21 -121.5t-49.5 -91.5t-57.5 -59.5t-49 -37.5l-22 -11q11 -4 29 -11.5t63 -41t80.5 -73t64 -110t28.5 -150.5 q0 -195 -149 -335.5t-370.5 -140.5t-370.5 140.5t-149 335.5q0 80 27.5 149.5t66.5 111t77 71.5t68 41l27 13q-9 5 -22.5 12t-48 34.5t-61 61.5t-47.5 91.5t-21 121.5q0 162 132.5 285.5t320.5 123.5zM652.5 774q-145.5 0 -250 -97t-104.5 -223q0 -131 98 -226t257 -95 t256.5 95t97.5 226q0 126 -104.5 223t-250 97z" />
<glyph unicode="9" horiz-adv-x="1304" d="M642 553q-224 0 -372 146t-148 363t150 362.5t380 145.5t381 -145.5t151 -362.5q0 -85 -28 -167.5t-54 -124.5l-30 -40l-464 -730h-165l365 575q-65 -22 -166 -22zM287 1061.5q0 -158.5 100 -256.5t266 -98t265 98t99 256.5t-99 256.5t-265 98t-266 -98t-100 -256.5z" />
<glyph unicode=":" horiz-adv-x="464" d="M122 88.5q0 48.5 29.5 79.5t80.5 31t80.5 -31t29.5 -79.5t-29.5 -79.5t-80.5 -31t-80.5 31t-29.5 79.5zM122 973q0 49 29.5 80t80.5 31t80.5 -31t29.5 -80t-29.5 -79.5t-80.5 -30.5t-80.5 30.5t-29.5 79.5z" />
<glyph unicode=";" horiz-adv-x="486" d="M199 199l155 -89l-255 -397l-99 55zM144 973q0 49 29.5 80t81 31t81 -31t29.5 -80t-29.5 -79.5t-81 -30.5t-81 30.5t-29.5 79.5z" />
<glyph unicode="&#x3c;" horiz-adv-x="1094" d="M99 498v88l897 476v-155l-698 -365l698 -365v-155z" />
<glyph unicode="=" horiz-adv-x="1094" d="M996 531v-144h-897v144h897zM996 918v-144h-897v144h897z" />
<glyph unicode="&#x3e;" horiz-adv-x="1094" d="M996 586v-88l-897 -476v155l697 365l-697 365v155z" />
<glyph unicode="?" horiz-adv-x="1161" d="M631 376h-156q-11 48 -11 99q0 97 44.5 176t108.5 131t127.5 101.5t107 117t43.5 149.5q0 110 -87 188t-233 78q-80 0 -145 -25.5t-100.5 -61t-59 -70.5t-31.5 -60l-7 -27l-143 44q4 15 11.5 39t44 84.5t86.5 107t141.5 85t202.5 38.5q210 0 348.5 -124.5t138.5 -295.5 q0 -97 -32 -173t-79.5 -120.5t-104.5 -91t-104.5 -86.5t-79 -107.5t-31.5 -151.5v-44zM443 88.5q0 48.5 30.5 79.5t79.5 31t79.5 -31t30.5 -79.5t-30.5 -79.5t-79.5 -31t-79.5 31t-30.5 79.5z" />
<glyph unicode="@" horiz-adv-x="1990" d="M973 819q-101 0 -172 -78t-71 -199.5t71 -198.5t172 -77q108 0 181.5 77t73.5 198.5t-73.5 199.5t-181.5 78zM962 951q85 0 151 -31t90 -61l25 -30v111h133v-505q0 -170 132 -169q86 0 142.5 79t56.5 252q0 283 -198 473t-498 190q-292 0 -495 -204.5t-203 -502.5 t202.5 -502.5t495.5 -204.5q117 0 222 35t151 70l47 38l77 -99q-7 -7 -21 -19t-61.5 -43t-101 -54t-138.5 -42t-175 -19q-340 0 -591 250t-251 590t250 590t592 250q352 0 596 -234.5t244 -561.5q0 -225 -97 -344.5t-246 -119.5q-51 0 -94.5 15.5t-70 39t-45 46.5t-27.5 38 l-6 15q-3 -6 -9.5 -16t-31.5 -36.5t-55.5 -47.5t-81 -37.5t-110.5 -16.5q-152 0 -264 118t-112 291t112 291t264 118z" />
<glyph unicode="A" horiz-adv-x="1547" d="M1072 586l-298 731l-299 -731h597zM1139 431h-730l-177 -431h-177l642 1549h154l642 -1549h-176z" />
<glyph unicode="B" horiz-adv-x="1481" d="M1084 829q11 -4 27.5 -11.5t60.5 -41t77.5 -73.5t61 -110.5t27.5 -149.5q0 -192 -131.5 -317.5t-343.5 -125.5h-631v1549h597q188 0 309.5 -115t121.5 -284q0 -68 -17 -125.5t-44 -92.5t-53.5 -59t-43.5 -33zM399 154h464q139 0 224 81t85 208q0 128 -86 218.5t-223 90.5 h-464v-598zM829 1393h-430v-496h430q125 0 195.5 67.5t70.5 185.5q0 108 -70.5 175.5t-195.5 67.5z" />
<glyph unicode="C" horiz-adv-x="1658" d="M133 774.5q0 331.5 232 563.5t564 232q118 0 226 -33t178.5 -79t124 -93.5t77.5 -81.5l25 -33l-112 -100q-6 11 -19 29t-60.5 63t-103 80.5t-146.5 64.5t-190 29q-266 0 -448.5 -184.5t-182.5 -457t182.5 -457t448.5 -184.5q99 0 190 27.5t150.5 66.5t105 77t65.5 68 l20 27l110 -101q-8 -13 -26 -34t-79 -76t-129 -98.5t-178.5 -77.5t-228.5 -34q-332 0 -564 232.5t-232 564z" />
<glyph unicode="D" horiz-adv-x="1658" d="M232 1549h487q338 0 572.5 -228t234.5 -546.5t-234.5 -546.5t-572.5 -228h-487v1549zM719 1393h-320v-1239h320q272 0 457 180.5t185 439t-185 439t-457 180.5z" />
<glyph unicode="E" horiz-adv-x="1414" d="M399 154h918v-154h-1085v1549h1062v-156h-895v-508h718v-155h-718v-576z" />
<glyph unicode="F" horiz-adv-x="1359" d="M232 1549h1051v-156h-884v-530h707v-156h-707v-707h-167v1549z" />
<glyph unicode="G" horiz-adv-x="1758" d="M133 774.5q0 331.5 232 563.5t564 232q118 0 226 -33t178.5 -79t124 -93.5t77.5 -81.5l25 -33l-112 -100q-6 11 -19 29t-60.5 63t-103 80.5t-146.5 64.5t-190 29q-266 0 -448.5 -184.5t-182.5 -457t182.5 -457t448.5 -184.5q93 0 177 22t138 53t95 60.5t59 52.5l18 21 v300h-354v154h519v-498q-9 -13 -27.5 -34t-80 -76t-132.5 -98.5t-182.5 -77.5t-229.5 -34q-332 0 -564 232.5t-232 564z" />
<glyph unicode="H" horiz-adv-x="1658" d="M232 0v1549h167v-686h861v686h167v-1549h-167v707h-861v-707h-167z" />
<glyph unicode="I" horiz-adv-x="629" d="M232 0v1549h167v-1549h-167z" />
<glyph unicode="J" horiz-adv-x="1094" d="M707 1549h167v-1095q0 -209 -134 -342.5t-341 -133.5q-69 0 -132.5 17.5t-106 44t-75 53.5t-47.5 44l-16 17l111 112q4 -5 10.5 -15t31 -32t53.5 -39.5t75.5 -32t95.5 -14.5q141 0 224.5 86.5t83.5 234.5v1095z" />
<glyph unicode="K" horiz-adv-x="1481" d="M399 675l795 874h210l-585 -642l641 -907h-200l-553 785l-308 -331v-454h-167v1549h167v-874z" />
<glyph unicode="L" horiz-adv-x="1237" d="M1194 0h-962v1549h167v-1395h795v-154z" />
<glyph unicode="M" horiz-adv-x="2034" d="M1637 1260l-620 -817l-618 817v-1260h-167v1549h144l641 -842l642 842h144v-1549h-166v1260z" />
<glyph unicode="N" horiz-adv-x="1724" d="M1327 1549h166v-1549h-144l-950 1250v-1250h-167v1549h144l951 -1251v1251z" />
<glyph unicode="O" horiz-adv-x="1857" d="M298 774.5q0 -272.5 182.5 -457t448 -184.5t448.5 184.5t183 457t-183 457t-448.5 184.5t-448 -184.5t-182.5 -457zM1725 774.5q0 -331.5 -232.5 -564t-564 -232.5t-563.5 232.5t-232 564t232 563.5t563.5 232t564 -232t232.5 -563.5z" />
<glyph unicode="P" horiz-adv-x="1437" d="M232 1549h587q215 0 356.5 -139.5t141.5 -347.5t-142.5 -347.5t-355.5 -139.5h-420v-575h-167v1549zM819 1393h-420v-663h420q150 0 240.5 91t90.5 241t-90.5 240.5t-240.5 90.5z" />
<glyph unicode="Q" horiz-adv-x="1857" d="M1725 774q0 -108 -25.5 -206.5t-65 -168.5t-87 -130.5t-96.5 -98t-88.5 -65t-66.5 -39.5l-24 -11q5 -9 14.5 -24.5t47.5 -52.5t82 -66.5t118 -53.5t158 -24l100 12v-144q-34 -11 -100 -12q-117 0 -220 32.5t-165 78t-107 90.5t-63 78l-20 31q-78 -22 -188 -22 q-332 0 -564 232.5t-232 564t232 563.5t563.5 232t564 -232t232.5 -564zM298 774.5q0 -272.5 182.5 -457t448 -184.5t448.5 184.5t183 457t-183 457t-448.5 184.5t-448 -184.5t-182.5 -457z" />
<glyph unicode="R" horiz-adv-x="1492" d="M232 1549h619q205 0 340.5 -133t135.5 -332q0 -99 -33.5 -181t-80 -128.5t-94 -79t-79.5 -43.5l-33 -10l365 -642h-188l-344 619h-441v-619h-167v1549zM851 1393h-452v-619h452q142 0 226 84t84 226t-84 225.5t-226 83.5z" />
<glyph unicode="S" horiz-adv-x="1249" d="M973 420q0 80 -46.5 136t-120.5 87.5t-163.5 57t-179 56t-163.5 75t-120.5 125.5t-46.5 193q0 175 137 297.5t361 122.5q84 0 160 -21t127 -49.5t91 -57t57 -49.5l18 -21l-111 -112q-4 7 -13 17t-41 36.5t-68.5 47.5t-96.5 38t-123 17q-153 0 -243 -78t-90 -188 q0 -80 46.5 -136t121 -87.5t164 -56.5t178.5 -56t164 -75.5t121 -124.5t46 -194q0 -196 -138 -319t-382 -123q-100 0 -189.5 24.5t-146.5 57.5t-101.5 67.5t-61.5 58.5l-21 25l102 112q4 -7 15.5 -20.5t49 -46t81.5 -57t118.5 -45.5t153.5 -21q170 0 262 79.5t92 207.5z" />
<glyph unicode="T" horiz-adv-x="1226" d="M44 1549h1140v-156h-487v-1393h-166v1393h-487v156z" />
<glyph unicode="U" horiz-adv-x="1680" d="M840 133q192 0 328.5 138t136.5 337v941h166v-941q0 -257 -187 -443.5t-443.5 -186.5t-443 187t-186.5 443v941h165v-941q0 -199 136 -337t328 -138z" />
<glyph unicode="V" horiz-adv-x="1503" d="M675 0l-609 1549h177l509 -1317l508 1317h177l-608 -1549h-154z" />
<glyph unicode="W" horiz-adv-x="2299" d="M1560 0l-410 1294l-409 -1294h-166l-509 1549h177l409 -1294l420 1294h156l420 -1294l409 1294h176l-508 -1549h-165z" />
<glyph unicode="X" horiz-adv-x="1437" d="M719 940l431 609h199l-530 -741l574 -808h-199l-475 675l-476 -675h-199l575 808l-530 741h198z" />
<glyph unicode="Y" horiz-adv-x="1404" d="M697 719h10l465 830h189l-576 -1007v-542h-166v542l-575 1007h188z" />
<glyph unicode="Z" horiz-adv-x="1326" d="M1007 1393h-874v156h1072v-156l-907 -1239h930v-154h-1129v154z" />
<glyph unicode="[" horiz-adv-x="740" d="M354 1427v-1748h298v-143h-453v2034h453v-143h-298z" />
<glyph unicode="\" horiz-adv-x="961" d="M741 -464l-663 2034h143l664 -2034h-144z" />
<glyph unicode="]" horiz-adv-x="740" d="M387 -321v1748h-298v143h453v-2034h-453v143h298z" />
<glyph unicode="^" horiz-adv-x="884" d="M387 1549h111l287 -620h-143l-199 443l-200 -443h-144z" />
<glyph unicode="_" horiz-adv-x="729" d="M752 -232v-144h-774v144h774z" />
<glyph unicode="`" horiz-adv-x="464" d="M232 1549l167 -299h-123l-210 299h166z" />
<glyph unicode="a" horiz-adv-x="1149" d="M399 608l409 67q0 118 -74.5 191.5t-191.5 73.5q-84 0 -158 -38.5t-108 -78.5l-33 -38l-99 100q6 8 17.5 21.5t49.5 47.5t80.5 61t111 48t139.5 21q182 0 301 -117.5t119 -291.5v-675h-154v144q-4 -7 -13.5 -18.5t-41.5 -40t-68.5 -50.5t-96.5 -39.5t-124 -17.5 q-158 0 -266.5 94t-108.5 215q0 133 79.5 214.5t230.5 106.5zM464 122q151 0 247.5 98.5t96.5 254.5v67l-365 -67q-199 -38 -200 -188q0 -71 59 -118t162 -47z" />
<glyph unicode="b" horiz-adv-x="1326" d="M332 530.5q0 -163.5 116 -286t259 -122.5q138 0 246.5 119.5t108.5 289.5t-108.5 289.5t-246.5 119.5q-143 0 -259 -123t-116 -286.5zM332 1549v-654q4 7 15.5 20.5t46.5 46t76 57.5t105 45t132 20q203 0 356 -163t153 -390.5t-152 -390t-357 -162.5q-68 0 -131 19.5 t-106 46.5t-75 54.5t-47 47.5l-16 20v-166h-155v1549h155z" />
<glyph unicode="c" horiz-adv-x="1138" d="M89 531q0 230 157 391.5t373 161.5q124 0 231.5 -53.5t153.5 -106.5l47 -50l-111 -110q-5 6 -13.5 18t-38 43t-64.5 54.5t-90 42t-115 18.5q-152 0 -264 -118.5t-112 -290.5t112 -290.5t264 -118.5q93 0 176 44.5t121 88.5l35 43l111 -99q-7 -9 -20.5 -24.5t-56.5 -53 t-90.5 -66t-122.5 -53t-153 -24.5q-217 0 -373.5 161.5t-156.5 391.5z" />
<glyph unicode="d" horiz-adv-x="1326" d="M973 530.5q0 163.5 -116 286.5t-260 123q-137 0 -245.5 -119.5t-108.5 -289.5t108.5 -289.5t245.5 -119.5q144 0 260 122.5t116 286zM973 895v654h155v-1549h-155v166q-4 -6 -15 -19.5t-46.5 -46t-76.5 -58t-105.5 -45t-132.5 -19.5q-203 0 -355.5 162.5t-152.5 390 t152.5 390.5t355.5 163q68 0 131.5 -20t106.5 -46.5t75 -54.5t48 -47z" />
<glyph unicode="e" horiz-adv-x="1226" d="M1106 473l-863 2q9 -143 118.5 -248t257.5 -105q99 0 184.5 44.5t120.5 88.5l38 43l100 -99q-7 -9 -19.5 -24.5t-54 -53t-89.5 -66t-124 -53t-156 -24.5q-217 0 -373.5 161.5t-156.5 391.5t155 391.5t364 161.5q217 0 363 -150.5t146 -380.5zM608 940q-139 0 -243 -98.5 t-122 -233.5h719q-17 144 -116 238t-238 94z" />
<glyph unicode="f" horiz-adv-x="707" d="M631 1062v-144h-255v-918h-155v918h-166v144h166v198q0 148 76.5 229t211.5 81q40 0 78.5 -8.5t58.5 -17.5l17 -7v-144q-66 34 -144 34q-143 0 -143 -167v-198h255z" />
<glyph unicode="g" d="M940 66v133q-5 -7 -13.5 -19t-40.5 -43t-69.5 -54.5t-100 -42t-130.5 -18.5q-200 0 -348.5 155t-148.5 376t147.5 376t349.5 155q68 0 129.5 -17.5t101 -44t68.5 -53.5t42 -45l13 -17v155h155v-996q0 -224 -151.5 -377t-368.5 -153q-85 0 -161 23t-124.5 55t-86 64.5 t-53.5 55.5l-17 23l99 99q5 -6 15 -18.5t43 -43.5t69.5 -54t95 -42t120.5 -19q150 0 257.5 111.5t107.5 275.5zM243 553q0 -162 104 -274.5t239 -112.5q144 0 249 111.5t105 275.5t-105 275.5t-249 111.5q-135 0 -239 -112.5t-104 -274.5z" />
<glyph unicode="h" horiz-adv-x="1293" d="M332 1549v-642q4 7 13 18.5t41 43t68.5 55t96 42t124.5 18.5q192 0 311.5 -124t119.5 -329v-631h-155v631q0 139 -81 224t-207 85q-141 0 -236 -99.5t-95 -254.5v-586h-155v1549h155z" />
<glyph unicode="i" horiz-adv-x="508" d="M166 0v1062h155v-1062h-155zM144 1416q0 42 28.5 70.5t70.5 28.5t70.5 -28.5t28.5 -70.5t-28.5 -70.5t-70.5 -28.5t-70.5 28.5t-28.5 70.5z" />
<glyph unicode="j" horiz-adv-x="508" d="M166 -154v1216h155v-1216q0 -310 -288 -310q-35 0 -68 8.5t-49 17.5l-15 7v144q55 -34 121 -34q144 0 144 167zM144 1416q0 42 28.5 70.5t70.5 28.5t70.5 -28.5t28.5 -70.5t-28.5 -70.5t-70.5 -28.5t-70.5 28.5t-28.5 70.5z" />
<glyph unicode="k" horiz-adv-x="1127" d="M332 298v-298h-155v1549h155v-1051l531 564h188l-409 -431l453 -631h-177l-376 519z" />
<glyph unicode="l" horiz-adv-x="530" d="M332 1549v-1549h-155v1549h155z" />
<glyph unicode="m" horiz-adv-x="1923" d="M1581 0v631q0 148 -73 228.5t-191 80.5q-123 0 -206 -96.5t-83 -257.5v-586h-154v631q0 146 -73 227.5t-193 81.5q-122 0 -204.5 -96.5t-82.5 -257.5v-586h-155v1062h155v-133q4 6 10.5 16.5t33 37t59 47.5t84 37.5t111.5 16.5q71 0 133 -20t98.5 -46.5t63 -54.5 t37.5 -47l11 -21q5 7 12.5 20.5t40 46t69.5 57.5t102.5 45t140.5 20q182 0 296 -119.5t114 -333.5v-631h-156z" />
<glyph unicode="n" d="M321 1062v-155q4 7 12.5 18.5t41 43t69 55t96 42t123.5 18.5q192 0 312 -124t120 -329v-631h-155v631q0 139 -80.5 224t-207.5 85q-141 0 -236 -99.5t-95 -254.5v-586h-155v1062h155z" />
<glyph unicode="o" d="M1017 531q0 172 -114 290.5t-273 118.5t-273 -118.5t-114 -290.5q0 -170 114 -289.5t273 -119.5t273 118.5t114 290.5zM89 531q0 233 158 393t383.5 160t383.5 -160t158 -393t-158 -393t-383.5 -160t-383.5 160t-158 393z" />
<glyph unicode="p" horiz-adv-x="1315" d="M321 530.5q0 -163.5 116 -286t260 -122.5q137 0 245.5 119.5t108.5 289.5t-108.5 289.5t-245.5 119.5q-144 0 -260 -123t-116 -286.5zM321 166v-630h-155v1526h155v-167q4 7 15.5 20.5t46.5 46t76 57.5t105.5 45t132.5 20q203 0 355.5 -163t152.5 -390.5t-152 -390 t-356 -162.5q-68 0 -131.5 19.5t-106.5 46.5t-75 54.5t-48 47.5z" />
<glyph unicode="q" horiz-adv-x="1315" d="M973 530.5q0 163.5 -116 286.5t-260 123q-137 0 -245.5 -119.5t-108.5 -289.5t108.5 -289.5t245.5 -119.5q144 0 260 122.5t116 286zM973 -464v630q-4 -6 -15 -19.5t-46.5 -46t-76.5 -58t-105.5 -45t-132.5 -19.5q-203 0 -355.5 162.5t-152.5 390t152.5 390.5t355.5 163 q68 0 131.5 -20t106.5 -46.5t75 -54.5t48 -47l15 -21v167h155v-1526h-155z" />
<glyph unicode="r" horiz-adv-x="762" d="M719 1084v-155h-67q-137 0 -234 -95t-97 -248v-586h-155v1062h155v-144q4 6 12.5 17.5t41 40t70 51t99.5 40t131 17.5h44z" />
<glyph unicode="s" horiz-adv-x="950" d="M808 940l-111 -111q-9 13 -26 31t-77 49t-130 31q-88 0 -143 -46.5t-55 -108.5q0 -64 59 -102.5t143.5 -62t168.5 -53t143.5 -97t59.5 -172.5q0 -137 -104.5 -228.5t-281.5 -91.5q-76 0 -142.5 19.5t-109.5 46.5t-75 54.5t-47 47.5l-14 20l111 110q4 -6 12 -16.5 t34 -36.5t56.5 -47.5t78 -37.5t96.5 -16q112 0 172 49.5t60 126.5q0 66 -60 107.5t-143.5 66t-168 54t-144.5 94t-60 165.5q0 120 101 209.5t253 89.5q62 0 121 -14.5t96.5 -35.5t67.5 -43t43 -35z" />
<glyph unicode="t" horiz-adv-x="795" d="M266 1172v244h143v-354h233v-144h-233v-631q0 -166 144 -165q36 0 71 8.5t53 15.5l20 8v-143q-66 -34 -151 -33q-137 0 -214 80.5t-77 228.5v631h-200v144h122q89 0 89 110z" />
<glyph unicode="u" horiz-adv-x="1293" d="M940 0v144q-5 -7 -13.5 -18.5t-40.5 -40t-68.5 -50.5t-96.5 -39.5t-124 -17.5q-186 0 -308.5 129.5t-122.5 335.5v619h155v-619q0 -140 86.5 -230.5t211.5 -90.5q135 0 228 99.5t93 253.5v587h155v-1062h-155z" />
<glyph unicode="v" horiz-adv-x="1083" d="M608 0h-154l-432 1062h166l343 -851l343 851h166z" />
<glyph unicode="w" horiz-adv-x="1614" d="M730 1062h133l265 -819l276 819h166l-365 -1062h-143l-266 808l-265 -808h-144l-365 1062h166l276 -819z" />
<glyph unicode="x" horiz-adv-x="1061" d="M519 431l-308 -431h-189l398 553l-365 509h188l276 -387l277 387h188l-365 -509l398 -553h-188z" />
<glyph unicode="y" horiz-adv-x="1083" d="M399 -154l55 154l-432 1062h166l343 -863l343 863h166l-487 -1216q-66 -169 -141.5 -239.5t-190.5 -70.5q-35 0 -68 5t-49 12l-15 4v145q55 -22 110 -23q140 0 200 167z" />
<glyph unicode="z" horiz-adv-x="1028" d="M907 1062v-144l-641 -774h663v-144h-851v144l641 774h-620v144h808z" />
<glyph unicode="{" horiz-adv-x="785" d="M133 487v132q154 0 154 155v498q0 135 88.5 216.5t243.5 81.5h88v-133h-88q-91 0 -139.5 -45t-48.5 -120v-498q0 -53 -13 -95t-33 -64t-40 -37.5t-33 -20.5l-14 -4q4 -2 14.5 -5.5t32.5 -19t40 -37.5t32 -64.5t14 -94.5v-498q0 -76 48.5 -121t139.5 -45h88v-132h-88 q-155 0 -243.5 81.5t-88.5 216.5v498q0 155 -154 155z" />
<glyph unicode="|" horiz-adv-x="740" d="M443 1570v-2034h-145v2034h145z" />
<glyph unicode="}" horiz-adv-x="785" d="M652 619v-132q-154 0 -154 -155v-498q0 -135 -88.5 -216.5t-243.5 -81.5h-88v132h88q91 0 139.5 45.5t48.5 120.5v498q0 52 13 94.5t33 64.5t40 37.5t33 20.5l14 4q-4 2 -14.5 5.5t-32.5 19t-40 37.5t-32 64t-14 95v498q0 76 -48.5 120.5t-139.5 44.5h-88v133h88 q155 0 243.5 -81.5t88.5 -216.5v-498q0 -155 154 -155z" />
<glyph unicode="~" horiz-adv-x="1171" d="M376 663q-64 0 -113.5 -33t-68.5 -66l-17 -33l-99 77q4 7 11.5 20.5t35 45t60 57t84.5 45.5t107 20q93 0 163.5 -38.5t129.5 -77t127 -38.5q64 0 114 32.5t67 66.5l19 33l99 -77q-4 -7 -12 -20.5t-35.5 -45.5t-59.5 -57t-84.5 -45t-107.5 -20q-93 0 -163.5 38.5 t-129.5 77t-127 38.5z" />
<glyph unicode="&#xa1;" horiz-adv-x="618" d="M243 686h133l33 -1150h-198zM420 973q0 -49 -30.5 -79.5t-79.5 -30.5t-80 30.5t-31 79.5t31 80t80 31t79.5 -31t30.5 -80z" />
<glyph unicode="&#xa2;" horiz-adv-x="1105" d="M89 531q0 211 132.5 364.5t320.5 181.5v228h144v-230q97 -16 183.5 -63.5t121.5 -87.5l37 -39l-99 -100q-13 17 -36.5 43t-104.5 69t-169 43q-152 0 -264 -118.5t-112 -290.5t112 -290.5t264 -118.5q88 0 166 38.5t110 78.5l34 37l99 -99q-13 -17 -39.5 -46t-116 -81 t-186.5 -63v-230h-144v228q-190 29 -321.5 179t-131.5 367z" />
<glyph unicode="&#xa3;" horiz-adv-x="1237" d="M298 1084q0 215 134 350.5t342 135.5q76 0 143 -20t112.5 -46.5t79 -54t48.5 -47.5l15 -20l-110 -110q-11 15 -33 39.5t-96 64.5t-159 40q-132 0 -226 -96t-94 -236v-288h453v-154h-453v-344q0 -44 -15 -79t-28 -51l-12 -14h773v-154h-1028v154q66 0 110 42.5t44 101.5 v344h-144v154h144v288z" />
<glyph unicode="&#xa4;" horiz-adv-x="1481" d="M110 619v155h177v775h576q215 0 350.5 -132t135.5 -333.5t-136 -333t-350 -131.5h-409v-188h542v-155h-542v-276h-167v276h-177v155h177v188h-177zM863 1393h-409v-619h409q139 0 230 88.5t91 221t-91 221t-230 88.5z" />
<glyph unicode="&#xa5;" horiz-adv-x="1404" d="M1139 564h-343l-11 -22v-143h354v-144h-354v-255h-166v255h-353v144h353v143l-13 22h-340v143h258l-480 842h188l465 -830h10l465 830h189l-483 -842h261v-143z" />
<glyph unicode="&#xa6;" horiz-adv-x="740" d="M298 376h145v-840h-145v840zM443 730h-145v840h145v-840z" />
<glyph unicode="&#xa7;" horiz-adv-x="1193" d="M298 707q0 -68 54.5 -120.5t113 -77t139.5 -49.5t92 -29q8 2 21.5 6t47.5 19t61 36t47.5 61t20.5 89q0 55 -31.5 101t-87 76t-104 50t-105 36.5t-69.5 23.5q-9 -2 -22.5 -5.5t-47.5 -21t-61 -40t-48 -64.5t-21 -91zM1051 642q0 -93 -55.5 -165t-110.5 -97l-56 -26 q7 -2 18.5 -9t40 -29t50.5 -48.5t40 -68.5t18 -89q0 -146 -120 -249.5t-312 -103.5q-76 0 -143 21t-112 49.5t-78.5 57.5t-49.5 49l-15 22l110 110l12.5 -17.5t35.5 -39t57.5 -51t79.5 -40t103 -17.5q128 0 202 62t74 147q0 71 -71.5 121t-174.5 84.5t-205 75t-173.5 120.5 t-71.5 196q0 60 23 112.5t55.5 85t64.5 57t53 34.5l25 11q-6 2 -16.5 7.5t-37 26.5t-47.5 45t-37 65t-16 88q0 137 110 234t287 97q99 0 188 -38.5t128 -75.5l38 -40l-111 -102q-11 13 -31 32t-83.5 50t-128.5 31q-112 0 -177.5 -55t-65.5 -133q0 -74 71 -123.5t171 -82.5 t201 -74t172 -120.5t71 -196.5z" />
<glyph unicode="&#xa8;" horiz-adv-x="751" d="M66 1404.5q0 41.5 29 70.5t71 29t71 -29t29 -70.5t-29 -70.5t-71 -29t-71 29t-29 70.5zM487 1404.5q0 41.5 28.5 70.5t71 29t71 -29t28.5 -70.5t-28.5 -70.5t-71 -29t-71 29t-28.5 70.5z" />
<glyph unicode="&#xa9;" horiz-adv-x="1946" d="M310 774q0 -283 190 -473.5t473 -190.5t473.5 190.5t190.5 473.5t-190.5 473t-473.5 190t-473 -190t-190 -473zM697 773.5q0 -123.5 82 -205t205 -81.5q73 0 134 31t85 62l25 28l89 -89q-5 -6 -14 -17t-40 -40t-66.5 -51t-92.5 -39.5t-120 -17.5q-184 0 -302 119.5 t-118 301t118 300.5t302 119q97 0 180 -42t119 -82l34 -42l-89 -88q-2 4 -9 13t-29.5 30t-48.5 36.5t-68.5 29t-88.5 13.5q-124 0 -205.5 -82.5t-81.5 -206zM1781 774.5q0 -331.5 -235 -564t-573 -232.5t-572.5 232.5t-234.5 564t234.5 563.5t572.5 232t573 -232t235 -563.5 z" />
<glyph unicode="&#xaa;" horiz-adv-x="729" d="M287 895q-88 0 -148.5 54.5t-60.5 122.5q0 162 198 200l233 45q0 65 -39 104t-105 39q-49 0 -91 -22t-57 -45l-18 -21l-77 65q9 16 26.5 38t80.5 58.5t136 36.5q124 0 189 -63t65 -180v-409h-110v89q-7 -13 -20.5 -31t-70.5 -49.5t-131 -31.5zM509 1216l-211 -44 q-99 -20 -99 -88q0 -88 111 -88q84 0 141.5 56t57.5 142v22z" />
<glyph unicode="&#xab;" horiz-adv-x="1028" d="M354 166l-255 365l255 364h165l-253 -364l253 -365h-165zM764 166l-255 365l255 364h165l-254 -364l254 -365h-165z" />
<glyph unicode="&#xac;" horiz-adv-x="1017" d="M929 863v-454h-155v310h-675v144h830z" />
<glyph unicode="&#xad;" horiz-adv-x="939" d="M840 719v-144h-741v144h741z" />
<glyph unicode="&#xae;" horiz-adv-x="1946" d="M1128 707l199 -342h-141l-169 310h-188v-310h-132v819h312q122 0 198 -73t76 -182q0 -74 -39 -129t-77 -74zM829 1051v-243h188q144 0 144 121.5t-144 121.5h-188zM310 774q0 -283 190 -473.5t473 -190.5t473.5 190.5t190.5 473.5t-190.5 473t-473.5 190t-473 -190 t-190 -473zM1781 774.5q0 -331.5 -235 -564t-573 -232.5t-572.5 232.5t-234.5 564t234.5 563.5t572.5 232t573 -232t235 -563.5z" />
<glyph unicode="&#xaf;" horiz-adv-x="773" d="M707 1526v-122h-641v122h641z" />
<glyph unicode="&#xb0;" horiz-adv-x="795" d="M221 1272q0 -75 51 -126t126 -51t126 51t51 126t-51 125.5t-126 50.5t-126 -50.5t-51 -125.5zM707 1272q0 -126 -88 -212.5t-220.5 -86.5t-221 86.5t-88.5 212.5t88.5 212t221 86t220.5 -86t88 -212z" />
<glyph unicode="&#xb1;" horiz-adv-x="1138" d="M99 55v144h941v-144h-941zM642 342h-144v422h-409v143h409v420h144v-420h409v-143h-409v-422z" />
<glyph unicode="&#xb2;" horiz-adv-x="663" d="M586 996h-520q0 93 41 167t100 121.5t117 87.5t99 84t41 93q0 50 -37.5 85.5t-94.5 35.5q-49 0 -88 -30t-54 -61l-13 -30l-99 32q2 9 6.5 22.5t23 48t44 61t73 47.5t107.5 21q114 0 184 -65.5t70 -166.5q0 -68 -31 -121.5t-79.5 -90.5t-99.5 -68.5t-98.5 -74t-66.5 -88.5 h375v-110z" />
<glyph unicode="&#xb3;" horiz-adv-x="684" d="M487 1404q4 -2 13 -4t30 -16.5t36.5 -33t28.5 -54.5t13 -80q0 -101 -72 -166.5t-194 -65.5q-88 0 -160 33.5t-98 66.5l-29 33l78 88q8 -13 25 -30.5t71 -48.5t113 -31q144 0 145 121q0 59 -41 96t-114 37h-89v111h89q57 0 89.5 30t32.5 80q0 45 -35 72.5t-98 27.5 q-47 0 -88 -24.5t-58 -48.5l-18 -25l-79 83q8 13 26 34t81.5 56.5t135.5 35.5q112 0 183 -62t71 -149q0 -59 -22 -100t-44 -54z" />
<glyph unicode="&#xb4;" horiz-adv-x="464" d="M66 1250l166 299h167l-211 -299h-122z" />
<glyph unicode="&#xb5;" d="M929 154l-12 -18t-38 -43t-65 -54.5t-94 -42t-123 -18.5q-84 0 -152.5 22t-94.5 44l-29 22v-530h-155v1526h155v-631q0 -139 80.5 -224t206.5 -85q135 0 222.5 94t87.5 248v598h154v-841q0 -42 29.5 -70.5t70.5 -28.5l56 11v-144q-22 -11 -67 -11q-62 0 -108 17.5 t-69.5 44t-37 53.5t-15.5 44z" />
<glyph unicode="&#xb6;" horiz-adv-x="1193" d="M464 -221v1040q-150 0 -257.5 108t-107.5 256.5t107.5 257t257.5 108.5h520v-1770h-144v1625h-232v-1625h-144z" />
<glyph unicode="&#xb7;" horiz-adv-x="420" d="M99 553q0 49 30 79.5t81 30.5t81 -30.5t30 -79.5t-30 -79.5t-81 -30.5t-81 30.5t-30 79.5z" />
<glyph unicode="&#xb8;" horiz-adv-x="530" d="M255 44h99l-78 -166h11q82 0 129.5 -44.5t47.5 -114.5q0 -73 -56 -123t-153 -50q-49 0 -97 18t-69 35l-23 19l44 72q55 -55 145 -55q48 0 79 26.5t31 62.5q0 33 -24.5 55t-64.5 22q-17 0 -33.5 -6t-25.5 -12l-6 -4l-57 55z" />
<glyph unicode="&#xb9;" horiz-adv-x="464" d="M232 1769h100v-773h-121v585h-145v89q59 0 100.5 25t54.5 50z" />
<glyph unicode="&#xba;" horiz-adv-x="795" d="M188 1227.5q0 -106.5 59 -169t151.5 -62.5t151 62.5t58.5 169t-58.5 169.5t-151 63t-151.5 -63t-59 -169.5zM730 1227.5q0 -148.5 -95 -245.5t-236.5 -97t-237 97t-95.5 245.5t95.5 245.5t237 97t236.5 -97t95 -245.5z" />
<glyph unicode="&#xbb;" horiz-adv-x="1028" d="M929 531l-254 -365h-166l255 365l-255 364h166zM519 531l-253 -365h-167l255 365l-255 364h167z" />
<glyph unicode="&#xbc;" horiz-adv-x="1469" d="M144 0l951 1549h144l-952 -1549h-143zM255 1549h99v-775h-122v587h-143v87q59 0 100 26t54 50zM1294 287h88v-110h-88v-177h-122v177h-364v110l342 487h144v-487zM1172 287v344l-243 -344h243z" />
<glyph unicode="&#xbd;" horiz-adv-x="1536" d="M144 0l951 1549h144l-952 -1549h-143zM255 1549h99v-775h-122v587h-143v87q59 0 100 26t54 50zM1437 0h-519q0 93 41 167t99.5 121.5t117 87.5t100 84t41.5 93q0 51 -38 86.5t-95 35.5q-49 0 -88 -30t-52 -61l-16 -31l-99 33q2 9 6.5 22t23 47.5t44 61t73 47.5t108.5 21 q114 0 183.5 -65.5t69.5 -166.5q0 -68 -30.5 -121.5t-79 -89.5t-99.5 -68.5t-99 -74.5t-67 -89h375v-110z" />
<glyph unicode="&#xbe;" horiz-adv-x="1614" d="M287 0l952 1549h143l-951 -1549h-144zM1437 287h89v-110h-89v-177h-120v177h-366v110l343 487h143v-487zM1317 287v344l-245 -344h245zM498 1184q4 -2 12.5 -4.5t30 -17t37 -33.5t28.5 -54t13 -79q0 -102 -72 -167t-193 -65q-88 0 -160 32.5t-101 66.5l-27 32l78 89 q8 -13 25 -31t71 -48.5t114 -30.5q144 0 144 122q0 59 -41 95.5t-115 36.5h-87v111h87q58 0 90 29.5t32 80.5q0 44 -34 71.5t-98 27.5q-47 0 -88 -24t-58 -48l-18 -25l-79 82q8 13 26 34t82 57t135 36q112 0 183 -62.5t71 -148.5q0 -59 -22 -100.5t-45 -54.5z" />
<glyph unicode="&#xbf;" horiz-adv-x="1028" d="M498 686h154q11 -49 11 -100q0 -82 -32 -150.5t-79.5 -110.5t-104 -86.5t-104 -81.5t-79.5 -96t-32 -127q0 -110 87.5 -188t233.5 -78q80 0 144 25.5t97 60.5t55.5 71t28.5 61l7 25l143 -44q-2 -15 -9.5 -38t-43 -84t-83 -107.5t-138.5 -85.5t-201 -39q-211 0 -349 125 t-138 296q0 97 32.5 172t80 117.5t103.5 85.5t103.5 80.5t80 102.5t32.5 150v44zM686 973q0 -49 -31 -79.5t-80 -30.5t-80 30.5t-31 79.5t31 80t80 31t80 -31t31 -80z" />
<glyph unicode="&#xc0;" horiz-adv-x="1547" d="M1072 586l-298 731l-299 -731h597zM1139 431h-730l-177 -431h-177l642 1549h154l642 -1549h-176zM663 2057l166 -299h-122l-209 299h165z" />
<glyph unicode="&#xc1;" horiz-adv-x="1547" d="M1072 586l-298 731l-299 -731h597zM1139 431h-730l-177 -431h-177l642 1549h154l642 -1549h-176zM730 1758l165 299h167l-211 -299h-121z" />
<glyph unicode="&#xc2;" horiz-adv-x="1547" d="M1072 586l-298 731l-299 -731h597zM1139 431h-730l-177 -431h-177l642 1549h154l642 -1549h-176zM851 2057l244 -299h-144l-177 211l-177 -211h-143l243 299h154z" />
<glyph unicode="&#xc3;" horiz-adv-x="1547" d="M1072 586l-298 731l-299 -731h597zM1139 431h-730l-177 -431h-177l642 1549h154l642 -1549h-176zM631 1902q-36 0 -62.5 -36t-26.5 -108h-111q0 129 56.5 197.5t143.5 68.5q66 0 116.5 -37t90.5 -72t80 -35q36 0 62.5 36.5t26.5 107.5h110q0 -129 -56.5 -197.5 t-142.5 -68.5q-66 0 -117 37t-90.5 72t-79.5 35z" />
<glyph unicode="&#xc4;" horiz-adv-x="1547" d="M1072 586l-298 731l-299 -731h597zM1139 431h-730l-177 -431h-177l642 1549h154l642 -1549h-176zM464 1893q0 42 29 71t71 29t70.5 -29t28.5 -71t-28.5 -70.5t-70.5 -28.5t-71 28.5t-29 70.5zM885 1893q0 42 28.5 71t70.5 29t71 -29t29 -71t-29 -70.5t-71 -28.5 t-70.5 28.5t-28.5 70.5z" />
<glyph unicode="&#xc5;" horiz-adv-x="1547" d="M1072 586l-298 731l-299 -731h597zM1139 431h-730l-177 -431h-177l642 1549h154l642 -1549h-176zM675 1901.5q0 -48.5 28.5 -79t70.5 -30.5t71 30.5t29 79t-29 80t-71 31.5t-70.5 -31.5t-28.5 -80zM984 1902q0 -91 -59.5 -150.5t-150 -59.5t-150.5 59.5t-60 150.5 t60 150.5t150.5 59.5t150 -59.5t59.5 -150.5z" />
<glyph unicode="&#xc6;" horiz-adv-x="2123" d="M1205 154h819v-154h-984v454h-653l-254 -454h-177l863 1549h1182v-156h-796v-508h620v-155h-620v-576zM907 1393l-443 -785h576v785h-133z" />
<glyph unicode="&#xc7;" horiz-adv-x="1658" d="M133 774q0 332 232 564t564 232q118 0 226 -33t178.5 -79t124 -93.5t77.5 -81.5l25 -33l-112 -100q-6 11 -19 29t-60.5 63t-103 80.5t-146.5 64.5t-190 29q-266 0 -448.5 -184.5t-182.5 -457t182.5 -457t448.5 -184.5q99 0 190 27.5t150.5 66.5t105 77t65.5 68l20 27 l110 -101q-8 -13 -25 -33t-75 -74t-124.5 -95t-173 -77t-218.5 -38l-47 -103h11q82 0 129.5 -44.5t47.5 -114.5q0 -73 -56.5 -123t-153.5 -50q-49 0 -96.5 18t-69.5 35l-22 19l44 72q55 -55 144 -55q48 0 79.5 26.5t31.5 62.5q0 33 -24.5 55t-64.5 22q-17 0 -34 -6t-24 -12 l-9 -4l-55 55l69 149q-308 27 -514.5 253t-206.5 538z" />
<glyph unicode="&#xc8;" horiz-adv-x="1414" d="M399 154h918v-154h-1085v1549h1062v-156h-895v-508h718v-155h-718v-576zM697 2057l166 -299h-122l-210 299h166z" />
<glyph unicode="&#xc9;" horiz-adv-x="1414" d="M399 154h918v-154h-1085v1549h1062v-156h-895v-508h718v-155h-718v-576zM697 1758l166 299h165l-209 -299h-122z" />
<glyph unicode="&#xca;" horiz-adv-x="1414" d="M399 154h918v-154h-1085v1549h1062v-156h-895v-508h718v-155h-718v-576zM851 2046l244 -299h-144l-177 210l-177 -210h-143l243 299h154z" />
<glyph unicode="&#xcb;" horiz-adv-x="1414" d="M399 154h918v-154h-1085v1549h1062v-156h-895v-508h718v-155h-718v-576zM464 1891q0 42 29 70.5t71 28.5t70.5 -28.5t28.5 -70.5t-28.5 -70.5t-70.5 -28.5t-71 28.5t-29 70.5zM885 1891q0 42 28.5 70.5t70.5 28.5t71 -28.5t29 -70.5t-29 -70.5t-71 -28.5t-70.5 28.5 t-28.5 70.5z" />
<glyph unicode="&#xcc;" horiz-adv-x="629" d="M232 0v1549h167v-1549h-167zM211 2057l165 -299h-121l-211 299h167z" />
<glyph unicode="&#xcd;" horiz-adv-x="629" d="M232 0v1549h167v-1549h-167zM266 1758l165 299h166l-210 -299h-121z" />
<glyph unicode="&#xce;" horiz-adv-x="629" d="M232 0v1549h167v-1549h-167zM399 2046l243 -299h-144l-177 210l-177 -210h-144l243 299h156z" />
<glyph unicode="&#xcf;" horiz-adv-x="629" d="M232 0v1549h167v-1549h-167zM11 1891q0 42 28.5 70.5t70.5 28.5t71.5 -28.5t29.5 -70.5t-29.5 -70.5t-71.5 -28.5t-70.5 28.5t-28.5 70.5zM431 1891q0 42 29 70.5t70.5 28.5t71 -28.5t29.5 -70.5t-29.5 -70.5t-71 -28.5t-70.5 28.5t-29 70.5z" />
<glyph unicode="&#xd0;" horiz-adv-x="1691" d="M266 1549h486q338 0 573 -228t235 -546.5t-234.5 -546.5t-573.5 -228h-486v697h-211v154h211v698zM752 1393h-321v-542h377v-154h-377v-543h321q272 0 456.5 180.5t184.5 439t-184.5 439t-456.5 180.5z" />
<glyph unicode="&#xd1;" horiz-adv-x="1724" d="M1327 1549h166v-1549h-144l-950 1250v-1250h-167v1549h144l951 -1251v1251zM719 1902q-35 0 -61.5 -36t-26.5 -108h-112q0 129 57 197.5t143 68.5q66 0 117 -37t91 -72t80 -35q35 0 61.5 36.5t26.5 107.5h110q0 -129 -56 -197.5t-142 -68.5q-66 0 -117.5 37t-91 72 t-79.5 35z" />
<glyph unicode="&#xd2;" horiz-adv-x="1857" d="M298 774.5q0 -272.5 182.5 -457t448 -184.5t448.5 184.5t183 457t-183 457t-448.5 184.5t-448 -184.5t-182.5 -457zM1725 774.5q0 -331.5 -232.5 -564t-564 -232.5t-563.5 232.5t-232 564t232 563.5t563.5 232t564 -232t232.5 -563.5zM829 2057l167 -299h-122l-211 299 h166z" />
<glyph unicode="&#xd3;" horiz-adv-x="1857" d="M298 774.5q0 -272.5 182.5 -457t448 -184.5t448.5 184.5t183 457t-183 457t-448.5 184.5t-448 -184.5t-182.5 -457zM1725 774.5q0 -331.5 -232.5 -564t-564 -232.5t-563.5 232.5t-232 564t232 563.5t563.5 232t564 -232t232.5 -563.5zM885 1758l166 299h165l-209 -299 h-122z" />
<glyph unicode="&#xd4;" horiz-adv-x="1857" d="M298 774.5q0 -272.5 182.5 -457t448 -184.5t448.5 184.5t183 457t-183 457t-448.5 184.5t-448 -184.5t-182.5 -457zM1725 774.5q0 -331.5 -232.5 -564t-564 -232.5t-563.5 232.5t-232 564t232 563.5t563.5 232t564 -232t232.5 -563.5zM1007 2046l243 -299h-144l-177 210 l-177 -210h-144l243 299h156z" />
<glyph unicode="&#xd5;" horiz-adv-x="1857" d="M298 774.5q0 -272.5 182.5 -457t448 -184.5t448.5 184.5t183 457t-183 457t-448.5 184.5t-448 -184.5t-182.5 -457zM1725 774.5q0 -331.5 -232.5 -564t-564 -232.5t-563.5 232.5t-232 564t232 563.5t563.5 232t564 -232t232.5 -563.5zM796 1902q-36 0 -62.5 -36 t-26.5 -108h-110q0 129 56.5 197.5t142.5 68.5q66 0 117 -37t91 -72t80 -35q36 0 62 36.5t26 107.5h111q0 -129 -56.5 -197.5t-142.5 -68.5q-66 0 -117 37t-91 72t-80 35z" />
<glyph unicode="&#xd6;" horiz-adv-x="1857" d="M298 774.5q0 -272.5 182.5 -457t448 -184.5t448.5 184.5t183 457t-183 457t-448.5 184.5t-448 -184.5t-182.5 -457zM1725 774.5q0 -331.5 -232.5 -564t-564 -232.5t-563.5 232.5t-232 564t232 563.5t563.5 232t564 -232t232.5 -563.5zM619 1891q0 42 29 70.5t71 28.5 t71 -28.5t29 -70.5t-29 -70.5t-71 -28.5t-71 28.5t-29 70.5zM1040 1891q0 42 28.5 70.5t71 28.5t71 -28.5t28.5 -70.5t-28.5 -70.5t-71 -28.5t-71 28.5t-28.5 70.5z" />
<glyph unicode="&#xd7;" horiz-adv-x="1017" d="M199 1095l310 -310l310 310l99 -99l-310 -310l310 -310l-99 -100l-310 310l-310 -310l-100 100l310 310l-310 310z" />
<glyph unicode="&#xd8;" horiz-adv-x="1857" d="M420 376l907 907q-17 15 -49.5 37t-136 59t-212.5 37q-266 0 -448.5 -184.5t-182.5 -457.5q0 -108 30.5 -207.5t60.5 -146.5zM1560 774q0 108 -30 207.5t-61 146.5l-32 44l-906 -906q18 -15 49.5 -38t136 -59t212.5 -36q265 0 448 184.5t183 456.5zM1725 774 q0 -331 -232.5 -563.5t-563.5 -232.5q-137 0 -264 44t-188 88l-57 44l-199 -198l-111 110l200 200q-7 8 -19 22.5t-43 66.5t-54 107t-42 140.5t-19 171.5q0 332 232 564t564 232q137 0 264.5 -44t186.5 -89l57 -44l200 200l110 -111l-198 -199q6 -9 18 -23.5t43.5 -66 t54.5 -107.5t41.5 -140.5t18.5 -171.5z" />
<glyph unicode="&#xd9;" horiz-adv-x="1680" d="M840 133q192 0 328.5 138t136.5 337v941h166v-941q0 -257 -187 -443.5t-443.5 -186.5t-443 187t-186.5 443v941h165v-941q0 -199 136 -337t328 -138zM764 2057l165 -299h-121l-211 299h167z" />
<glyph unicode="&#xda;" horiz-adv-x="1680" d="M840 133q192 0 328.5 138t136.5 337v941h166v-941q0 -257 -187 -443.5t-443.5 -186.5t-443 187t-186.5 443v941h165v-941q0 -199 136 -337t328 -138zM764 1758l165 299h166l-210 -299h-121z" />
<glyph unicode="&#xdb;" horiz-adv-x="1680" d="M840 133q192 0 328.5 138t136.5 337v941h166v-941q0 -257 -187 -443.5t-443.5 -186.5t-443 187t-186.5 443v941h165v-941q0 -199 136 -337t328 -138zM918 2046l243 -299h-144l-177 210l-177 -210h-144l245 299h154z" />
<glyph unicode="&#xdc;" horiz-adv-x="1680" d="M840 133q192 0 328.5 138t136.5 337v941h166v-941q0 -257 -187 -443.5t-443.5 -186.5t-443 187t-186.5 443v941h165v-941q0 -199 136 -337t328 -138zM519 1891q0 42 29.5 70.5t71 28.5t70.5 -28.5t29 -70.5t-29 -70.5t-70.5 -28.5t-71 28.5t-29.5 70.5zM940 1891 q0 42 29 70.5t70.5 28.5t70.5 -28.5t29 -70.5t-29 -70.5t-70.5 -28.5t-70.5 28.5t-29 70.5z" />
<glyph unicode="&#xdd;" horiz-adv-x="1404" d="M697 719h10l465 830h189l-576 -1007v-542h-166v542l-575 1007h188zM652 1758l167 299h165l-210 -299h-122z" />
<glyph unicode="&#xde;" horiz-adv-x="1437" d="M399 1239v-885h264q213 0 344.5 125t131.5 317t-131.5 317.5t-344.5 125.5h-264zM399 1393h264q279 0 460.5 -172t181.5 -424.5t-181.5 -425t-460.5 -172.5h-264v-243h-167v1637h167v-200z" />
<glyph unicode="&#xdf;" horiz-adv-x="1293" d="M874 851q10 -4 31.5 -11.5t72 -39.5t90.5 -72t72 -114t32 -160q0 -193 -134.5 -323.5t-340.5 -130.5h-100v154h100q139 0 229.5 86.5t90.5 213t-90.5 212.5t-229.5 86h-100v155h22q118 0 203 74t85 180q0 108 -83 187t-205 79q-124 0 -205.5 -79.5t-81.5 -197.5v-1150 h-155v1150q0 175 127 297.5t315.5 122.5t315.5 -120.5t127 -288.5q0 -59 -20 -113t-46.5 -89t-54 -60t-48.5 -36z" />
<glyph unicode="&#xe0;" horiz-adv-x="1149" d="M399 608l409 67q0 118 -74.5 191.5t-191.5 73.5q-84 0 -158 -38.5t-108 -78.5l-33 -38l-99 100q6 8 17.5 21.5t49.5 47.5t80.5 61t111 48t139.5 21q182 0 301 -117.5t119 -291.5v-675h-154v144q-4 -7 -13.5 -18.5t-41.5 -40t-68.5 -50.5t-96.5 -39.5t-124 -17.5 q-158 0 -266.5 94t-108.5 215q0 133 79.5 214.5t230.5 106.5zM464 122q151 0 247.5 98.5t96.5 254.5v67l-365 -67q-199 -38 -200 -188q0 -71 59 -118t162 -47zM475 1549l167 -299h-123l-209 299h165z" />
<glyph unicode="&#xe1;" horiz-adv-x="1149" d="M399 608l409 67q0 118 -74.5 191.5t-191.5 73.5q-84 0 -158 -38.5t-108 -78.5l-33 -38l-99 100q6 8 17.5 21.5t49.5 47.5t80.5 61t111 48t139.5 21q182 0 301 -117.5t119 -291.5v-675h-154v144q-4 -7 -13.5 -18.5t-41.5 -40t-68.5 -50.5t-96.5 -39.5t-124 -17.5 q-158 0 -266.5 94t-108.5 215q0 133 79.5 214.5t230.5 106.5zM464 122q151 0 247.5 98.5t96.5 254.5v67l-365 -67q-199 -38 -200 -188q0 -71 59 -118t162 -47zM509 1250l166 299h165l-209 -299h-122z" />
<glyph unicode="&#xe2;" horiz-adv-x="1149" d="M399 608l409 67q0 118 -74.5 191.5t-191.5 73.5q-84 0 -158 -38.5t-108 -78.5l-33 -38l-99 100q6 8 17.5 21.5t49.5 47.5t80.5 61t111 48t139.5 21q182 0 301 -117.5t119 -291.5v-675h-154v144q-4 -7 -13.5 -18.5t-41.5 -40t-68.5 -50.5t-96.5 -39.5t-124 -17.5 q-158 0 -266.5 94t-108.5 215q0 133 79.5 214.5t230.5 106.5zM464 122q151 0 247.5 98.5t96.5 254.5v67l-365 -67q-199 -38 -200 -188q0 -71 59 -118t162 -47zM663 1549l244 -299h-143l-178 210l-177 -210h-143l243 299h154z" />
<glyph unicode="&#xe3;" horiz-adv-x="1149" d="M399 608l409 67q0 118 -74.5 191.5t-191.5 73.5q-84 0 -158 -38.5t-108 -78.5l-33 -38l-99 100q6 8 17.5 21.5t49.5 47.5t80.5 61t111 48t139.5 21q182 0 301 -117.5t119 -291.5v-675h-154v144q-4 -7 -13.5 -18.5t-41.5 -40t-68.5 -50.5t-96.5 -39.5t-124 -17.5 q-158 0 -266.5 94t-108.5 215q0 133 79.5 214.5t230.5 106.5zM464 122q151 0 247.5 98.5t96.5 254.5v67l-365 -67q-199 -38 -200 -188q0 -71 59 -118t162 -47zM431 1393q-36 0 -62.5 -36t-26.5 -107h-110q0 128 56.5 196.5t142.5 68.5q66 0 117 -36.5t91 -71.5t80 -35 q36 0 62.5 36t26.5 107h110q0 -128 -56.5 -196.5t-142.5 -68.5q-66 0 -117 36.5t-91 71.5t-80 35z" />
<glyph unicode="&#xe4;" horiz-adv-x="1149" d="M399 608l409 67q0 118 -74.5 191.5t-191.5 73.5q-84 0 -158 -38.5t-108 -78.5l-33 -38l-99 100q6 8 17.5 21.5t49.5 47.5t80.5 61t111 48t139.5 21q182 0 301 -117.5t119 -291.5v-675h-154v144q-4 -7 -13.5 -18.5t-41.5 -40t-68.5 -50.5t-96.5 -39.5t-124 -17.5 q-158 0 -266.5 94t-108.5 215q0 133 79.5 214.5t230.5 106.5zM464 122q151 0 247.5 98.5t96.5 254.5v67l-365 -67q-199 -38 -200 -188q0 -71 59 -118t162 -47zM266 1393q0 42 28.5 71t70.5 29t70.5 -29t28.5 -71t-28.5 -70.5t-70.5 -28.5t-70.5 28.5t-28.5 70.5zM686 1393 q0 42 28.5 71t70.5 29t71 -29t29 -71t-29 -70.5t-71 -28.5t-70.5 28.5t-28.5 70.5z" />
<glyph unicode="&#xe5;" horiz-adv-x="1149" d="M399 608l409 67q0 118 -74.5 191.5t-191.5 73.5q-84 0 -158 -38.5t-108 -78.5l-33 -38l-99 100q6 8 17.5 21.5t49.5 47.5t80.5 61t111 48t139.5 21q182 0 301 -117.5t119 -291.5v-675h-154v144q-4 -7 -13.5 -18.5t-41.5 -40t-68.5 -50.5t-96.5 -39.5t-124 -17.5 q-158 0 -266.5 94t-108.5 215q0 133 79.5 214.5t230.5 106.5zM464 122q151 0 247.5 98.5t96.5 254.5v67l-365 -67q-199 -38 -200 -188q0 -71 59 -118t162 -47zM475 1415.5q0 -48.5 29.5 -79.5t71 -31t70.5 31t29 79.5t-29 79.5t-70.5 31t-71 -31t-29.5 -79.5zM785 1416 q0 -91 -60 -151t-150 -60t-150 60t-60 151t60 150t150 59t150 -59t60 -150z" />
<glyph unicode="&#xe6;" horiz-adv-x="1923" d="M1803 475h-830q9 -141 118.5 -247t250.5 -106q98 0 181 44.5t119 88.5l32 43l103 -99q-7 -9 -18.5 -24.5t-52.5 -53t-87.5 -66t-121.5 -53t-155 -24.5q-84 0 -161 27.5t-127 66t-87.5 77.5t-54.5 68l-17 26q-4 -11 -13.5 -28.5t-45.5 -63t-81 -80.5t-122.5 -64 t-168.5 -29q-168 0 -271.5 90.5t-103.5 218.5q0 135 104.5 233.5t260.5 98.5h365v33q0 129 -74 208.5t-192 79.5q-84 0 -156 -38.5t-101 -78.5l-30 -38l-100 100q5 8 15.5 21.5t47.5 47.5t78 61t107 48t137 21q75 0 140 -23t105 -55.5t68.5 -64.5t42.5 -56l11 -22 q6 9 17.5 24.5t50 52.5t82.5 66t114 53.5t145 24.5q203 0 344.5 -152.5t141.5 -389.5zM1327.5 940q-130.5 0 -233.5 -96.5t-121 -224.5h697q-25 143 -118.5 232t-224 89zM464 122q155 0 255 103.5t100 249.5h-365q-98 0 -154.5 -51.5t-56.5 -136.5q0 -71 59 -118t162 -47z " />
<glyph unicode="&#xe7;" horiz-adv-x="1138" d="M89 531q0 230 157 391.5t373 161.5q124 0 231.5 -53.5t153.5 -106.5l47 -50l-111 -110q-5 6 -13.5 18t-38 43t-64.5 54.5t-90 42t-115 18.5q-152 0 -264 -118.5t-112 -290.5t112 -290.5t264 -118.5q93 0 176 44.5t121 88.5l35 43l111 -99q-7 -9 -18.5 -22t-52 -48.5 t-84.5 -64t-112.5 -54t-140.5 -29.5l-46 -103h11q82 0 129.5 -44.5t47.5 -114.5q0 -73 -56 -123t-154 -50q-48 0 -95.5 18t-70.5 35l-21 19l44 72q55 -55 143 -55q49 0 80 26.5t31 62.5q0 33 -24.5 55t-64.5 22q-17 0 -34 -6t-25 -12l-7 -4l-55 55l68 149 q-196 25 -331 180.5t-135 367.5z" />
<glyph unicode="&#xe8;" horiz-adv-x="1226" d="M1106 473l-863 2q9 -143 118.5 -248t257.5 -105q99 0 184.5 44.5t120.5 88.5l38 43l100 -99q-7 -9 -19.5 -24.5t-54 -53t-89.5 -66t-124 -53t-156 -24.5q-217 0 -373.5 161.5t-156.5 391.5t155 391.5t364 161.5q217 0 363 -150.5t146 -380.5zM608 940q-139 0 -243 -98.5 t-122 -233.5h719q-17 144 -116 238t-238 94zM519 1549l167 -299h-122l-210 299h165z" />
<glyph unicode="&#xe9;" horiz-adv-x="1226" d="M1106 473l-863 2q9 -143 118.5 -248t257.5 -105q99 0 184.5 44.5t120.5 88.5l38 43l100 -99q-7 -9 -19.5 -24.5t-54 -53t-89.5 -66t-124 -53t-156 -24.5q-217 0 -373.5 161.5t-156.5 391.5t155 391.5t364 161.5q217 0 363 -150.5t146 -380.5zM608 940q-139 0 -243 -98.5 t-122 -233.5h719q-17 144 -116 238t-238 94zM553 1250l166 299h166l-210 -299h-122z" />
<glyph unicode="&#xea;" horiz-adv-x="1226" d="M1106 473l-863 2q9 -143 118.5 -248t257.5 -105q99 0 184.5 44.5t120.5 88.5l38 43l100 -99q-7 -9 -19.5 -24.5t-54 -53t-89.5 -66t-124 -53t-156 -24.5q-217 0 -373.5 161.5t-156.5 391.5t155 391.5t364 161.5q217 0 363 -150.5t146 -380.5zM608 940q-139 0 -243 -98.5 t-122 -233.5h719q-17 144 -116 238t-238 94zM697 1549l243 -299h-144l-177 210l-176 -210h-145l244 299h155z" />
<glyph unicode="&#xeb;" horiz-adv-x="1226" d="M1106 473l-863 2q9 -143 118.5 -248t257.5 -105q99 0 184.5 44.5t120.5 88.5l38 43l100 -99q-7 -9 -19.5 -24.5t-54 -53t-89.5 -66t-124 -53t-156 -24.5q-217 0 -373.5 161.5t-156.5 391.5t155 391.5t364 161.5q217 0 363 -150.5t146 -380.5zM608 940q-139 0 -243 -98.5 t-122 -233.5h719q-17 144 -116 238t-238 94zM298 1393q0 42 29 71t71.5 29t71 -29t28.5 -71t-28.5 -70.5t-71 -28.5t-71.5 28.5t-29 70.5zM719 1393q0 42 29 71t71 29t70.5 -29t28.5 -71t-28.5 -70.5t-70.5 -28.5t-71 28.5t-29 70.5z" />
<glyph unicode="&#xec;" horiz-adv-x="508" d="M133 1549l165 -299h-121l-210 299h166zM166 0v1062h155v-1062h-155z" />
<glyph unicode="&#xed;" horiz-adv-x="508" d="M177 1250l165 299h167l-211 -299h-121zM166 0v1062h155v-1062h-155z" />
<glyph unicode="&#xee;" horiz-adv-x="508" d="M166 0v1062h155v-1062h-155zM321 1549l243 -299h-144l-177 210l-177 -210h-144l244 299h155z" />
<glyph unicode="&#xef;" horiz-adv-x="508" d="M-66 1393q0 42 28.5 71t71 29t71 -29t28.5 -71t-28.5 -70.5t-71 -28.5t-71 28.5t-28.5 70.5zM354 1393q0 42 28.5 71t71 29t71 -29t28.5 -71t-28.5 -70.5t-71 -28.5t-71 28.5t-28.5 70.5zM166 0v1062h155v-1062h-155z" />
<glyph unicode="&#xf0;" horiz-adv-x="1271" d="M962 1615l-221 -155q15 -8 42 -28t93 -93.5t117 -159.5t93 -231.5t42 -305.5q0 -315 -149.5 -489.5t-381.5 -174.5q-210 0 -359 154.5t-149 376.5q0 215 153.5 373t354.5 158q113 0 206.5 -53.5t131.5 -106.5l38 -51q-17 102 -60.5 196t-89.5 154t-90.5 106.5t-73.5 65.5 l-28 21l-255 -188l-78 121l200 143q-110 78 -255 112l44 132q85 -24 168 -62.5t125 -65.5l39 -27l266 188zM951 509q0 164 -105 275t-248.5 111t-249 -111t-105.5 -275t105.5 -275.5t249 -111.5t248.5 111.5t105 275.5z" />
<glyph unicode="&#xf1;" d="M321 1062v-155q4 7 12.5 18.5t41 43t69 55t96 42t123.5 18.5q192 0 312 -124t120 -329v-631h-155v631q0 139 -80.5 224t-207.5 85q-141 0 -236 -99.5t-95 -254.5v-586h-155v1062h155zM487 1393q-36 0 -62 -36t-26 -107h-112q0 128 57 196.5t143 68.5q66 0 116.5 -36.5 t90.5 -71.5t80 -35q36 0 62.5 36t26.5 107h110q0 -128 -56 -196.5t-143 -68.5q-66 0 -117 36.5t-90.5 71.5t-79.5 35z" />
<glyph unicode="&#xf2;" d="M1017 531q0 172 -114 290.5t-273 118.5t-273 -118.5t-114 -290.5q0 -170 114 -289.5t273 -119.5t273 118.5t114 290.5zM89 531q0 233 158 393t383.5 160t383.5 -160t158 -393t-158 -393t-383.5 -160t-383.5 160t-158 393zM519 1549l167 -299h-122l-210 299h165z" />
<glyph unicode="&#xf3;" d="M1017 531q0 172 -114 290.5t-273 118.5t-273 -118.5t-114 -290.5q0 -170 114 -289.5t273 -119.5t273 118.5t114 290.5zM89 531q0 233 158 393t383.5 160t383.5 -160t158 -393t-158 -393t-383.5 -160t-383.5 160t-158 393zM564 1250l166 299h165l-209 -299h-122z" />
<glyph unicode="&#xf4;" d="M1017 531q0 172 -114 290.5t-273 118.5t-273 -118.5t-114 -290.5q0 -170 114 -289.5t273 -119.5t273 118.5t114 290.5zM89 531q0 233 158 393t383.5 160t383.5 -160t158 -393t-158 -393t-383.5 -160t-383.5 160t-158 393zM707 1549l244 -299h-143l-177 210l-177 -210 h-144l243 299h154z" />
<glyph unicode="&#xf5;" d="M1017 531q0 172 -114 290.5t-273 118.5t-273 -118.5t-114 -290.5q0 -170 114 -289.5t273 -119.5t273 118.5t114 290.5zM89 531q0 233 158 393t383.5 160t383.5 -160t158 -393t-158 -393t-383.5 -160t-383.5 160t-158 393zM487 1393q-36 0 -62 -36t-26 -107h-112 q0 128 57 196.5t143 68.5q66 0 116.5 -36.5t90.5 -71.5t80 -35q36 0 62.5 36t26.5 107h110q0 -128 -56 -196.5t-143 -68.5q-66 0 -117 36.5t-90.5 71.5t-79.5 35z" />
<glyph unicode="&#xf6;" d="M1017 531q0 172 -114 290.5t-273 118.5t-273 -118.5t-114 -290.5q0 -170 114 -289.5t273 -119.5t273 118.5t114 290.5zM89 531q0 233 158 393t383.5 160t383.5 -160t158 -393t-158 -393t-383.5 -160t-383.5 160t-158 393zM310 1393q0 42 28.5 71t70.5 29t71 -29t29 -71 t-29 -70.5t-71 -28.5t-70.5 28.5t-28.5 70.5zM730 1393q0 42 28.5 71t71 29t71 -29t28.5 -71t-28.5 -70.5t-71 -28.5t-71 28.5t-28.5 70.5z" />
<glyph unicode="&#xf7;" horiz-adv-x="1127" d="M1028 719v-144h-929v144h929zM675 254.5q0 -51.5 -30 -81t-81 -29.5t-80.5 29.5t-29.5 81t29.5 81t80.5 29.5t81 -29.5t30 -81zM454 1040q0 49 29.5 79.5t80.5 30.5t81 -30.5t30 -79.5t-30 -80t-81 -31t-80.5 31t-29.5 80z" />
<glyph unicode="&#xf8;" d="M310 298l541 565q-89 78 -220 77q-159 0 -273.5 -118.5t-114.5 -290.5q0 -63 16.5 -121t32.5 -85zM1017 531q0 64 -16.5 121.5t-31.5 84.5l-18 27l-542 -565q89 -78 222 -77q158 0 272 118.5t114 290.5zM1172 531q0 -232 -158 -392.5t-383 -160.5q-89 0 -170 27.5 t-116 56.5l-35 27l-144 -144l-100 99l145 144q-13 13 -33.5 40t-54.5 116t-34 187q0 233 158 393t384 160q88 0 168.5 -28t116.5 -56l35 -27l144 144l99 -100l-143 -143q13 -13 33 -39.5t54 -116t34 -187.5z" />
<glyph unicode="&#xf9;" horiz-adv-x="1293" d="M940 0v144q-5 -7 -13.5 -18.5t-40.5 -40t-68.5 -50.5t-96.5 -39.5t-124 -17.5q-186 0 -308.5 129.5t-122.5 335.5v619h155v-619q0 -140 86.5 -230.5t211.5 -90.5q135 0 228 99.5t93 253.5v587h155v-1062h-155zM531 1549l166 -299h-122l-210 299h166z" />
<glyph unicode="&#xfa;" horiz-adv-x="1293" d="M940 0v144q-5 -7 -13.5 -18.5t-40.5 -40t-68.5 -50.5t-96.5 -39.5t-124 -17.5q-186 0 -308.5 129.5t-122.5 335.5v619h155v-619q0 -140 86.5 -230.5t211.5 -90.5q135 0 228 99.5t93 253.5v587h155v-1062h-155zM553 1250l166 299h166l-210 -299h-122z" />
<glyph unicode="&#xfb;" horiz-adv-x="1293" d="M940 0v144q-5 -7 -13.5 -18.5t-40.5 -40t-68.5 -50.5t-96.5 -39.5t-124 -17.5q-186 0 -308.5 129.5t-122.5 335.5v619h155v-619q0 -140 86.5 -230.5t211.5 -90.5q135 0 228 99.5t93 253.5v587h155v-1062h-155zM707 1549l244 -299h-143l-177 210l-177 -210h-144l243 299 h154z" />
<glyph unicode="&#xfc;" horiz-adv-x="1293" d="M940 0v144q-5 -7 -13.5 -18.5t-40.5 -40t-68.5 -50.5t-96.5 -39.5t-124 -17.5q-186 0 -308.5 129.5t-122.5 335.5v619h155v-619q0 -140 86.5 -230.5t211.5 -90.5q135 0 228 99.5t93 253.5v587h155v-1062h-155zM310 1382.5q0 42.5 28.5 71t70.5 28.5t71 -28.5t29 -71 t-29 -71t-71 -28.5t-70.5 28.5t-28.5 71zM730 1382.5q0 42.5 28.5 71t71 28.5t71 -28.5t28.5 -71t-28.5 -71t-71 -28.5t-71 28.5t-28.5 71z" />
<glyph unicode="&#xfd;" horiz-adv-x="1083" d="M399 -154l55 154l-432 1062h166l343 -863l343 863h166l-487 -1216q-66 -169 -141.5 -239.5t-190.5 -70.5q-35 0 -68 5t-49 12l-15 4v145q55 -22 110 -23q140 0 200 167zM487 1250l165 299h167l-211 -299h-121z" />
<glyph unicode="&#xfe;" horiz-adv-x="1326" d="M332 530.5q0 -163.5 116 -286t259 -122.5q138 0 246.5 119.5t108.5 289.5t-108.5 289.5t-246.5 119.5q-143 0 -259 -123t-116 -286.5zM332 166v-630h-155v2013h155v-654q4 7 15.5 20.5t46.5 46t76 57.5t105 45t132 20q203 0 356 -163t153 -390.5t-152 -390t-357 -162.5 q-68 0 -131 19.5t-106 46.5t-75 54.5t-47 47.5z" />
<glyph unicode="&#xff;" horiz-adv-x="1083" d="M399 -154l55 154l-432 1062h166l343 -863l343 863h166l-487 -1216q-66 -169 -141.5 -239.5t-190.5 -70.5q-35 0 -68 5t-49 12l-15 4v145q55 -22 110 -23q140 0 200 167zM211 1393q0 42 28.5 71t70.5 29t70.5 -29t28.5 -71t-28.5 -70.5t-70.5 -28.5t-70.5 28.5t-28.5 70.5 zM631 1393q0 42 28.5 71t70.5 29t70.5 -29t28.5 -71t-28.5 -70.5t-70.5 -28.5t-70.5 28.5t-28.5 70.5z" />
<glyph unicode="&#x152;" horiz-adv-x="2222" d="M1305 154h818v-154h-1205q-332 0 -558.5 224.5t-226.5 549.5t226.5 550t558.5 225h1184v-156h-797v-508h620v-155h-620v-576zM298 774.5q0 -265.5 177 -443t443 -177.5h221v1239h-221q-266 0 -443 -176.5t-177 -442z" />
<glyph unicode="&#x153;" horiz-adv-x="2079" d="M1957 464h-829q17 -143 121 -242.5t244 -99.5q97 0 180 44.5t119 88.5l33 43l100 -99q-7 -9 -18.5 -24.5t-51.5 -53t-86 -66t-121.5 -53t-154.5 -24.5q-87 0 -164 29t-125.5 68t-85.5 80.5t-52 70.5l-15 29q-7 -11 -18 -30.5t-52 -67t-88.5 -83.5t-124 -66t-160.5 -30 q-211 0 -365 161.5t-154 391.5t155 391.5t364 161.5q84 0 160.5 -29t126 -68.5t86 -80.5t54.5 -70l16 -28q4 11 15 29.5t50 66t84 84t121.5 66.5t160.5 30q203 0 345 -152.5t142 -389.5zM243 531q0 -170 110.5 -289.5t254.5 -119.5t254.5 119.5t110.5 289.5t-110.5 289.5 t-254.5 119.5t-254.5 -119.5t-110.5 -289.5zM1482 940q-131 0 -233.5 -98.5t-120.5 -233.5h685q-17 148 -107.5 240t-223.5 92z" />
<glyph unicode="&#x178;" horiz-adv-x="1404" d="M697 719h10l465 830h189l-576 -1007v-542h-166v542l-575 1007h188zM399 1891q0 42 28.5 70.5t70.5 28.5t70.5 -28.5t28.5 -70.5t-28.5 -70.5t-70.5 -28.5t-70.5 28.5t-28.5 70.5zM819 1891q0 42 28.5 70.5t70.5 28.5t70.5 -28.5t28.5 -70.5t-28.5 -70.5t-70.5 -28.5 t-70.5 28.5t-28.5 70.5z" />
<glyph unicode="&#x2c6;" horiz-adv-x="773" d="M464 1549l243 -299h-143l-177 210l-176 -210h-145l244 299h154z" />
<glyph unicode="&#x2dc;" horiz-adv-x="817" d="M266 1416q-36 0 -62.5 -37t-26.5 -107h-111q0 129 56.5 197t143.5 68q66 0 116.5 -36.5t90.5 -72t80 -35.5q36 0 62.5 37t26.5 107h110q0 -129 -56.5 -197t-142.5 -68q-66 0 -117.5 36.5t-90.5 72t-79 35.5z" />
<glyph unicode="&#x2000;" horiz-adv-x="1056" />
<glyph unicode="&#x2001;" horiz-adv-x="2112" />
<glyph unicode="&#x2002;" horiz-adv-x="1056" />
<glyph unicode="&#x2003;" horiz-adv-x="2112" />
<glyph unicode="&#x2004;" horiz-adv-x="704" />
<glyph unicode="&#x2005;" horiz-adv-x="528" />
<glyph unicode="&#x2006;" horiz-adv-x="352" />
<glyph unicode="&#x2007;" horiz-adv-x="352" />
<glyph unicode="&#x2008;" horiz-adv-x="264" />
<glyph unicode="&#x2009;" horiz-adv-x="422" />
<glyph unicode="&#x200a;" horiz-adv-x="117" />
<glyph unicode="&#x2010;" horiz-adv-x="939" d="M840 730v-144h-741v144h741z" />
<glyph unicode="&#x2011;" horiz-adv-x="939" d="M840 730v-144h-741v144h741z" />
<glyph unicode="&#x2012;" horiz-adv-x="939" d="M840 730v-144h-741v144h741z" />
<glyph unicode="&#x2013;" horiz-adv-x="1061" d="M962 719v-144h-863v144h863z" />
<glyph unicode="&#x2014;" horiz-adv-x="1591" d="M1493 719v-144h-1394v144h1394z" />
<glyph unicode="&#x2018;" horiz-adv-x="464" d="M199 1106l-144 88l255 399l99 -56z" />
<glyph unicode="&#x2019;" horiz-adv-x="464" d="M266 1593l143 -89l-255 -398l-99 55z" />
<glyph unicode="&#x201a;" horiz-adv-x="475" d="M199 199l155 -89l-255 -386l-99 44z" />
<glyph unicode="&#x201c;" horiz-adv-x="806" d="M199 1106l-144 88l255 399l99 -56zM542 1106l-143 88l253 399l100 -56z" />
<glyph unicode="&#x201d;" horiz-adv-x="806" d="M608 1593l144 -89l-254 -398l-99 55zM266 1593l143 -89l-255 -398l-99 55z" />
<glyph unicode="&#x201e;" horiz-adv-x="817" d="M199 199l155 -89l-255 -386l-99 44zM542 199l155 -89l-254 -386l-101 44z" />
<glyph unicode="&#x2022;" horiz-adv-x="884" d="M232 531q0 84 63.5 147t147 63t146.5 -63t63 -147t-63 -147t-146.5 -63t-147 63t-63.5 147z" />
<glyph unicode="&#x2026;" horiz-adv-x="1481" d="M133 88.5q0 48.5 30.5 79.5t79.5 31t80 -31t31 -79.5t-31 -79.5t-80 -31t-79.5 31t-30.5 79.5zM631 88.5q0 48.5 29.5 79.5t80.5 31t80.5 -31t29.5 -79.5t-29.5 -79.5t-80.5 -31t-80.5 31t-29.5 79.5zM1128 88.5q0 48.5 31 79.5t79.5 31t79.5 -31t31 -79.5t-31 -79.5 t-79.5 -31t-79.5 31t-31 79.5z" />
<glyph unicode="&#x202f;" horiz-adv-x="422" />
<glyph unicode="&#x2039;" horiz-adv-x="618" d="M519 895l-253 -364l253 -365h-154l-266 365l266 364h154z" />
<glyph unicode="&#x203a;" horiz-adv-x="618" d="M354 531l-255 364h156l264 -364l-264 -365h-156z" />
<glyph unicode="&#x205f;" horiz-adv-x="528" />
<glyph unicode="&#x20ac;" horiz-adv-x="1636" d="M454 663h542v-144h-509q38 -137 191.5 -261.5t338.5 -124.5q115 0 220 49.5t152 100.5l48 49l112 -111q-9 -8 -23.5 -25t-65.5 -59t-108.5 -74t-148.5 -58.5t-186 -26.5q-251 0 -444 159t-263 382h-221v144h198v222h-198v143h221q71 224 263.5 383t443.5 159 q95 0 184 -25t147.5 -61t102.5 -71t66 -60l20 -26l-110 -111q-7 9 -18 22.5t-50.5 48t-84 61t-114 47.5t-143.5 21q-185 0 -339 -125.5t-191 -262.5h509v-143h-542v-222z" />
<glyph unicode="&#x2122;" horiz-adv-x="1469" d="M1228 1327l-221 -287l-222 287v-442h-122v664h111l233 -310l232 310h110v-664h-121v442zM22 1437v112h520v-112h-200v-552h-121v552h-199z" />
<glyph unicode="&#x25fc;" horiz-adv-x="1063" d="M0 1064h1064v-1064h-1064v1064z" />
</font>
</defs>
</svg>
