<svg id="Layer_1" data-name="Layer 1" xmlns="http://www.w3.org/2000/svg" viewBox="0 0 1100 1100"><defs><style>.cls-1{fill:#efefef;}.cls-2,.cls-3,.cls-4,.cls-5{fill:none;stroke-miterlimit:10;stroke-width:15px;}.cls-2{stroke:#19b5fe;}.cls-3{stroke:#22a7f0;}.cls-4{stroke:#044f67;}.cls-5{stroke:#003171;}</style></defs><title>maivrik</title><rect class="cls-1" x="38" y="38" width="1024" height="1024" rx="512" ry="512"/><path class="cls-2" d="M325,303.77c0,22.34-17.2,38.82-39.55,38.82a40.46,40.46,0,0,1,0-80.91C307.8,261.68,325,281.43,325,303.77Z"/><circle class="cls-3" cx="285.45" cy="467.38" r="40.45"/><circle class="cls-4" cx="285.45" cy="632.62" r="40.45"/><circle class="cls-5" cx="285.45" cy="797.86" r="40.45"/><circle class="cls-5" cx="814.55" cy="302.14" r="40.45"/><circle class="cls-4" cx="814.55" cy="467.38" r="40.45"/><circle class="cls-2" cx="814.55" cy="632.62" r="40.45"/><circle class="cls-3" cx="814.55" cy="797.86" r="40.45"/><path class="cls-2" d="M325,302S572.27,609.23,774.09,632.86"/><path class="cls-5" d="M326.82,798.32s145.45-13.2,222.73-275.69S774.09,302,774.09,302"/><path class="cls-3" d="M326.82,458.32s187.27,20.91,449.09,347.27"/><path class="cls-4" d="M325,632.86s87-160,241.66-165.45,205.61,0,205.61,0"/></svg>