<svg xmlns="http://www.w3.org/2000/svg" viewBox="0 0 927 927"><defs><style>.cls-1,.cls-2{fill:none;stroke-miterlimit:10;stroke-width:15px;}.cls-1{stroke:#19b5fe;}.cls-2{stroke:#044f67;}.rotate{animation:rotate 5s linear infinite;transform-origin:center;}@keyframes rotate{from{transform:rotateZ(0)}to{transform:rotateZ(360deg)}}</style></defs><title>Asset 5</title><g class="rotate-3d" id="Layer_2" data-name="Layer 2"><g class="rotate-3d"  id="Layer_1-2" data-name="Layer 1"><path class="cls-1" d="M524,71.11c0,33.77-26,58.68-59.77,58.68a61.15,61.15,0,1,1,0-122.29C498,7.5,524,37.34,524,71.11Z"/><circle class="cls-1" cx="463.5" cy="858.35" r="61.15"/><path class="cls-1" d="M463.09,129.65s-93.71,108.82,0,312.87,0,355.19,0,355.19"/><path class="cls-2" d="M855.89,524c-33.77,0-58.68-26-58.68-59.77a61.15,61.15,0,1,1,122.29,0C919.5,498,889.66,524,855.89,524Z"/><circle class="cls-2" cx="68.65" cy="463.5" r="61.15"/><path class="cls-2" d="M797.35,463.09s-108.82-93.71-312.87,0-355.19,0-355.19,0"/></g></g></svg>